<svg xmlns="http://www.w3.org/2000/svg" viewBox="0 0 32 32"><defs><style>.a{fill:silver;}</style></defs><title>icons</title><path class="a" d="M3.09,12.93V8.16h.63v4.77Z"/><path class="a" d="M4.76,12.93V9.47h.52V10a1.22,1.22,0,0,1,1-.56A1.13,1.13,0,0,1,7,9.55a.85.85,0,0,1,.35.45,1.24,1.24,0,0,1,1.07-.61,1.06,1.06,0,0,1,.79.28,1.23,1.23,0,0,1,.28.88v2.37H8.86V10.75a1.58,1.58,0,0,0-.06-.51A.49.49,0,0,0,8.6,10a.64.64,0,0,0-.35-.09.82.82,0,0,0-.61.24,1.07,1.07,0,0,0-.24.78v2H6.82V10.68a1,1,0,0,0-.14-.59.54.54,0,0,0-.47-.2.86.86,0,0,0-.46.13.74.74,0,0,0-.3.38,2.14,2.14,0,0,0-.1.72v1.79Z"/><path class="a" d="M12.57,12.5a2.17,2.17,0,0,1-.63.39,1.81,1.81,0,0,1-.64.11,1.26,1.26,0,0,1-.88-.28.92.92,0,0,1-.31-.71,1,1,0,0,1,.42-.8A1.41,1.41,0,0,1,11,11a4.19,4.19,0,0,1,.52-.09,5.4,5.4,0,0,0,1-.2c0-.08,0-.13,0-.15a.64.64,0,0,0-.17-.5,1,1,0,0,0-.67-.2,1,1,0,0,0-.61.14.87.87,0,0,0-.29.51l-.57-.08a1.42,1.42,0,0,1,.26-.59A1.13,1.13,0,0,1,11,9.52a2.34,2.34,0,0,1,.79-.12,2.09,2.09,0,0,1,.72.1,1,1,0,0,1,.41.26.92.92,0,0,1,.18.4,3.33,3.33,0,0,1,0,.54v.78a8,8,0,0,0,0,1,1.27,1.27,0,0,0,.15.41h-.61A1.24,1.24,0,0,1,12.57,12.5Zm0-1.31a4.35,4.35,0,0,1-1,.22,2.23,2.23,0,0,0-.51.12.52.52,0,0,0-.23.19.5.5,0,0,0-.08.28.5.5,0,0,0,.18.39.76.76,0,0,0,.52.16,1.21,1.21,0,0,0,.6-.15.91.91,0,0,0,.39-.4,1.41,1.41,0,0,0,.1-.59Z"/><path class="a" d="M13.92,13.21l.57.08a.53.53,0,0,0,.2.38,1,1,0,0,0,.6.16,1,1,0,0,0,.63-.16.8.8,0,0,0,.3-.46,3.77,3.77,0,0,0,0-.75,1.2,1.2,0,0,1-1,.45,1.3,1.3,0,0,1-1.1-.51,2,2,0,0,1-.39-1.23,2.26,2.26,0,0,1,.18-.91,1.41,1.41,0,0,1,.52-.65,1.4,1.4,0,0,1,.8-.23,1.24,1.24,0,0,1,1,.49V9.47h.54v3a2.81,2.81,0,0,1-.16,1.14,1.19,1.19,0,0,1-.52.53,1.8,1.8,0,0,1-.88.2,1.65,1.65,0,0,1-1-.28A.94.94,0,0,1,13.92,13.21Zm.48-2.08a1.5,1.5,0,0,0,.27,1,.89.89,0,0,0,1.35,0,1.45,1.45,0,0,0,.27-1,1.41,1.41,0,0,0-.28-1,.87.87,0,0,0-.68-.32.84.84,0,0,0-.66.32A1.41,1.41,0,0,0,14.4,11.14Z"/><path class="a" d="M20.09,11.81l.61.07a1.49,1.49,0,0,1-.53.82,1.6,1.6,0,0,1-1,.29,1.58,1.58,0,0,1-1.2-.47,1.83,1.83,0,0,1-.44-1.31A1.91,1.91,0,0,1,18,9.88a1.52,1.52,0,0,1,1.16-.48,1.47,1.47,0,0,1,1.13.47,1.87,1.87,0,0,1,.44,1.33s0,.09,0,.16H18.14a1.32,1.32,0,0,0,.32.87,1,1,0,0,0,.72.3.89.89,0,0,0,.55-.17A1.12,1.12,0,0,0,20.09,11.81Zm-1.92-.95H20.1a1.17,1.17,0,0,0-.22-.65.9.9,0,0,0-.72-.34.93.93,0,0,0-.68.27A1.08,1.08,0,0,0,18.17,10.87Z"/><path class="a" d="M3.13,20.92V17.47h.53V18a1.24,1.24,0,0,1,1.1-.57,1.42,1.42,0,0,1,.57.11.89.89,0,0,1,.39.29,1.13,1.13,0,0,1,.18.43,3.35,3.35,0,0,1,0,.57v2.12H5.36v-2.1a1.65,1.65,0,0,0-.07-.54A.58.58,0,0,0,5,18a.77.77,0,0,0-.41-.11.94.94,0,0,0-.65.24,1.17,1.17,0,0,0-.27.9v1.89Z"/><path class="a" d="M6.62,19.19a1.78,1.78,0,0,1,.53-1.42,1.61,1.61,0,0,1,1.09-.38,1.55,1.55,0,0,1,1.16.47,1.78,1.78,0,0,1,.45,1.29,2.28,2.28,0,0,1-.2,1,1.41,1.41,0,0,1-.58.59,1.7,1.7,0,0,1-.84.21,1.56,1.56,0,0,1-1.17-.47A1.86,1.86,0,0,1,6.62,19.19Zm.6,0a1.47,1.47,0,0,0,.29,1,1,1,0,0,0,1.46,0,1.52,1.52,0,0,0,.29-1,1.43,1.43,0,0,0-.29-1,1,1,0,0,0-1.45,0A1.47,1.47,0,0,0,7.22,19.19Z"/><path class="a" d="M11.82,20.4l.08.52a2.17,2.17,0,0,1-.44.05,1,1,0,0,1-.49-.1.56.56,0,0,1-.25-.27,2.09,2.09,0,0,1-.07-.69v-2h-.43v-.46h.43v-.86l.58-.35v1.21h.59v.46h-.59v2a1,1,0,0,0,0,.32.24.24,0,0,0,.1.11.39.39,0,0,0,.2,0Z"/><path class="a" d="M14.39,20.92v-3h-.52v-.46h.52V17.1a1.55,1.55,0,0,1,.06-.52.73.73,0,0,1,.3-.37,1.06,1.06,0,0,1,.6-.14,2.87,2.87,0,0,1,.55.06l-.09.51a2,2,0,0,0-.35,0,.51.51,0,0,0-.38.11.62.62,0,0,0-.11.43v.32h.67v.46H15v3Z"/><path class="a" d="M15.88,19.19a1.78,1.78,0,0,1,.53-1.42,1.61,1.61,0,0,1,1.09-.38,1.55,1.55,0,0,1,1.16.47,1.78,1.78,0,0,1,.45,1.29,2.28,2.28,0,0,1-.2,1,1.41,1.41,0,0,1-.58.59,1.7,1.7,0,0,1-.84.21,1.56,1.56,0,0,1-1.17-.47A1.86,1.86,0,0,1,15.88,19.19Zm.6,0a1.47,1.47,0,0,0,.29,1,1,1,0,0,0,1.46,0,1.52,1.52,0,0,0,.29-1,1.43,1.43,0,0,0-.29-1,1,1,0,0,0-1.45,0A1.47,1.47,0,0,0,16.49,19.19Z"/><path class="a" d="M22.07,20.92v-.51A1.26,1.26,0,0,1,21,21a1.39,1.39,0,0,1-.57-.12.94.94,0,0,1-.39-.3,1.11,1.11,0,0,1-.18-.43,3,3,0,0,1,0-.55V17.47h.59v1.92a3.38,3.38,0,0,0,0,.62.62.62,0,0,0,.23.36.73.73,0,0,0,.44.13,1,1,0,0,0,.49-.14.75.75,0,0,0,.33-.37,1.87,1.87,0,0,0,.1-.68V17.47h.59v3.46Z"/><path class="a" d="M23.51,20.92V17.47H24V18a1.24,1.24,0,0,1,1.1-.57,1.42,1.42,0,0,1,.57.11.89.89,0,0,1,.39.29,1.13,1.13,0,0,1,.18.43,3.35,3.35,0,0,1,0,.57v2.12h-.59v-2.1a1.65,1.65,0,0,0-.07-.54.58.58,0,0,0-.24-.28A.77.77,0,0,0,25,17.9a.94.94,0,0,0-.65.24,1.17,1.17,0,0,0-.27.9v1.89Z"/><path class="a" d="M29.46,20.92v-.44a1.08,1.08,0,0,1-1,.51,1.36,1.36,0,0,1-.76-.23,1.49,1.49,0,0,1-.54-.64A2.19,2.19,0,0,1,27,19.2a2.46,2.46,0,0,1,.17-.94,1.37,1.37,0,0,1,.52-.65,1.38,1.38,0,0,1,.77-.22,1.16,1.16,0,0,1,1,.48V16.15H30v4.77ZM27.61,19.2a1.49,1.49,0,0,0,.28,1,.84.84,0,0,0,.66.33.83.83,0,0,0,.65-.31,1.45,1.45,0,0,0,.27-1,1.63,1.63,0,0,0-.27-1,.84.84,0,0,0-.67-.33.81.81,0,0,0-.65.32A1.58,1.58,0,0,0,27.61,19.2Z"/></svg>