<?xml version="1.0" encoding="utf-8"?>
<!-- Generator: Adobe Illustrator 21.1.0, SVG Export Plug-In . SVG Version: 6.00 Build 0)  -->
<svg version="1.1" id="Layer_1" xmlns="http://www.w3.org/2000/svg" xmlns:xlink="http://www.w3.org/1999/xlink" x="0px" y="0px"
	 viewBox="0 0 19 19" style="enable-background:new 0 0 19 19;" xml:space="preserve">
<style type="text/css">
	.st0{fill:#FFFFFF;}
</style>
<g>
	<g id="search">
		<path class="st0" d="M13,11.6h-0.7L12,11.3c0.9-1,1.5-2.4,1.5-3.9c0-3.3-2.7-6-6-6s-6,2.7-6,6s2.7,6,6,6c1.5,0,2.9-0.6,3.9-1.5
			l0.3,0.3V13l4.6,4.6l1.4-1.4L13,11.6z M7.4,11.6c-2.3,0-4.2-1.9-4.2-4.2s1.9-4.2,4.2-4.2s4.2,1.9,4.2,4.2S9.7,11.6,7.4,11.6z"/>
	</g>
</g>
</svg>
