<?xml version="1.0" encoding="utf-8"?>
<!-- Generator: Adobe Illustrator 21.1.0, SVG Export Plug-In . SVG Version: 6.00 Build 0)  -->
<svg version="1.1" id="Layer_1" xmlns="http://www.w3.org/2000/svg" xmlns:xlink="http://www.w3.org/1999/xlink" x="0px" y="0px"
	 viewBox="0 0 24 24" style="enable-background:new 0 0 24 24;" xml:space="preserve">
<style type="text/css">
	.st0{fill:#818181;}
</style>
<path class="st0" d="M23.9,12c0-6.6-5.3-11.9-11.9-11.9S0.1,5.4,0.1,12S5.4,23.9,12,23.9S23.9,18.6,23.9,12z M10.3,9.3
	c0,0.1-0.1,0.3-0.1,0.5c0,0.1,0,0.1-0.1,0.1c-0.3,0-0.6,0-0.9,0H8.3c-0.1,0-0.1,0-0.1-0.1c0-0.6,0.1-1.2,0.4-1.8
	c0.3-0.7,0.9-1.3,1.6-1.6c1.1-0.5,2.4-0.6,3.6-0.2c0.8,0.3,1.5,0.9,1.8,1.7c0.2,0.5,0.3,1.1,0.2,1.6c-0.1,0.7-0.4,1.3-0.9,1.8
	c-0.4,0.4-0.8,0.7-1.2,1.1c-0.3,0.2-0.6,0.5-0.7,0.9c-0.1,0.3-0.1,0.6-0.2,0.9c0,0.1,0,0.2,0,0.3c0,0.1,0,0.1-0.1,0.1h-1.6
	c-0.1,0-0.1,0-0.1-0.1c0-0.5,0-1,0.2-1.5c0.2-0.5,0.5-1,0.9-1.4c0.4-0.3,0.7-0.7,1-1c0.3-0.3,0.5-0.7,0.6-1C13.9,9,13.6,8.5,13,8.3
	C12.3,8,11.6,8,11,8.3C10.6,8.5,10.3,8.9,10.3,9.3z M10.9,16.9c0-0.6,0.5-1,1.1-1c0.5,0,1,0.5,1,1c0,0.6-0.4,1.1-1,1.1
	S10.9,17.5,10.9,16.9C10.9,16.9,10.9,16.9,10.9,16.9z"/>
</svg>
