<svg id="Layer_1" data-name="Layer 1" xmlns="http://www.w3.org/2000/svg" viewBox="0 0 26 20"><defs><style>.cls-1{fill:#025e7f;}</style></defs><title>Artboard 1</title><polygon class="cls-1" points="9.86 8.38 16.86 15.63 17.55 15 10.55 7.5 13.17 4.63 10.92 4 9.3 6.06 8.67 5.63 7.86 6.44 8.3 7 6.17 9.13 7.55 10.63 9.86 8.38"/><path class="cls-1" d="M10.7,15.86l.94-.28,4.92-5.69L15.33,8.58,9.8,14v.94"/><path class="cls-1" d="M19.8,7.06a2.67,2.67,0,0,1-.52,2,2.47,2.47,0,0,1-2.75.83,2.62,2.62,0,0,1-1.45-2.62,2.39,2.39,0,0,1,.5-1.37A2.74,2.74,0,0,1,17.84,5L16,6.92h0c.42,1.07.45,1.16.58,1.3a3,3,0,0,0,1.38.7h0Z"/></svg>