<?xml version="1.0" encoding="utf-8"?>
<!-- Generator: Adobe Illustrator 21.1.0, SVG Export Plug-In . SVG Version: 6.00 Build 0)  -->
<svg version="1.1" id="Layer_1" xmlns="http://www.w3.org/2000/svg" xmlns:xlink="http://www.w3.org/1999/xlink" x="0px" y="0px"
	 viewBox="0 0 16 16" style="enable-background:new 0 0 16 16;" xml:space="preserve">
<style type="text/css">
	.st0{fill:none;}
	.st1{fill:#191919;}
</style>
<rect x="-8" y="-8" class="st0" width="32" height="32"/>
<path class="st1" d="M8.9,8l6.8-6.8c0.2-0.2,0.2-0.7,0-0.9c-0.2-0.2-0.7-0.2-0.9,0L8,7.1L1.2,0.3C1,0.1,0.6,0.1,0.3,0.3
	C0.1,0.6,0.1,1,0.3,1.2L7.1,8l-6.8,6.8c-0.2,0.2-0.2,0.7,0,0.9c0.1,0.1,0.3,0.2,0.4,0.2c0.2,0,0.3-0.1,0.4-0.2L8,8.9l6.8,6.8
	c0.1,0.1,0.3,0.2,0.4,0.2c0.2,0,0.3-0.1,0.4-0.2c0.2-0.2,0.2-0.7,0-0.9L8.9,8z"/>
</svg>
