<svg xmlns="http://www.w3.org/2000/svg" width="16" height="16" fill="none" viewBox="0 0 16 16">
    <g filter="url(#filter0_dd)">
        <path fill="#78909C" stroke="#78909C" stroke-width=".5" d="M8 3.91v2.045l3-2.728L8 .5v2.045C4.685 2.545 2 4.986 2 8c0 1.07.345 2.066.93 2.905l1.095-.996C3.687 9.343 3.5 8.69 3.5 8c0-2.257 2.018-4.09 4.5-4.09zm5.07 1.185l-1.095.996c.33.573.525 1.22.525 1.909 0 2.257-2.018 4.09-4.5 4.09v-2.044l-3 2.727L8 15.5v-2.046c3.315 0 6-2.44 6-5.454 0-1.07-.345-2.066-.93-2.905v0z"/>
    </g>
    <defs>
        <filter id="filter0_dd" width="60.5" height="64.13" x="-22.25" y="-8.065" color-interpolation-filters="sRGB" filterUnits="userSpaceOnUse">
            <feFlood flood-opacity="0" result="BackgroundImageFix"/>
            <feColorMatrix in="SourceAlpha" values="0 0 0 0 0 0 0 0 0 0 0 0 0 0 0 0 0 0 127 0"/>
            <feOffset dy="6"/>
            <feGaussianBlur stdDeviation="6"/>
            <feColorMatrix values="0 0 0 0 0.211765 0 0 0 0 0.482353 0 0 0 0 0.960784 0 0 0 0.16 0"/>
            <feBlend in2="BackgroundImageFix" mode="multiply" result="effect1_dropShadow"/>
            <feColorMatrix in="SourceAlpha" values="0 0 0 0 0 0 0 0 0 0 0 0 0 0 0 0 0 0 127 0"/>
            <feOffset dy="16"/>
            <feGaussianBlur stdDeviation="12"/>
            <feColorMatrix values="0 0 0 0 0.211765 0 0 0 0 0.482353 0 0 0 0 0.960784 0 0 0 0.16 0"/>
            <feBlend in2="effect1_dropShadow" mode="multiply" result="effect2_dropShadow"/>
            <feBlend in="SourceGraphic" in2="effect2_dropShadow" result="shape"/>
        </filter>
    </defs>
</svg>
