<svg xmlns="http://www.w3.org/2000/svg" viewBox="0 0 32 32"><defs><style>.a{fill:#fff;}.b{fill:#025e7f;}</style></defs><title>icons</title><path class="a" d="M15.38,5.91a9.76,9.76,0,1,0,9.76,9.76A9.76,9.76,0,0,0,15.38,5.91Z"/><path class="b" d="M15.13,21.8a1.39,1.39,0,1,1,1.4-1.38A1.39,1.39,0,0,1,15.13,21.8Z"/><path class="b" d="M17.1,15.18a4.81,4.81,0,0,0-.78,1,3.82,3.82,0,0,0-.18,1.54H14.07a6.08,6.08,0,0,1,.22-2.21c.44-1,2-1.94,2-3a1,1,0,0,0-1.05-1c-.9,0-1.26.64-1.29,1.46H12.14a4.64,4.64,0,0,1,.24-1.57,3.13,3.13,0,0,1,3.11-1.85c1.78,0,3.14.89,3.14,2.77C18.63,13.56,17.89,14.3,17.1,15.18Z"/></svg>