<svg xmlns="http://www.w3.org/2000/svg" width="24" height="24" fill="none" viewBox="0 0 24 24">
    <path fill="#34495E" d="M18.113 12.784c.032-.256.057-.512.057-.784s-.025-.528-.057-.784l1.735-1.32c.156-.12.197-.336.099-.512l-1.645-2.768c-.099-.176-.321-.24-.502-.176l-2.048.8c-.428-.32-.888-.584-1.39-.784l-.312-2.12c-.025-.192-.198-.336-.403-.336h-3.29c-.206 0-.378.144-.403.336l-.313 2.12c-.501.2-.962.472-1.39.784l-2.047-.8c-.19-.072-.403 0-.502.176L4.057 9.384c-.107.176-.058.392.099.512l1.735 1.32c-.033.256-.058.52-.058.784s.025.528.058.784l-1.735 1.32c-.157.12-.198.336-.099.512l1.645 2.768c.099.176.32.24.502.176l2.047-.8c.428.32.889.584 1.39.784l.313 2.12c.025.192.197.336.403.336h3.29c.205 0 .378-.144.403-.336l.312-2.12c.502-.2.963-.472 1.39-.784l2.048.8c.19.072.403 0 .502-.176l1.645-2.768c.098-.176.057-.392-.1-.512l-1.734-1.32zM12.002 14.8c-1.588 0-2.879-1.256-2.879-2.8 0-1.544 1.292-2.8 2.879-2.8s2.878 1.256 2.878 2.8c0 1.544-1.29 2.8-2.878 2.8z"/>
</svg>
