<?xml version="1.0" encoding="utf-8"?>
<!-- Generator: Adobe Illustrator 21.1.0, SVG Export Plug-In . SVG Version: 6.00 Build 0)  -->
<svg version="1.1" id="Layer_1" xmlns="http://www.w3.org/2000/svg" xmlns:xlink="http://www.w3.org/1999/xlink" x="0px" y="0px"
	 viewBox="0 0 16 16" style="enable-background:new 0 0 16 16;" xml:space="preserve">
<style type="text/css">
	.st0{fill:#151515;}
</style>
<g>
	<g>
		<path class="st0" d="M0.6,0.1v7.3c0,0.2,0.2,0.4,0.4,0.4s0.4-0.2,0.4-0.4V0.5h14.4v14.4H8.9c-0.2,0-0.4,0.2-0.4,0.4
			c0,0.2,0.2,0.4,0.4,0.4h7.3c0.2,0,0.4-0.2,0.4-0.4V0.1c0-0.2-0.2-0.4-0.4-0.4H1.1C0.8-0.4,0.6-0.2,0.6,0.1z"/>
		<path class="st0" d="M0.6,15.2c0,0.2,0.2,0.4,0.4,0.4h5.6c0.2,0,0.4-0.2,0.4-0.4V9.7c0-0.2-0.2-0.4-0.4-0.4H1.1
			c-0.2,0-0.4,0.2-0.4,0.4C0.6,9.7,0.6,15.2,0.6,15.2z M1.5,10.1h4.8v4.8H1.5V10.1z"/>
		<path class="st0" d="M8.2,4.1C8,4.1,7.8,4.3,7.8,4.5v3.6c0,0.2,0.2,0.4,0.4,0.4h3.6c0.2,0,0.4-0.2,0.4-0.4c0-0.2-0.2-0.4-0.4-0.4
			H9.2l4.5-4.5c0.2-0.2,0.2-0.4,0-0.6s-0.4-0.2-0.6,0L8.6,7.1V4.5C8.6,4.3,8.4,4.1,8.2,4.1z"/>
	</g>
</g>
</svg>
