<?xml version="1.0" encoding="utf-8"?>
<!-- Generator: Adobe Illustrator 21.1.0, SVG Export Plug-In . SVG Version: 6.00 Build 0)  -->
<svg version="1.1" id="Capa_1" xmlns="http://www.w3.org/2000/svg" xmlns:xlink="http://www.w3.org/1999/xlink" x="0px" y="0px"
	 viewBox="0 0 23.6 23.6" style="enable-background:new 0 0 23.6 23.6;" xml:space="preserve">
<style type="text/css">
	.st0{fill:#FFFFFF;}
</style>
<path class="st0" d="M11.8,11.6c2,0,3.6-2,3.6-4.4c0-2.4-0.5-4.4-3.6-4.4c-3.1,0-3.6,2-3.6,4.4C8.2,9.6,9.8,11.6,11.8,11.6
	L11.8,11.6z M11.8,11.6"/>
<path class="st0" d="M5,18.2C5,18.1,5,18.2,5,18.2L5,18.2z M5,18.2"/>
<path class="st0" d="M18.6,18.4C18.6,18.3,18.6,18.1,18.6,18.4L18.6,18.4z M18.6,18.4"/>
<path class="st0" d="M18.6,18.1c-0.1-4.2-0.6-5.4-4.8-6.1c0,0-0.6,0.8-2,0.8c-1.4,0-2-0.8-2-0.8c-4.1,0.7-4.7,1.9-4.8,6
	c0,0.3,0,0.4,0,0.3c0,0.1,0,0.2,0,0.4c0,0,1,2,6.8,2c5.8,0,6.8-2,6.8-2c0-0.2,0-0.3,0-0.3C18.6,18.4,18.6,18.3,18.6,18.1L18.6,18.1z
	 M18.6,18.1"/>
</svg>
