<svg id="Layer_1" data-name="Layer 1" xmlns="http://www.w3.org/2000/svg" viewBox="0 0 11.5 16.5"><defs><style>.cls-1,.cls-2{fill:none;stroke:#025e7f;stroke-linejoin:round;}.cls-2{stroke-linecap:round;}</style></defs><title>Database</title><ellipse class="cls-1" cx="5.75" cy="2.25" rx="5.25" ry="1.75"/><path class="cls-1" d="M9.5,24" transform="translate(-9.5 -8)"/><path class="cls-1" d="M9.5,10.5" transform="translate(-9.5 -8)"/><path class="cls-1" d="M9.5,14.5" transform="translate(-9.5 -8)"/><path class="cls-1" d="M9.5,16.5" transform="translate(-9.5 -8)"/><path class="cls-1" d="M15,16c-2.81,0-5-.8-5-1.75" transform="translate(-9.5 -8)"/><path class="cls-1" d="M20.5,14.25c0,1-2.35,1.75-5.25,1.75H15" transform="translate(-9.5 -8)"/><path class="cls-1" d="M19.72,17.33" transform="translate(-9.5 -8)"/><path class="cls-1" d="M19.72,17.33" transform="translate(-9.5 -8)"/><path class="cls-1" d="M9.5,14.5" transform="translate(-9.5 -8)"/><path class="cls-2" d="M20.5,18.25c0,1-2.35,1.75-5.25,1.75S10,19.22,10,18.25" transform="translate(-9.5 -8)"/><path class="cls-1" d="M15.25,16.5" transform="translate(-9.5 -8)"/><path class="cls-1" d="M9.5,18.5" transform="translate(-9.5 -8)"/><line class="cls-2" x1="0.5" y1="2.25" x2="0.5" y2="14.5"/><line class="cls-2" x1="11" y1="2.5" x2="11" y2="14"/><path class="cls-2" d="M20.5,22.25c0,1-2.35,1.75-5.25,1.75S10,23.22,10,22.25" transform="translate(-9.5 -8)"/></svg>