<?xml version="1.0" encoding="utf-8"?>
<!-- Generator: Adobe Illustrator 21.1.0, SVG Export Plug-In . SVG Version: 6.00 Build 0)  -->
<svg version="1.1" id="Layer_1" xmlns="http://www.w3.org/2000/svg" xmlns:xlink="http://www.w3.org/1999/xlink" x="0px" y="0px"
	 viewBox="0 0 16 16" style="enable-background:new 0 0 16 16;" xml:space="preserve">
<style type="text/css">
	.st0{fill:none;}
	.st1{fill:#191919;}
</style>
<rect x="-8" y="-8" class="st0" width="32" height="32"/>
<rect x="-6.8" y="-6.8" class="st0" width="29" height="29"/>
<g>
	<path class="st1" d="M15.3,0h-15C0.1,0,0,0.2,0,0.4v7.2c0,0.2,0.2,0.4,0.4,0.4c0.2,0,0.4-0.2,0.4-0.4V0.8h14.2v14.2H8.1
		c-0.2,0-0.4,0.2-0.4,0.4c0,0.2,0.2,0.4,0.4,0.4h7.2c0.2,0,0.4-0.2,0.4-0.4v-15C15.7,0.2,15.5,0,15.3,0z"/>
	<path class="st1" d="M5.8,9.5H0.4C0.1,9.5,0,9.6,0,9.9v5.5h0c0,0.2,0.2,0.4,0.4,0.4h5.5c0.2,0,0.4-0.2,0.4-0.4V9.9
		C6.2,9.6,6.1,9.5,5.8,9.5z M5.4,14.9H0.7v-4.7h4.7V14.9z"/>
	<path class="st1" d="M12.2,6.7c0,0.2,0.2,0.4,0.4,0.4c0.2,0,0.4-0.2,0.4-0.4V3.1c0-0.2-0.2-0.4-0.4-0.4H9c-0.2,0-0.4,0.2-0.4,0.4
		c0,0.2,0.2,0.4,0.4,0.4h2.6L7.1,8C7,8.2,7,8.4,7.1,8.6c0.1,0.1,0.2,0.1,0.3,0.1c0.1,0,0.2,0,0.3-0.1l4.5-4.5V6.7z"/>
</g>
</svg>
