<?xml version="1.0" encoding="utf-8"?>
<!-- Generator: Adobe Illustrator 21.1.0, SVG Export Plug-In . SVG Version: 6.00 Build 0)  -->
<svg version="1.1" id="Capa_1" xmlns="http://www.w3.org/2000/svg" xmlns:xlink="http://www.w3.org/1999/xlink" x="0px" y="0px"
	 viewBox="0 0 23.6 23.6" style="enable-background:new 0 0 23.6 23.6;" xml:space="preserve">
<style type="text/css">
	.st0{fill:#085F80;}
</style>
<g>
	<path class="st0" d="M11.8,0.8c-6.1,0-11.1,5-11.1,11.1s5,11.1,11.1,11.1s11.1-5,11.1-11.1S17.9,0.8,11.8,0.8z M14.1,17.9
		c-0.6,0.2-1,0.4-1.4,0.5c-0.3,0.1-0.7,0.2-1.2,0.2c-0.7,0-1.2-0.2-1.6-0.5c-0.4-0.3-0.6-0.8-0.6-1.3c0-0.2,0-0.4,0-0.6
		c0-0.2,0.1-0.4,0.1-0.7l0.7-2.5c0.1-0.2,0.1-0.5,0.2-0.7c0-0.2,0.1-0.4,0.1-0.6c0-0.3-0.1-0.5-0.2-0.7c-0.1-0.1-0.4-0.2-0.8-0.2
		c-0.2,0-0.4,0-0.6,0.1C8.8,11,8.6,11,8.5,11.1l0.2-0.8c0.5-0.2,0.9-0.4,1.3-0.5c0.4-0.1,0.8-0.2,1.2-0.2c0.7,0,1.2,0.2,1.6,0.5
		c0.4,0.3,0.6,0.8,0.6,1.3c0,0.1,0,0.3,0,0.6c0,0.3-0.1,0.5-0.1,0.8l-0.7,2.5c-0.1,0.2-0.1,0.4-0.2,0.7c0,0.3-0.1,0.5-0.1,0.6
		c0,0.3,0.1,0.6,0.2,0.7c0.1,0.1,0.4,0.2,0.8,0.2c0.2,0,0.4,0,0.6-0.1c0.2-0.1,0.4-0.1,0.5-0.2L14.1,17.9z M14,7.7
		c-0.3,0.3-0.7,0.5-1.2,0.5c-0.5,0-0.9-0.2-1.2-0.5c-0.3-0.3-0.5-0.7-0.5-1.1c0-0.4,0.2-0.8,0.5-1.1C11.9,5.2,12.3,5,12.8,5
		c0.5,0,0.9,0.2,1.2,0.5c0.3,0.3,0.5,0.7,0.5,1.1C14.5,7,14.3,7.4,14,7.7z"/>
</g>
</svg>
