<svg xmlns="http://www.w3.org/2000/svg" viewBox="0 0 32 32"><defs><style>.a{fill:#025e7f;}.b{fill:#fff;}</style></defs><title>icons</title><path class="a" d="M15.64,3.47a12.2,12.2,0,1,0,12.2,12.2A12.2,12.2,0,0,0,15.64,3.47Z"/><path class="b" d="M17.78,15.06a5.81,5.81,0,0,0-1,1.21,4.82,4.82,0,0,0-.22,1.92H14a7.48,7.48,0,0,1,.28-2.76c.54-1.3,2.46-2.42,2.46-3.76a1.2,1.2,0,0,0-1.32-1.23c-1.12,0-1.58.8-1.62,1.84H11.58a6,6,0,0,1,.3-2A3.91,3.91,0,0,1,15.77,8C18,8,19.7,9.1,19.7,11.46,19.7,13,18.78,14,17.78,15.06Zm-2.46,8.27a1.74,1.74,0,1,1,0-3.48,1.74,1.74,0,1,1,0,3.48Z"/></svg>