<svg xmlns="http://www.w3.org/2000/svg" viewBox="0 0 32 32"><defs><style>.a{fill:#fff;}.b{fill:red;}</style></defs><title>warn</title><path class="a" d="M14.3,11.9a1.5,1.5,0,0,1,3,0v5a1.5,1.5,0,1,1-3,0Z"/><circle class="a" cx="15.8" cy="21.53" r="1.63"/><path d="M24.68,27.68H6.92a4.4,4.4,0,0,1-3.75-2.13,4,4,0,0,1,0-4.25L12.05,6A4.11,4.11,0,0,1,15.8,3.92,4.25,4.25,0,0,1,19.56,6l8.88,15.38a4.3,4.3,0,0,1,0,4.25A4.57,4.57,0,0,1,24.68,27.68Z"/><path class="b" d="M15.8,5a3,3,0,0,0-2.63,1.5L4.3,21.93a3.19,3.19,0,0,0,0,3,2.81,2.81,0,0,0,2.63,1.5H24.68a3,3,0,0,0,2.63-1.5,3.19,3.19,0,0,0,0-3L18.43,6.67A2.92,2.92,0,0,0,15.8,5Z"/><path d="M14.3,11.8a1.5,1.5,0,0,1,3,0v5a1.5,1.5,0,0,1-3,0Z"/><circle cx="15.8" cy="21.43" r="1.63"/></svg>