<svg xmlns="http://www.w3.org/2000/svg" viewBox="0 0 32 32"><defs><style>.a{fill:#025e7f;}</style></defs><title>information-button-LOW</title><path class="a" d="M15.8,3.6A12.2,12.2,0,1,0,28,15.8,12.2,12.2,0,0,0,15.8,3.6Zm2.54,18.91c-.63.25-1.13.43-1.5.56a3.91,3.91,0,0,1-1.3.2,2.59,2.59,0,0,1-1.77-.56,1.79,1.79,0,0,1-.63-1.41,5.36,5.36,0,0,1,0-.68,8,8,0,0,1,.15-.78l.79-2.78c.07-.27.13-.52.18-.75a3.51,3.51,0,0,0,.07-.66,1,1,0,0,0-.22-.74,1.23,1.23,0,0,0-.84-.21,2.29,2.29,0,0,0-.63.09l-.54.18.21-.85c.51-.21,1-.39,1.48-.54a4.31,4.31,0,0,1,1.33-.23,2.53,2.53,0,0,1,1.74.55,1.81,1.81,0,0,1,.62,1.42c0,.12,0,.33,0,.64a4.34,4.34,0,0,1-.16.84l-.78,2.77c-.07.22-.12.48-.18.76a4,4,0,0,0-.07.65.94.94,0,0,0,.25.75,1.37,1.37,0,0,0,.86.2,2.48,2.48,0,0,0,.65-.1,3.73,3.73,0,0,0,.52-.18ZM18.2,11.28a2,2,0,0,1-2.64,0A1.63,1.63,0,0,1,15,10a1.65,1.65,0,0,1,.55-1.24,2,2,0,0,1,2.64,0A1.64,1.64,0,0,1,18.75,10,1.63,1.63,0,0,1,18.2,11.28Z"/></svg>