<svg xmlns="http://www.w3.org/2000/svg" viewBox="0 0 711.16 662.82"><defs><style>.cls-1{fill:#ff4040;}.cls-2{fill:#444867;}.cls-3{fill:none;}</style></defs><title>Artboard 1</title><g id="Layer_1" data-name="Layer 1"><path class="cls-1" d="M44.73,595.82h15c5,0,9.46,1.23,9.46,6.5,0,3.21-3,5.23-6.29,5.44V608c3.36.29,7.55,1.63,7.55,6.46,0,2.79-2,6.85-10.2,6.85H44.73Zm5.72,10.38h8.16c2.79,0,4.45-.84,4.45-3.11,0-2.75-2.58-3.36-5.54-3.36H50.46Zm0,11.15h7.91c3.49,0,6-1,6-3.57,0-2.93-3.07-3.63-5.61-3.63h-8.3Z"/><path class="cls-1" d="M103.54,595.82,91.29,611.6v9.71H85.57V611.6l-12.4-15.78h7.49l8,10.91,8.08-10.91Z"/><path class="cls-1" d="M129.77,595.82l9.63,20.76,9.46-20.76h9.57v25.49h-5.72V599.42h-.07l-10,21.89h-7l-10.2-21.89h-.07v21.89h-5.19V595.82Z"/><path class="cls-1" d="M174.92,595.82h7.2l13,25.49h-6.78l-2.93-5.72H170.74l-2.69,5.72h-6.14Zm8.48,15.6-5.3-11.09-5.3,11.09Z"/><path class="cls-1" d="M219.79,604c-.18-3.57-3.85-4.94-6.71-4.94-5.36,0-10.35,2.72-10.35,9.36,0,4.73,2.52,9.36,10.38,9.36a21.7,21.7,0,0,0,7-1.17v-4.88h-8.16v-4h13.73v11.92c-3.63,1.55-9.23,2.26-12.92,2.26-9.5,0-15.94-4.2-15.94-13.49,0-7.63,5.4-13.34,15.42-13.34,7.7,0,13.43,2.93,13.43,8.9Z"/><path class="cls-1" d="M231.82,595.82h8l14.44,19.56h.07V595.82h5.15v25.49h-7.7L237,601.4H237v19.91h-5.15Z"/><path class="cls-1" d="M266.35,595.82h5.72v25.49h-5.72Z"/><path class="cls-1" d="M301.37,595.82V600h-9.71v21.32h-5.72V600h-9.71v-4.2Z"/><path class="cls-1" d="M304.75,595.82h5.72v15.53c0,4.2,2.72,6.64,7.1,6.64,4.2,0,7.06-2.08,7.06-6.78V595.82h5.72v15.32c0,5.82-2.43,10.84-13.66,10.84-6.18,0-11.93-3.14-11.93-9.81Z"/><path class="cls-1" d="M336.28,595.82h12.11c9.78,0,14.09,5.54,14.09,13,0,4.77-2.72,12.46-14,12.46H336.28ZM342,617.15h5.65c7.28,0,8.9-5.4,8.9-8.72,0-5.87-3.92-8.43-8.93-8.43H342Z"/><path class="cls-1" d="M387.85,600H373.38v6h13.95v4.2H373.38v7h15.11v4.2H367.66V595.82h20.19Z"/><path class="cls-2" d="M88.27,524.57H57.14V537.5h30v8.93h-30v15H89.61v9H44.85V515.6H88.27Z"/><path class="cls-2" d="M109.52,515.6l19.53,43.27,19.44-43.27h12.76l-25.81,54.81H121.29L95.4,515.6Z"/><path class="cls-2" d="M212,524.57H180.87V537.5h30v8.93h-30v15h32.49v9H168.58V515.6H212Z"/><path class="cls-2" d="M225.74,515.6h32.87c12.07,0,21.11,3.87,21.11,14.73,0,9.57-6.71,13.51-15.11,14.12v.15c12.53.53,13.51,6.15,14.12,16.32a29.45,29.45,0,0,0,1.68,9.49H267.19c-.68-1.59-1.07-5.46-1.22-8.65-.53-10.78-3-13-15-13H238v21.63H225.74ZM238,540.28H254c7.21,0,13-1.59,13-8.2s-5.92-7.55-12.45-7.55H238Z"/><path class="cls-2" d="M347.35,515.6l-26.42,33.94v20.87H308.64V549.54L282,515.6h16.1l17.3,23.5,17.38-23.5Z"/><path class="cls-2" d="M390.84,515.6h15.48l28,54.81H419.76l-6.3-12.29H381.88l-5.77,12.29H362.91Zm18.22,33.57-11.39-23.83-11.39,23.83Z"/><path class="cls-2" d="M438.89,515.6h17.3l31.05,42.05h.15V515.6h11.09v54.81H481.93l-31.81-42.8H450v42.8H438.89Z"/><path class="cls-2" d="M556.21,533.3c-.38-7.67-8.27-10.62-14.35-10.62-11.54,0-22.24,5.87-22.24,20.14,0,10.17,5.46,20.14,22.31,20.14a46.66,46.66,0,0,0,15-2.52V549.92H539.43v-8.5H569V567c-7.82,3.36-19.81,4.86-27.79,4.86-20.42,0-34.32-9.11-34.32-29,0-16.4,11.61-28.69,33.17-28.69,16.55,0,28.92,6.3,28.92,19.13Z"/><path class="cls-2" d="M581.83,515.6h12.29v45.85h30.14v9H581.83Z"/><path class="cls-2" d="M675.88,524.57H644.76V537.5h30v8.93h-30v15h32.49v9H632.46V515.6h43.42Z"/><rect class="cls-3" x="668.16" y="515.6" width="15.89" height="15.9"/><path class="cls-2" d="M699.82,523.47a7.91,7.91,0,1,1-7.92-7.89h0a7.88,7.88,0,0,1,7.89,7.87Zm-14.64,0a6.71,6.71,0,1,0,6.71-6.71,6.71,6.71,0,0,0-6.71,6.71h0Zm5.3,4.58H689v-9.11h3.62a2.29,2.29,0,0,1,2.51,2.05q0,.11,0,.22a2.21,2.21,0,0,1-2,2.11h0c1.13.13,1.54.49,1.59,2.32a11.87,11.87,0,0,0,.36,2.37h-1.45a9.25,9.25,0,0,1-.38-3,1.18,1.18,0,0,0-1.31-1h-1.5Zm0-5.24h1.89a1.31,1.31,0,0,0,1.33-1.47,1.27,1.27,0,0,0-1.14-1.38h-2.07Z"/></g><g id="Layer_2" data-name="Layer 2"><path class="cls-1" d="M415.55,297.25a230.23,230.23,0,0,1,162.63-67.33h0c.07-127-102.85-230-229.86-230.11s-230,102.85-230.11,229.86,102.85,230,229.86,230.11h.12A230.17,230.17,0,0,1,415.55,297.25Z"/><path class="cls-1" d="M578.15,237c-3.06,122-101,219-222.88,222.85H578.21V237.06Z"/></g></svg>