<svg id="Layer_1" data-name="Layer 1" xmlns="http://www.w3.org/2000/svg" viewBox="0 0 1000 200"><defs><style>
                                                                                                                                  .cls-1 {
                                                                                                                                      fill: #ff4040;
                                                                                                                                  }

                                                                                                                                  .cls-2 {
                                                                                                                                      fill: #444867;
                                                                                                                                  }

                                                                                                                                  .cls-3 {
                                                                                                                                      fill: none;
                                                                                                                                  }
                        </style></defs><title>Every_Angle_Logo_Color_Wide-01</title><path class="cls-1" d="M203.52,139.5H221.4c6,0,11.27,1.47,11.27,7.74,0,3.83-3.53,6.23-7.49,6.48V154c4,.34,9,1.94,9,7.7,0,3.32-2.36,8.16-12.16,8.16H203.52Zm6.82,12.37h9.72c3.32,0,5.3-1,5.3-3.7,0-3.28-3.07-4-6.6-4h-8.41Zm0,13.29h9.42c4.16,0,7.15-1.14,7.15-4.25,0-3.49-3.66-4.33-6.69-4.33h-9.89Z" /><path class="cls-1" d="M273.6,139.5,259,158.3v11.57h-6.81V158.3l-14.77-18.8h8.92l9.59,13,9.63-13Z" /><path class="cls-1" d="M304.85,139.5l11.48,24.74,11.27-24.74H339v30.37h-6.81V143.79h-.08l-11.86,26.08h-8.33l-12.16-26.08h-.08v26.08H293.5V139.5Z" /><path class="cls-1" d="M358.65,139.5h8.58l15.52,30.37h-8.08l-3.49-6.81h-17.5l-3.2,6.81h-7.32Zm10.1,18.59-6.31-13.21-6.31,13.21Z" /><path class="cls-1" d="M412.12,149.3c-.21-4.25-4.59-5.89-8-5.89-6.39,0-12.33,3.24-12.33,11.15,0,5.64,3,11.15,12.37,11.15a25.86,25.86,0,0,0,8.33-1.39v-5.81h-9.72V153.8h16.36V168c-4.33,1.85-11,2.69-15.4,2.69-11.32,0-19-5-19-16.07,0-9.09,6.44-15.9,18.38-15.9,9.17,0,16,3.49,16,10.6Z" /><path class="cls-1" d="M426.46,139.5h9.59l17.21,23.31h.08V139.5h6.14v30.37h-9.17l-17.63-23.73h-.08v23.73h-6.14Z" /><path class="cls-1" d="M467.6,139.5h6.82v30.37H467.6Z" /><path class="cls-1" d="M509.33,139.5v5H497.76v25.41h-6.81V144.46H479.38v-5Z" /><path class="cls-1" d="M513.36,139.5h6.81V158c0,5,3.24,7.91,8.46,7.91,5,0,8.41-2.48,8.41-8.08V139.5h6.81v18.26c0,6.94-2.9,12.92-16.28,12.92-7.36,0-14.22-3.74-14.22-11.69Z" /><path class="cls-1" d="M550.93,139.5h14.43c11.65,0,16.79,6.6,16.79,15.52,0,5.68-3.24,14.85-16.74,14.85H550.93Zm6.82,25.41h6.73c8.67,0,10.6-6.44,10.6-10.39,0-7-4.67-10.05-10.64-10.05h-6.69Z" /><path class="cls-1" d="M612.38,144.46H595.14v7.15h16.62v5H595.14v8.33h18v5H588.32V139.5h24.06Z" /><path class="cls-2" d="M255.4,54.59H218.31V70H254V80.64H218.31V98.55H257v10.67H203.66V43.91H255.4Z" /><path class="cls-2" d="M280.73,43.91,304,95.47l23.16-51.56h15.2l-30.75,65.31H294.75L263.9,43.91Z" /><path class="cls-2" d="M402.84,54.59H365.75V70h35.73V80.64H365.75V98.55h38.71v10.67H351.1V43.91h51.74Z" /><path class="cls-2" d="M419.21,43.91h39.17c14.38,0,25.15,4.61,25.15,17.55,0,11.4-8,16.1-18,16.82v.18c14.93.63,16.1,7.33,16.82,19.45.27,5.43,1,8.77,2,11.31H468.6c-.81-1.9-1.27-6.51-1.45-10.31-.63-12.84-3.53-15.47-17.82-15.47H433.86v25.78H419.21Zm14.65,29.4h19c8.59,0,15.47-1.9,15.47-9.77s-7.06-9-14.83-9H433.86Z" /><path class="cls-2" d="M564.12,43.91,532.64,84.35v24.87H518V84.35L486.24,43.91h19.18l20.62,28,20.71-28Z" /><path class="cls-2" d="M615.95,43.91H634.4l33.38,65.31H650.41L642.9,94.57H605.27l-6.87,14.65H582.66Zm21.71,40-13.57-28.4-13.57,28.4Z" /><path class="cls-2" d="M673.2,43.91h20.62l37,50.11H731V43.91h13.21v65.31H724.49l-37.9-51h-.18v51H673.2Z" /><path class="cls-2" d="M813,65c-.45-9.14-9.86-12.66-17.1-12.66-13.75,0-26.5,7-26.5,24,0,12.12,6.51,24,26.59,24a55.6,55.6,0,0,0,17.91-3V84.8H793V74.67h35.19v30.48c-9.32,4-23.61,5.79-33.11,5.79-24.33,0-40.89-10.85-40.89-34.55,0-19.54,13.84-34.19,39.53-34.19,19.72,0,34.46,7.51,34.46,22.79Z" /><path class="cls-2" d="M843.53,43.91h14.65V98.55h35.91v10.67H843.53Z" /><path class="cls-2" d="M955.6,54.59H918.52V70h35.73V80.64H918.52V98.55h38.71v10.67H903.86V43.91H955.6Z" /><rect class="cls-3" x="946.4" y="43.91" width="18.93" height="18.95" /><path class="cls-2" d="M984.13,53.28a9.42,9.42,0,1,1-9.4-9.4A9.39,9.39,0,0,1,984.13,53.28Zm-17.44,0a8,8,0,1,0,8-8A8,8,0,0,0,966.7,53.3ZM973,58.74h-1.75V47.89h4.31a2.73,2.73,0,0,1,3,2.71,2.63,2.63,0,0,1-2.36,2.51v0c1.35.15,1.83.58,1.9,2.76a14.15,14.15,0,0,0,.43,2.83h-1.73c-.43-.75-.33-2.15-.45-3.61a1.41,1.41,0,0,0-1.63-1.23H973Zm0-6.24h2.25a1.56,1.56,0,0,0,1.58-1.75,1.51,1.51,0,0,0-1.58-1.65H973Z" /><path class="cls-1" d="M112.42,118.89a75.23,75.23,0,0,1,53.14-22h0A75.15,75.15,0,1,0,90.41,172h0A75.21,75.21,0,0,1,112.42,118.89Z" /><path class="cls-1" d="M165.55,99.21c-1,39.86-33,71.56-72.83,72.82h72.85V99.22Z" /></svg>
 