<svg xmlns="http://www.w3.org/2000/svg" viewBox="0 0 670.35 125.11"><defs><style>.a{fill:#f26f21;}.b{fill:#9fdae9;}.c{fill:#00547b;}.d{fill:#fff;}</style></defs><title>logo-every-angle</title><rect class="a" x="49.99" y="50" width="49.99" height="49.99"/><path class="b" d="M12.81,61a50,50,0,1,1,100,0c0,2.74-44.84,50-50,50a50,50,0,0,1-50-50" transform="translate(-12.81 -11)"/><path class="c" d="M98.15,96.35A50,50,0,0,1,62.8,111a50,50,0,0,1,50-50A50,50,0,0,1,98.15,96.35" transform="translate(-12.81 -11)"/><polygon class="d" points="142.63 99.94 142.63 31.73 179.72 31.73 179.72 42.76 155.77 42.76 155.77 59.52 178.51 59.52 178.51 70.24 155.77 70.24 155.77 88.72 179.72 88.72 179.72 99.94 142.63 99.94"/><path class="d" d="M232.14,110.95H219l-18.6-50.23h14.15l8,22.64c1.21,3.53,2.42,7.57,3.33,11.11h.21a106.81,106.81,0,0,1,3-10.71l8.08-23h13.75Z" transform="translate(-12.81 -11)"/><path class="d" d="M279.23,69.11c-5.35,0-9.09,3.94-9.8,10h18.49c.2-6.27-3.24-10-8.69-10M300.36,87.9H269.23c-.11,9.39,4.54,13.94,13.84,13.94a36,36,0,0,0,14.66-3.12l1.21,10A49.82,49.82,0,0,1,281,112c-16,0-24.87-8-24.87-25.67,0-15.36,8.48-26.68,23.55-26.68,14.65,0,21.11,10,21.11,22.43a42.47,42.47,0,0,1-.4,5.87" transform="translate(-12.81 -11)"/><path class="d" d="M328.14,70.83h.21c2.42-6.37,7.27-11.93,16-11.22l-.61,12.74c-9.3-1.93-13.95,4.14-13.95,18.09v20.51H316.92V70.63c-2.42-.41-5.87-.82-8.79-1V61.53A142.45,142.45,0,0,1,329,60.61a66.78,66.78,0,0,1-.91,10.21" transform="translate(-12.81 -11)"/><path class="d" d="M378.47,115.6c-6,15.67-12.22,20.42-23.74,20.42a33.06,33.06,0,0,1-7.07-.82l1.81-11.11a22.86,22.86,0,0,0,6.87,1.11c4.25,0,7.08-1.92,9.71-9.4l1.71-4.85-18.5-50.22h14.35l6.77,19.19c1.52,4.35,2.83,9.31,3.94,13.85h.11c1.11-4.54,3.23-11.32,4.85-16l6-17.07h13.84Z" transform="translate(-12.81 -11)"/><path class="d" d="M452.13,68.7A84.83,84.83,0,0,1,449,57.79h-.1c-.81,3.53-1.92,7.48-3.24,11.42l-6.16,17.38h19Zm14.56,42.25-4.75-14H436.17l-4.74,14H418.19L442,42.73h14.85l24.35,68.21Z" transform="translate(-12.81 -11)"/><path class="d" d="M505.19,69.61l.1.1c3-6,8.9-10.11,17.08-10.11,11.32,0,15,7.28,15,16.07v35.27H524.49V78.81c0-5.26-1.4-8.4-6.16-8.4-6.57,0-11.73,7.48-11.73,16.27v24.25H493.77V70.62c-2.42-.4-5.86-.82-8.8-1V61.53a142.06,142.06,0,0,1,20.92-.92,55.78,55.78,0,0,1-.71,9" transform="translate(-12.81 -11)"/><path class="d" d="M583.41,70.83a28.38,28.38,0,0,0-6.77-.71c-7.38,0-12.64,4.55-12.64,17,0,9.4,2.74,14.14,8.6,14.14,6.77,0,10.81-7.77,10.81-16.56Zm-15.86,65.28a54.84,54.84,0,0,1-14.36-1.92l1-12a45.15,45.15,0,0,0,15,2.92c9.49,0,14.45-3.33,14.45-12.53v-2.62a35.93,35.93,0,0,1,.51-7.28h-.2a15.88,15.88,0,0,1-14.85,9.3c-12,0-18.6-8.18-18.6-23.44,0-17,9.7-28.71,27.39-28.71a109.5,109.5,0,0,1,18.4,1.52v51.24c0,11.73-6.46,23.55-28.7,23.55" transform="translate(-12.81 -11)"/><path class="d" d="M625.65,110.95H612.72V47.08c-2.43-.41-5.87-.81-8.8-1V38a149.48,149.48,0,0,1,21.73-.91Z" transform="translate(-12.81 -11)"/><path class="d" d="M661.61,69.11c-5.34,0-9.08,3.94-9.79,10h18.49c.2-6.27-3.24-10-8.7-10M682.74,87.9H651.62c-.1,9.39,4.55,13.94,13.84,13.94a36,36,0,0,0,14.66-3.12l1.22,10a49.87,49.87,0,0,1-18,3.24c-16,0-24.85-8-24.85-25.67,0-15.36,8.47-26.68,23.54-26.68,14.65,0,21.13,10,21.13,22.43a41.17,41.17,0,0,1-.41,5.87" transform="translate(-12.81 -11)"/></svg>