<svg width="133" height="17" viewBox="0 0 133 17" fill="none" xmlns="http://www.w3.org/2000/svg">
<path d="M12.3034 13.427H14.9314L9.96342 0.827039H7.56942L2.61942 13.427H5.17542L6.38142 10.169H11.0974L12.3034 13.427ZM7.11942 8.15304L8.73942 3.76104L10.3594 8.15304H7.11942ZM20.7494 3.94104C19.7054 3.94104 18.7874 4.35504 18.2114 5.36304V4.15704H15.8894V13.427H18.2114V7.97304C18.2114 6.69504 19.0034 5.95704 20.1014 5.95704C21.0374 5.95704 21.7214 6.64104 21.7214 7.84704V13.427H24.0434V7.45104C24.0434 5.32704 22.6394 3.94104 20.7494 3.94104ZM30.5844 11.249H30.0444C29.0004 11.249 27.5784 11.249 27.5784 10.673C27.5784 10.025 28.7664 10.025 30.0984 10.025C32.4564 10.025 34.1844 8.96304 34.1844 7.28904C34.1844 6.53304 33.8424 5.99304 33.2484 5.59704C33.8604 5.48904 34.4544 5.34504 34.9944 5.11104L34.3104 3.34704C33.1224 3.95904 31.6464 3.94104 30.0984 3.94104C27.7044 3.94104 25.9584 5.12904 25.9584 7.01904C25.9584 7.99104 26.4264 8.65704 27.1824 9.14304C26.0844 9.41304 25.4184 10.043 25.4184 11.015C25.4184 11.843 25.9584 12.419 26.7504 12.743C25.7964 13.121 25.2564 13.751 25.2564 14.579C25.2564 15.749 26.5704 16.847 30.1344 16.847C33.5184 16.847 34.9944 15.677 34.9944 14.003C34.9944 12.383 33.5544 11.249 30.5844 11.249ZM30.0984 5.74104C31.2864 5.74104 31.9164 6.24504 31.9164 7.01904C31.9164 7.79304 31.2864 8.26104 30.0984 8.26104C28.9104 8.26104 28.2444 7.79304 28.2444 7.01904C28.2444 6.24504 28.9104 5.74104 30.0984 5.74104ZM30.1164 15.137C28.3704 15.137 27.7224 14.795 27.7224 14.201C27.7224 13.607 28.3704 13.265 30.1164 13.265C31.8804 13.265 32.4924 13.607 32.4924 14.201C32.4924 14.795 31.8804 15.137 30.1164 15.137ZM38.8634 13.427H39.9974V11.429H39.3134C38.7554 11.429 38.5034 11.123 38.5034 10.547V0.827039H36.1814V10.691C36.1814 12.383 37.1534 13.427 38.8634 13.427ZM49.6114 8.76504C49.6114 5.88504 47.8114 3.94104 45.2374 3.94104C42.5734 3.94104 40.7014 5.90304 40.7014 8.78304C40.7014 11.699 42.6094 13.643 45.3454 13.643C47.2354 13.643 48.8734 12.707 49.5934 10.619L47.6314 9.89904C47.1454 11.159 46.3534 11.663 45.2554 11.663C44.0674 11.663 43.2034 10.943 43.0594 9.30504H49.5934C49.6114 9.14304 49.6114 8.92704 49.6114 8.76504ZM45.2374 5.81304C46.2634 5.81304 46.9834 6.38904 47.2354 7.72104H43.1314C43.3834 6.44304 44.1034 5.81304 45.2374 5.81304ZM58.6534 6.92904C58.4014 5.07504 56.7994 3.94104 54.6394 3.94104C52.3894 3.94104 50.9314 5.05704 50.9314 6.71304C50.9314 8.17104 51.8314 9.07104 53.9734 9.59304L54.8914 9.80904C56.0254 10.097 56.5294 10.331 56.5294 10.871C56.5294 11.429 55.8814 11.771 54.8374 11.771C53.6674 11.771 52.7314 11.177 52.4614 9.95304L50.5894 10.565C51.0934 12.689 52.8574 13.643 54.8374 13.643C57.1954 13.643 58.7434 12.473 58.7434 10.763C58.7434 9.35904 57.7714 8.42304 55.8094 7.95504L54.9094 7.72104C53.8114 7.45104 53.1274 7.25304 53.1274 6.65904C53.1274 6.19104 53.7214 5.83104 54.6394 5.83104C55.6834 5.83104 56.5294 6.29904 56.7274 7.43304L58.6534 6.92904ZM67.6574 1.81704H68.5394V0.755039H67.5674C65.9654 0.755039 65.2094 1.79904 65.2094 3.16704V4.42704H63.6614V5.48904H65.2094V13.427H66.3794V5.48904H68.5394V4.42704H66.3794V3.23904C66.3794 2.33904 66.7394 1.81704 67.6574 1.81704ZM73.8664 4.28304C71.3104 4.28304 69.4024 6.17304 69.4024 8.92704C69.4024 11.699 71.3104 13.589 73.8664 13.589C76.4224 13.589 78.3304 11.699 78.3304 8.92704C78.3304 6.17304 76.4224 4.28304 73.8664 4.28304ZM73.8664 5.36304C75.7564 5.36304 77.1424 6.73104 77.1424 8.92704C77.1424 11.141 75.7564 12.509 73.8664 12.509C71.9764 12.509 70.5904 11.141 70.5904 8.92704C70.5904 6.73104 71.9764 5.36304 73.8664 5.36304ZM84.3584 4.28304C83.1704 4.28304 82.2344 4.93104 81.7124 6.10104V4.42704H80.5604V13.427H81.7304V8.53104C81.7304 6.74904 82.7024 5.50704 84.1244 5.50704H84.9164V4.28304H84.3584ZM99.5644 4.31904C99.0424 1.92504 97.3864 0.665039 94.8484 0.665039C92.2924 0.665039 90.5464 2.06904 90.5464 4.08504C90.5464 5.66904 91.6624 6.82104 93.6604 7.34304L95.4604 7.81104C97.6744 8.38704 98.4664 9.14304 98.4664 10.259C98.4664 11.591 97.1524 12.419 95.1184 12.419C92.9764 12.419 91.5904 11.303 91.1944 9.34104L89.9524 9.62904C90.4564 12.059 92.1484 13.589 95.1184 13.589C97.9264 13.589 99.7264 12.221 99.7264 10.133C99.7264 8.54904 98.5204 7.36104 96.0184 6.67704L94.2364 6.19104C92.5984 5.74104 91.8244 5.18304 91.8244 3.95904C91.8244 2.68104 93.0844 1.83504 94.8844 1.83504C96.6304 1.83504 97.9804 2.66304 98.3944 4.60704L99.5644 4.31904ZM110.556 13.427H111.852L106.758 0.827039H105.624L100.548 13.427H101.808L103.374 9.44904H108.99L110.556 13.427ZM103.824 8.31504L106.182 2.35704L108.54 8.31504H103.824ZM118.153 0.827039H113.779V13.427H114.985V8.83704H118.153C120.925 8.83704 122.725 7.36104 122.725 4.82304C122.725 2.28504 120.925 0.827039 118.153 0.827039ZM118.027 7.70304H114.985V1.96104H118.027C120.205 1.96104 121.465 2.91504 121.465 4.82304C121.465 6.73104 120.205 7.70304 118.027 7.70304Z" fill="white"/>
<path d="M128.662 0.776855H126.115V1.32586H127.083V3.92686H127.695V1.32586H128.662V0.776855ZM131.674 0.776855L130.729 2.09986L129.766 0.776855H129.185V3.92686H129.797V1.75786L130.67 2.94086H130.774L131.638 1.75786V3.92686H132.254V0.776855H131.674V0.776855Z" fill="white"/>
</svg>
