<svg width="20" height="20" viewBox="0 0 20 20" fill="none" xmlns="http://www.w3.org/2000/svg">
    <g clip-path="url(#me57at90ia)">
        <path d="M14.167 5h4.167v1.667h-1.667V17.5a.833.833 0 0 1-.833.833H4.167a.833.833 0 0 1-.833-.833V6.666H1.667V5h4.167V2.5a.833.833 0 0 1 .833-.833h6.667a.833.833 0 0 1 .833.833V5zM7.5 9.166v5h1.667v-5H7.5zm3.334 0v5H12.5v-5h-1.666zM7.5 3.333V5h5V3.333h-5z" fill="#546176"/>
    </g>
    <defs>
        <clipPath id="me57at90ia">
            <path fill="#fff" d="M0 0h20v20H0z"/>
        </clipPath>
    </defs>
</svg>
