<svg width="20" height="20" viewBox="0 0 20 20" fill="none" xmlns="http://www.w3.org/2000/svg">
    <g clip-path="url(#hwf4bbot8a)">
        <path d="M15 6.666h1.667a.833.833 0 0 1 .833.834v10a.833.833 0 0 1-.833.833H3.333A.833.833 0 0 1 2.5 17.5v-10a.833.833 0 0 1 .833-.834H5v-.833a5 5 0 1 1 10 0v.833zm-1.667 0v-.833a3.333 3.333 0 0 0-6.666 0v.833h6.666zm-4.166 5v1.667h1.666v-1.667H9.167zm-3.334 0v1.667H7.5v-1.667H5.833zm6.667 0v1.667h1.667v-1.667H12.5z" fill="#546176"/>
    </g>
    <defs>
        <clipPath id="hwf4bbot8a">
            <path fill="#fff" d="M0 0h20v20H0z"/>
        </clipPath>
    </defs>
</svg>
