<svg width="24" height="24" viewBox="0 0 24 24" fill="none" xmlns="http://www.w3.org/2000/svg">
	<g clip-path="url(#jerfgwtwna)">
		<path d="M9.954 2.21a9.99 9.99 0 0 1 4.091-.002A3.994 3.994 0 0 0 16 5.07a3.993 3.993 0 0 0 3.457.261A9.99 9.99 0 0 1 21.5 8.876 3.994 3.994 0 0 0 20 12a3.99 3.99 0 0 0 1.502 3.124 10.041 10.041 0 0 1-2.046 3.543 3.993 3.993 0 0 0-4.76 1.468 3.993 3.993 0 0 0-.65 1.653 9.99 9.99 0 0 1-4.09.004A3.993 3.993 0 0 0 8 18.927a3.992 3.992 0 0 0-3.457-.26A9.99 9.99 0 0 1 2.5 15.121 3.993 3.993 0 0 0 4 12a3.993 3.993 0 0 0-1.502-3.124 10.043 10.043 0 0 1 2.046-3.543A3.993 3.993 0 0 0 8 5.072a3.993 3.993 0 0 0 1.954-2.86V2.21zM12 15a3 3 0 1 0 0-6 3 3 0 0 0 0 6z" fill="#fff"/>
	</g>
	<defs>
		<clipPath id="jerfgwtwna">
			<path fill="#fff" d="M0 0h24v24H0z"/>
		</clipPath>
	</defs>
</svg>
