<?xml version="1.0" encoding="utf-8"?>
<!-- Generator: Adobe Illustrator 21.1.0, SVG Export Plug-In . SVG Version: 6.00 Build 0)  -->
<svg version="1.1" id="Layer_1" xmlns="http://www.w3.org/2000/svg" xmlns:xlink="http://www.w3.org/1999/xlink" x="0px" y="0px"
	 viewBox="0 0 32 32" style="enable-background:new 0 0 32 32;" xml:space="preserve">
<style type="text/css">
	.st0{fill:#025E7F;}
	.st1{fill:#333333;}
</style>
<title>icons</title>
<path class="st0" d="M21,11c-4.8,0-8.7,1.2-8.7,2.7v1.6l6.5,6.5v5.4c0,0.6,1,1.1,2.2,1.1s2.2-0.5,2.2-1.1v-5.4l6.5-6.5v-1.6
	C29.7,12.2,25.8,11,21,11z M13.9,13.3c0.5-0.3,1.1-0.5,1.6-0.6c1.8-0.4,3.6-0.7,5.4-0.6c1.8,0,3.7,0.2,5.4,0.6
	c0.6,0.1,1.1,0.4,1.6,0.6c0.2,0.1,0.3,0.2,0.5,0.4c-0.1,0.1-0.3,0.3-0.5,0.4c-0.5,0.3-1.1,0.5-1.6,0.6c-1.8,0.4-3.6,0.7-5.4,0.6
	c-1.8,0-3.7-0.2-5.4-0.6c-0.6-0.1-1.1-0.4-1.6-0.6c-0.2-0.1-0.3-0.2-0.5-0.4C13.6,13.6,13.8,13.4,13.9,13.3z"/>
<path class="st1" d="M2.3,6.2h4.1v-4h3.4v4h4.1v3.4H9.7v4H6.3v-4h-4V6.2z"/>
</svg>
