<?xml version="1.0" encoding="utf-8"?>
<!-- Generator: Adobe Illustrator 21.1.0, SVG Export Plug-In . SVG Version: 6.00 Build 0)  -->
<svg version="1.1" id="Layer_1" xmlns="http://www.w3.org/2000/svg" xmlns:xlink="http://www.w3.org/1999/xlink" x="0px" y="0px"
	 viewBox="0 0 16 16" style="enable-background:new 0 0 16 16;" xml:space="preserve">
<style type="text/css">
	.st0{fill:#333333;}
</style>
<g>
	<path class="st0" d="M13,3.9v0.3c0,2,0,4,0,6c0,0.5-0.1,0.4,0.4,0.4c0.6,0,1.2,0,1.8,0c0,0.1-0.1,0.1-0.1,0.2c-1.7,1.7-3.3,3.3-5,5
		C10,16,9.9,16,9.8,15.9c-1.7-1.7-3.3-3.4-5-5c0,0,0-0.1-0.1-0.1h2.2V3.9H13z"/>
	<path class="st0" d="M1.9,6.3V6.1c0-1,0-2.1,0-3.1c0-0.2,0-0.2-0.2-0.2c-0.3,0-0.6,0-0.9,0c0,0,0-0.1,0.1-0.1
		C1.7,1.8,2.6,1,3.4,0.1C3.5,0,3.5,0,3.6,0.1C4.5,1,5.4,1.8,6.2,2.7c0,0,0,0,0.1,0.1H5.1v3.5L1.9,6.3z"/>
</g>
</svg>
