<?xml version="1.0" encoding="utf-8"?>
<!-- Generator: Adobe Illustrator 21.1.0, SVG Export Plug-In . SVG Version: 6.00 Build 0)  -->
<svg version="1.1" id="Layer_1" xmlns="http://www.w3.org/2000/svg" xmlns:xlink="http://www.w3.org/1999/xlink" x="0px" y="0px"
	 viewBox="0 0 32 32" style="enable-background:new 0 0 32 32;" xml:space="preserve">
<style type="text/css">
	.st0{fill:#FFFFFF;}
	.st1{fill:#F26F21;}
	.st2{fill:#9FDAE9;}
	.st3{fill:#00547B;}
</style>
<title>icons</title>
<path class="st0" d="M1.4,5.6h4.1V1.4H9v4.2h4.2v3.5H9v4.1H5.5V9.1H1.4V5.6z"/>
<rect x="21" y="21.2" class="st1" width="9.8" height="9.8"/>
<path class="st2" d="M11.2,21.2c0-5.4,4.3-9.8,9.8-9.8s9.7,4.4,9.7,9.8l0,0c0,0.6-8.7,9.8-9.8,9.8C15.6,30.8,11.2,26.5,11.2,21.2"/>
<path class="st3" d="M27.8,28c-1.8,1.8-4.3,2.9-6.9,2.9c0-5.4,4.3-9.7,9.8-9.7C30.6,23.7,29.7,26.2,27.8,28"/>
</svg>
