<?xml version="1.0" encoding="utf-8"?>
<!-- Generator: Adobe Illustrator 21.1.0, SVG Export Plug-In . SVG Version: 6.00 Build 0)  -->
<svg version="1.1" id="Layer_1" xmlns="http://www.w3.org/2000/svg" xmlns:xlink="http://www.w3.org/1999/xlink" x="0px" y="0px"
	 viewBox="0 0 16 16" style="enable-background:new 0 0 16 16;" xml:space="preserve">
<style type="text/css">
	.st0{fill:#333333;}
</style>
<g>
	<g>
		<g>
			<polygon class="st0" points="15.9,15.9 14.4,15.9 14.4,14.9 14.9,14.9 14.9,14.4 15.9,14.4 			"/>
		</g>
		<g>
			<path class="st0" d="M12.5,15.9h-1.9v-1h1.9V15.9z M8.9,15.9H7.1v-1H9v1H8.9z M5.2,15.9H3.5v-1h1.9L5.2,15.9L5.2,15.9z"/>
		</g>
		<g>
			<polygon class="st0" points="1.6,15.9 0.1,15.9 0.1,14.4 1.1,14.4 1.1,14.9 1.6,14.9 			"/>
		</g>
		<g>
			<path class="st0" d="M1.1,12.5h-1v-1.9h1V12.5z M1.1,8.9h-1V7.1h1V8.9z M1.1,5.2h-1V3.5h1V5.2z"/>
		</g>
		<g>
			<polygon class="st0" points="1.1,1.6 0.1,1.6 0.1,0.1 1.6,0.1 1.6,1.1 1.1,1.1 			"/>
		</g>
		<g>
			<path class="st0" d="M12.5,1.1h-1.9v-1h1.9V1.1z M8.9,1.1H7.1v-1H9v1H8.9z M5.2,1.1H3.5v-1h1.9L5.2,1.1L5.2,1.1z"/>
		</g>
		<g>
			<polygon class="st0" points="15.9,1.6 14.9,1.6 14.9,1.1 14.4,1.1 14.4,0.1 15.9,0.1 			"/>
		</g>
		<g>
			<path class="st0" d="M15.9,12.5h-1v-1.9h1V12.5z M15.9,8.9h-1V7.1h1V8.9z M15.9,5.2h-1V3.5h1V5.2z"/>
		</g>
	</g>
	<g id="Close_2_">
		<path class="st0" d="M8.9,8l2.7-2.7c0.3-0.2,0.3-0.7,0-0.9c-0.2-0.2-0.7-0.2-0.9,0L8,7.1L5.2,4.4C5,4.1,4.5,4.1,4.3,4.4
			C4.1,4.6,4.1,5,4.3,5.3L7,8l-2.7,2.7c-0.2,0.3-0.2,0.7,0,0.9C4.5,12,5,12,5.2,11.7L8,9l2.7,2.7c0.3,0.3,0.7,0.3,0.9,0
			c0.3-0.2,0.3-0.7,0-0.9L8.9,8z"/>
	</g>
</g>
</svg>
