<svg xmlns="http://www.w3.org/2000/svg" width="20" height="20" fill="none" viewBox="0 0 20 20">
    <path fill="#78909C" d="M13.8 8.4c.5.8.9 1.7.9 2.7 0 1.4-.6 2.6-1.6 3.5l2.4 2.4c1.5-1.5 2.5-3.6 2.5-5.9 0-1.9-.7-3.7-1.8-5.1l-2.4 2.4z"/>
    <path fill="#78909C" d="M10 3.1c-2.5 0-4.8 1.2-6.3 3l2.4 2.4C7 7.3 8.4 6.4 10 6.4s2.9.8 3.8 2L16.2 6c-1.5-1.8-3.7-2.9-6.2-2.9z"/>
    <path fill="#78909C" d="M6.1 8.5L3.7 6.1c-1 1.4-1.7 3.1-1.7 5 0 2.3 1 4.3 2.5 5.8l2.4-2.4c-.9-.8-1.5-2.1-1.5-3.4 0-1 .3-1.9.7-2.6zM14.2 7.9c-.6 1-1.3 2-1.9 3-.3.5-.7 1-1.1 1.4-.2.2-.4.3-.6.4-.3.1-.5.1-.8.1-.3 0-.6-.1-.9-.3-.1-.1-.3-.2-.4-.3l-.2-.2c0-.1-.1-.1-.1-.2-.3-.5-.4-1-.3-1.6.1-.4.4-.9.9-1.2.2-.1.5-.2.7-.3.3-.1.6-.2.9-.2.6-.1 3.8-.6 3.8-.6zm-3.8 3.6c.3-.2.5-.6.4-.9-.1-.4-.4-.7-.8-.8-.4 0-.8.2-.9.5-.2.4-.1.8.1 1.1.3.3.8.3 1.2.1z"/>
</svg>
