<svg xmlns="http://www.w3.org/2000/svg" viewBox="0 0 32 32"><defs><style>.a{fill:#333;}</style></defs><title>icons</title><path class="a" d="M24.415,7.342H7.905a.584.584,0,0,0-.584.583v7.918a.586.586,0,0,0,1.171,0V8.512H23.835V23.855h-7.38a.587.587,0,1,0,0,1.174h7.96A.587.587,0,0,0,25,24.442V7.929A.587.587,0,0,0,24.415,7.342Z"/><path class="a" d="M13.957,17.8H7.905a.586.586,0,0,0-.584.587l0,6.052a.586.586,0,0,0,.584.587h6.056a.587.587,0,0,0,.586-.587V18.387A.587.587,0,0,0,13.957,17.8Zm-.584,1.17v4.885H8.488V18.97Z"/><path class="a" d="M20.782,12.388v2.477a.588.588,0,0,0,1.175,0V10.978a.588.588,0,0,0-.587-.587H17.478a.587.587,0,1,0,0,1.173h2.477l-4.673,4.67a.586.586,0,0,0,.831.827Z"/></svg>