<?xml version="1.0" encoding="utf-8"?>
<!-- Generator: Adobe Illustrator 21.1.0, SVG Export Plug-In . SVG Version: 6.00 Build 0)  -->
<svg version="1.1" id="Layer_1" xmlns="http://www.w3.org/2000/svg" xmlns:xlink="http://www.w3.org/1999/xlink" x="0px" y="0px"
	 viewBox="0 0 16 16" style="enable-background:new 0 0 16 16;" xml:space="preserve">
<style type="text/css">
	.st0{fill:#3d4852;}
</style>
<g>
	<g transform="translate(0,-952.36218)">
		<path class="st0" d="M3,952.4v3H0v1.1h3v3h1.1v-3H7v-1.1H4v-3H3z"/>
	</g>
	<g id="Layer_3">
		<rect x="5.4" y="5.6" class="st0" width="2.8" height="2.8"/>
		<rect x="5.4" y="9.4" class="st0" width="2.8" height="2.8"/>
		<rect x="9.3" y="5.7" class="st0" width="2.8" height="2.8"/>
		<rect x="13.2" y="5.6" class="st0" width="2.8" height="2.8"/>
		<path class="st0" d="M9.3,9.5v2.8h2.8V9.5C12.2,9.5,9.3,9.5,9.3,9.5z M11.7,11.8H9.8V9.9h1.9V11.8z"/>
		<path class="st0" d="M13.2,9.5v2.8H16V9.5C16,9.5,13.2,9.5,13.2,9.5z M15.6,11.8h-1.9V9.9h1.9C15.6,9.9,15.6,11.8,15.6,11.8z"/>
		<path class="st0" d="M9.3,13.2V16h2.8v-2.8H9.3z M11.7,15.6H9.8v-1.9h1.9V15.6z"/>
		<path class="st0" d="M13.2,13.2V16H16v-2.8H13.2z M15.6,15.5h-1.9v-1.9h1.9C15.6,13.7,15.6,15.5,15.6,15.5z"/>
		<rect x="5.4" y="13.2" class="st0" width="2.8" height="2.8"/>
	</g>
</g>
</svg>
