<?xml version="1.0" encoding="utf-8"?>
<!-- Generator: Adobe Illustrator 21.1.0, SVG Export Plug-In . SVG Version: 6.00 Build 0)  -->
<svg version="1.1" id="Capa_1" xmlns="http://www.w3.org/2000/svg" xmlns:xlink="http://www.w3.org/1999/xlink" x="0px" y="0px"
	 viewBox="0 0 31.7 31.7" style="enable-background:new 0 0 31.7 31.7;" xml:space="preserve">
<style type="text/css">
	.st0{fill:#FFFFFF;}
</style>
<g>
	<path class="st0" d="M0,6.3h6.3V0H0V6.3z M6.3,6.3h6.3V0H6.3V6.3z M12.7,6.3H19V0h-6.3V6.3z M19,6.3
		h6.3V0H19V6.3z M25.4,6.3h6.3V0h-6.3V6.3z M25.4,19h6.3v-6.3h-6.3V19z M19,19h6.3v-6.3H19V19z M12.7,19H19v-6.3h-6.3V19z M6.3,19
		h6.3v-6.3H6.3V19z M0,19h6.3v-6.3H0V19z M0,31.7h6.3v-6.3H0V31.7z M6.3,31.7h6.3v-6.3H6.3V31.7z M12.7,31.7H19v-6.3h-6.3V31.7z
		 M19,31.7h6.3v-6.3H19V31.7z M25.4,31.7h6.3v-6.3h-6.3V31.7z"/>
</g>
</svg>
