<svg xmlns="http://www.w3.org/2000/svg" width="24" height="24" fill="none" viewBox="0 0 24 24">
    <path fill="#34495E" d="M13.6 4c-.372 0-.728.158-.99.44-.263.28-.41.662-.41 1.06 0 .397.147.779.41 1.06.262.281.618.44.99.44.371 0 .727-.159.99-.44.262-.281.41-.663.41-1.06 0-.398-.148-.78-.41-1.06-.263-.282-.619-.44-.99-.44zm-.336 4.769c-1.111.1-4.146 2.689-4.146 2.689-.186.15-.13.14.019.42.15.27.13.29.308.16.187-.13.495-.34 1.008-.68 1.98-1.36.318 1.78-.532 7.068-.336 2.62 1.867 1.27 2.437.87.56-.39 2.063-1.5 2.212-1.61.206-.15.057-.27-.102-.52-.112-.17-.224-.05-.224-.05-.607.43-1.718 1.33-1.867.76-.178-.57.961-4.479 1.587-7.168.102-.64.383-2.04-.7-1.94z"/>
</svg>
