<svg xmlns="http://www.w3.org/2000/svg" viewBox="0 0 15.679 15.679"><defs><style>.a{fill:#333;}.b{fill:#fff;}</style></defs><title>info-zwart-16x16</title><path class="a" d="M8,.161A7.839,7.839,0,1,0,15.839,8,7.837,7.837,0,0,0,8,.161Z" transform="translate(-0.161 -0.161)"/><path class="b" d="M9.631,12.311q-.607.237-.965.362a2.5,2.5,0,0,1-.836.127,1.661,1.661,0,0,1-1.141-.36,1.146,1.146,0,0,1-.405-.907,3.448,3.448,0,0,1,.029-.437c.02-.149.053-.314.1-.5l.506-1.785c.045-.171.084-.333.113-.482A2.249,2.249,0,0,0,7.075,7.9a.645.645,0,0,0-.143-.476A.79.79,0,0,0,6.4,7.3a1.44,1.44,0,0,0-.4.059c-.136.042-.252.081-.349.116l.133-.547c.33-.136.648-.25.949-.347a2.768,2.768,0,0,1,.856-.146,1.626,1.626,0,0,1,1.12.354,1.166,1.166,0,0,1,.4.913c0,.078-.01.214-.027.408a2.769,2.769,0,0,1-.1.538l-.5,1.779c-.042.142-.078.307-.113.489a2.527,2.527,0,0,0-.049.415.6.6,0,0,0,.159.482.879.879,0,0,0,.551.13,1.608,1.608,0,0,0,.414-.065,2.336,2.336,0,0,0,.337-.113Z" transform="translate(-0.161 -0.161)"/><path class="b" d="M9.544,5.092a1.266,1.266,0,0,1-1.7,0A1.047,1.047,0,0,1,7.493,4.3a1.061,1.061,0,0,1,.353-.8,1.266,1.266,0,0,1,1.7,0,1.058,1.058,0,0,1,.35.8A1.044,1.044,0,0,1,9.544,5.092Z" transform="translate(-0.161 -0.161)"/></svg>