<svg xmlns="http://www.w3.org/2000/svg" width="24" height="24" fill="none" viewBox="0 0 24 24">
    <path fill="#78909C" d="M14.898 13.74h-.61l-.216-.208a4.995 4.995 0 0 0 1.212-3.265 5.017 5.017 0 1 0-5.017 5.017 4.995 4.995 0 0 0 3.265-1.212l.209.217v.61L17.6 18.75l1.15-1.15-3.852-3.86zm-4.63 0a3.469 3.469 0 0 1-3.474-3.473 3.469 3.469 0 0 1 3.473-3.473 3.469 3.469 0 0 1 3.474 3.473 3.469 3.469 0 0 1-3.474 3.474z"/>
    <path fill="#78909C" d="M12.375 10.725h-1.65v1.65H9.9v-1.65H8.25V9.9H9.9V8.25h.825V9.9h1.65v.825z"/>
</svg>
