<?xml version="1.0" encoding="utf-8"?>
<!-- Generator: Adobe Illustrator 21.1.0, SVG Export Plug-In . SVG Version: 6.00 Build 0)  -->
<svg version="1.1" xmlns="http://www.w3.org/2000/svg" xmlns:xlink="http://www.w3.org/1999/xlink" x="0px" y="0px"
	 viewBox="0 0 32 32" style="enable-background:new 0 0 32 32;" xml:space="preserve">
<style type="text/css">
	.st0{display:none;}
	.st1{display:inline;fill:none;}
	.st2{display:inline;}
	.st3{display:inline;fill:#025E7F;}
	.st4{fill:#025E7F;}
</style>
<g id="Layer_1" class="st0">
	<title>icons</title>
	<rect class="st1" width="32" height="32"/>
	<path class="st2" d="M4.8,4.2v16.4h22V4.2H4.8z M25.6,19.4H6v-14h19.6L25.6,19.4z"/>
	<path class="st3" d="M14.3,17.3c2.4,0,4.3-2.4,4.3-5.3S18,6.7,14.3,6.7S9.9,9.1,9.9,12S11.9,17.3,14.3,17.3z"/>
	<path class="st3" d="M16.6,17.7c-0.6,0.7-1.5,1-2.4,1c-0.9,0-1.8-0.3-2.4-1c-4.9,0.8-5.6,2.3-5.8,7.2v0.8c0,0,1.2,2.4,8.2,2.4
		s8.2-2.4,8.2-2.4v-0.7C22.3,20,21.7,18.6,16.6,17.7z"/>
</g>
<g id="Layer_2" class="st0">
	<g class="st2">
		<path class="st4" d="M18.6,8.7l4.4,4.4L11.8,24.3l-4.4-4.4L18.6,8.7z M26.4,7.7l-2-2c-0.8-0.8-2-0.8-2.8,0l-1.9,1.9l4.4,4.4
			l2.2-2.2C27,9.2,27,8.2,26.4,7.7z M5.1,26.1c-0.1,0.4,0.2,0.7,0.6,0.6l4.9-1.2l-4.4-4.4L5.1,26.1z"/>
	</g>
</g>
<g id="Layer_3" class="st0">
	<rect x="4.3" y="5.3" class="st3" width="7" height="7"/>
	<rect x="4.3" y="13.3" class="st3" width="7" height="7"/>
	<rect x="4.3" y="21.3" class="st3" width="7" height="7"/>
	<rect x="12.3" y="5.3" class="st3" width="7" height="7"/>
	<rect x="20.3" y="5.3" class="st3" width="7" height="7"/>
	<path class="st3" d="M12.3,13.3v7h7v-7H12.3z M18.1,19.1h-4.7v-4.7h4.7V19.1z"/>
	<path class="st3" d="M20.3,13.3v7h7v-7H20.3z M26.1,19.1h-4.7v-4.7h4.7V19.1z"/>
	<path class="st3" d="M12.3,21.3v7h7v-7H12.3z M18.1,27.1h-4.7v-4.7h4.7V27.1z"/>
	<path class="st3" d="M20.3,21.3v7h7v-7H20.3z M26.1,27.1h-4.7v-4.7h4.7V27.1z"/>
</g>
<g id="Layer_4">
	<g>
		<rect x="3.8" y="12.5" class="st4" width="6.1" height="15.7"/>
		<rect x="12.2" y="5.3" class="st4" width="6.1" height="23"/>
		<rect x="20.7" y="19.8" class="st4" width="6.1" height="8.5"/>
	</g>
</g>
<g id="Layer_5" class="st0">
	<g class="st2">
		<rect x="11.4" y="6" class="st4" width="15.5" height="4.7"/>
		<rect x="11.4" y="13.8" class="st4" width="15.5" height="4.7"/>
		<rect x="11.4" y="21.5" class="st4" width="15.5" height="4.7"/>
		<rect x="3.6" y="6" class="st4" width="4.7" height="4.7"/>
		<rect x="3.6" y="13.8" class="st4" width="4.7" height="4.7"/>
		<rect x="3.6" y="21.5" class="st4" width="4.7" height="4.7"/>
	</g>
</g>
</svg>
