<?xml version="1.0" encoding="utf-8"?>
<!-- Generator: Adobe Illustrator 21.1.0, SVG Export Plug-In . SVG Version: 6.00 Build 0)  -->
<svg version="1.1" id="Layer_1" xmlns="http://www.w3.org/2000/svg" xmlns:xlink="http://www.w3.org/1999/xlink" x="0px" y="0px"
	 viewBox="0 0 16 16" style="enable-background:new 0 0 16 16;" xml:space="preserve">
<style type="text/css">
	.st0{fill:#3d4852;}
</style>
<g>
	<path class="st0" d="M12.5,1.5V0.5c0-0.2-0.1-0.3-0.3-0.3s-0.3,0.1-0.3,0.3v1.1H4.1V0.5c0-0.2-0.1-0.3-0.3-0.3
		c-0.2,0-0.3,0.1-0.3,0.3v1.1H0v14.3h16V1.5H12.5z M11.2,2.5L11.2,2.5c0.2-0.2,0.4-0.3,0.7-0.4v0.7c-0.1,0-0.1,0.1-0.2,0.1l0,0
		c-0.1,0.1-0.2,0.3-0.2,0.5c0,0.2,0.1,0.4,0.2,0.5c0.1,0.1,0.3,0.2,0.5,0.2c0.2,0,0.4-0.1,0.5-0.2c0.1-0.1,0.2-0.3,0.2-0.5
		c0-0.2-0.1-0.4-0.2-0.5c-0.1-0.1-0.1-0.1-0.2-0.1V2.1c0.2,0.1,0.5,0.2,0.7,0.4c0.3,0.3,0.4,0.6,0.4,1c0,0.3-0.1,0.7-0.4,1l0,0
		c-0.3,0.3-0.6,0.4-1,0.4c-0.3,0-0.7-0.1-1-0.4c-0.3-0.3-0.4-0.6-0.4-1C10.8,3.1,11,2.7,11.2,2.5z M2.8,2.5C3,2.3,3.2,2.1,3.5,2.1
		v0.7c-0.1,0-0.1,0.1-0.2,0.1C3.1,3,3.1,3.2,3.1,3.4c0,0.2,0.1,0.4,0.2,0.5c0.1,0.1,0.3,0.2,0.5,0.2c0.2,0,0.4-0.1,0.5-0.2v0
		c0.1-0.1,0.2-0.3,0.2-0.5c0-0.2-0.1-0.4-0.2-0.5C4.2,2.8,4.2,2.8,4.1,2.8V2.1c0.2,0.1,0.5,0.2,0.7,0.4c0.3,0.3,0.4,0.6,0.4,1
		c0,0.3-0.1,0.7-0.4,1s-0.6,0.4-1,0.4c-0.3,0-0.7-0.1-1-0.4c-0.3-0.3-0.4-0.6-0.4-1C2.4,3.1,2.6,2.7,2.8,2.5z M14.5,14.4H1.5V5.3
		h13.1V14.4z"/>
</g>
<path class="st0" d="M8,6.8c-1.6,0-2.9,1.3-2.9,2.9s1.3,2.9,2.9,2.9c1.6,0,2.9-1.3,2.9-2.9S9.6,6.8,8,6.8z M9.4,10.3H7.9
	c-0.1,0-0.2,0-0.2-0.1C7.6,10.1,7.6,10,7.6,9.9V8.1c0-0.2,0.1-0.3,0.3-0.3c0.2,0,0.3,0.1,0.3,0.3v1.6h1.2c0.2,0,0.3,0.1,0.3,0.3
	S9.5,10.3,9.4,10.3z"/>
</svg>
