<svg xmlns="http://www.w3.org/2000/svg" viewBox="0 0 32 32"><defs><style>.a{fill:none;}.b{fill:#84be56;}.c{fill:#e9c944;}.d{fill:#ee4d4d;}.e{fill:#025e7f;}</style></defs><title>icons</title><rect class="a" width="32" height="32"/><path class="b" d="M21.4,13.55a6.59,6.59,0,0,1-1.07,8.81l3.4,3.4a11.39,11.39,0,0,0,1.1-15.64Z"/><path class="c" d="M16,5.95a11.39,11.39,0,0,0-8.94,4.33l3.43,3.43a6.61,6.61,0,0,1,10.91-.16l3.43-3.43A11.41,11.41,0,0,0,16,5.95Z"/><path class="d" d="M10.49,13.71,7.06,10.27A11.39,11.39,0,0,0,8.13,25.63l3.4-3.4a6.6,6.6,0,0,1-1-8.53Z"/><path class="e" d="M22.06,12.89c-.88,1.45-1.79,2.89-2.78,4.27a11.86,11.86,0,0,1-1.63,2,2.56,2.56,0,0,1-.91.52,2.89,2.89,0,0,1-3.13-.87,2.32,2.32,0,0,0-.18-.23A3,3,0,0,1,13,16.32a2.91,2.91,0,0,1,1.27-1.85,4.16,4.16,0,0,1,1.1-.43c.41-.12.83-.22,1.25-.31C17.46,13.55,22.06,12.89,22.06,12.89ZM16.51,18a1.29,1.29,0,1,0-1.63-.2A1.3,1.3,0,0,0,16.51,18Z"/></svg>