<svg xmlns="http://www.w3.org/2000/svg" width="16" height="16" fill="none" viewBox="0 0 16 16">
    <path fill="#78909C" fill-rule="evenodd" d="M1.444 0h10.112C12.35 0 13 .65 13 1.444v10.112C13 12.35 12.35 13 11.556 13H1.444C.65 13 0 12.35 0 11.556V1.444C0 .65.65 0 1.444 0zm10.111 11.556H1.446V1.444h10.11v10.112zM7.223 10.11H5.778V2.89h1.444v7.222zm-2.889 0H2.89V5.056h1.444v5.055zm4.334 0h1.444V7.222H8.667v2.89z" clip-rule="evenodd"/>
    <circle cx="11" cy="11" r="5" fill="#fff"/>
    <path fill="#358ED7" d="M10.5 14.46a3.978 3.978 0 0 1-3.3-1.76c.016-1.1 2.2-1.705 3.3-1.705 1.1 0 3.284.605 3.3 1.705a3.978 3.978 0 0 1-3.3 1.76zm0-7.81a1.65 1.65 0 1 1 0 3.3 1.65 1.65 0 0 1 0-3.3zm0-1.65a5.5 5.5 0 1 0 0 11 5.5 5.5 0 0 0 0-11z"/>
</svg>
