<?xml version="1.0" encoding="utf-8"?>
<!-- Generator: Adobe Illustrator 21.1.0, SVG Export Plug-In . SVG Version: 6.00 Build 0)  -->
<svg version="1.1" id="Layer_1" xmlns="http://www.w3.org/2000/svg" xmlns:xlink="http://www.w3.org/1999/xlink" x="0px" y="0px"
	 viewBox="0 0 16 16" style="enable-background:new 0 0 16 16;" xml:space="preserve">
<style type="text/css">
	.st0{fill:#333333;}
</style>
<g>
	<path class="st0" d="M13.1,9.9v3.6H2.9V9.9H0.3v4.8c0,0.7,0.6,1.3,1.3,1.3h12.8c0.7,0,1.3-0.6,1.3-1.3V9.9H13.1z"/>
	<path class="st0" d="M11.6,5.7c-0.1-0.2-0.2-0.3-0.5-0.3H9.8V0.5C9.8,0.3,9.6,0,9.3,0H6.9C6.8,0,6.5,0,6.3,0.2
		c-0.1,0.1-0.1,0.2,0,0.3v4.9H4.8c-0.3,0-0.4,0.1-0.4,0.2C4.3,5.9,4.5,6.2,4.6,6.3l3,3.5c0,0,0.1,0.1,0.2,0.2
		c0.1,0.1,0.2,0.1,0.3,0.1c0.1,0,0.3,0,0.4-0.2c0.3-0.3,2.6-3.4,2.9-3.7C11.5,6.2,11.7,5.9,11.6,5.7z"/>
</g>
</svg>
