<svg xmlns="http://www.w3.org/2000/svg" viewBox="0 0 32 32"><defs><style>.a{fill:none;}.b{fill:#025e7f;}</style></defs><title>icons</title><rect class="a" width="32" height="32"/><path d="M4.85,4.24v16.4h22V4.24Zm20.8,15.2H6v-14h19.6Z"/><path class="b" d="M14.25,17.26c2.4,0,4.32-2.4,4.32-5.28S18,6.7,14.25,6.7,9.93,9.1,9.93,12,11.85,17.26,14.25,17.26Z"/><path class="b" d="M16.65,17.74a3,3,0,0,1-2.4,1,3,3,0,0,1-2.4-1c-4.92.84-5.64,2.28-5.76,7.2v.84s1.2,2.4,8.16,2.4,8.16-2.4,8.16-2.4v-.72C22.29,20,21.69,18.58,16.65,17.74Z"/></svg>