<svg xmlns="http://www.w3.org/2000/svg" width="24" height="24" fill="none" viewBox="0 0 24 24">
    <path fill="#34495E" d="M14.456 11.4l-.72.736c-.576.576-.936 1.064-.936 2.264h-1.6V14c0-.888.36-1.688.936-2.264l.992-1.008c.296-.288.472-.688.472-1.128 0-.888-.72-1.6-1.6-1.6-.424 0-.831.169-1.131.469-.3.3-.469.707-.469 1.131H8.8c0-.849.337-1.663.937-2.263.6-.6 1.414-.937 2.263-.937s1.663.337 2.263.937c.6.6.937 1.414.937 2.263 0 .704-.288 1.336-.744 1.8zM12.8 17.6h-1.6V16h1.6v1.6zM12 4c-1.05 0-2.09.207-3.061.609-.971.402-1.853.991-2.596 1.734C4.843 7.843 4 9.878 4 12s.843 4.157 2.343 5.657c.743.743 1.625 1.332 2.596 1.734.97.402 2.01.609 3.061.609 2.122 0 4.157-.843 5.657-2.343S20 14.122 20 12c0-4.424-3.6-8-8-8z"/>
</svg>
