<?xml version="1.0" encoding="utf-8"?>
<!-- Generator: Adobe Illustrator 21.1.0, SVG Export Plug-In . SVG Version: 6.00 Build 0)  -->
<svg version="1.1" id="Layer_1" xmlns="http://www.w3.org/2000/svg" xmlns:xlink="http://www.w3.org/1999/xlink" x="0px" y="0px"
	 viewBox="0 0 16 16" style="enable-background:new 0 0 16 16;" xml:space="preserve">
<style type="text/css">
	.st0{fill:#333333;}
</style>
<g id="Close_1_">
	<path class="st0" d="M9.9,7.9l5.7-5.7c0.5-0.4,0.5-1.4,0-1.9c-0.4-0.4-1.4-0.4-1.9,0L8,6L2.3,0.4c-0.5-0.5-1.5-0.5-1.9,0
		c-0.4,0.4-0.4,1.4,0,1.9L6,8l-5.7,5.7c-0.4,0.5-0.4,1.5,0,1.9c0.5,0.5,1.4,0.5,1.9,0L8,9.9l5.7,5.7c0.5,0.5,1.5,0.5,1.9,0
		c0.5-0.4,0.5-1.4,0-1.9L9.9,7.9z"/>
</g>
</svg>
