<?xml version="1.0" encoding="utf-8"?>
<!-- Generator: Adobe Illustrator 21.1.0, SVG Export Plug-In . SVG Version: 6.00 Build 0)  -->
<svg version="1.1" id="Layer_1" xmlns="http://www.w3.org/2000/svg" xmlns:xlink="http://www.w3.org/1999/xlink" x="0px" y="0px"
	 viewBox="0 0 16 16" style="enable-background:new 0 0 16 16;" xml:space="preserve">
<style type="text/css">
	.st0{fill:#333333;}
</style>
<path class="st0" d="M8,0.1c-4.4,0-8,3.6-8,8s3.6,7.9,8,7.9s7.9-3.5,7.9-7.9S12.5,0.1,8,0.1z M8,14.9c-4,0-7-3-7-6.9c0-4,3.1-7,7-7
	c3.9,0,6.9,3.1,6.9,7C14.9,11.8,11.9,14.9,8,14.9z"/>
<path class="st0" d="M4.8,7.5C4.8,7.6,5,7.7,5.2,7.7h1.2v4.4c0,0.2,0.2,0.4,0.4,0.4H9c0.1,0,0.4,0,0.5-0.2c0.1-0.1,0.1-0.2,0-0.3
	V7.7h1.3c0.3,0,0.4-0.1,0.4-0.2C11.3,7.3,11.1,7,11,6.9L8.4,3.8c0,0-0.1-0.1-0.2-0.2C8.1,3.5,8,3.5,7.9,3.5c-0.1,0-0.2,0-0.4,0.1
	C7.2,4,5.2,6.6,5,6.9C4.9,7,4.7,7.2,4.8,7.5z"/>
</svg>
