<svg xmlns="http://www.w3.org/2000/svg" width="24" height="24" fill="none" viewBox="0 0 24 24">
    <g clip-path="url(#a)">
        <path fill="#78909C" d="M15.5 4H8.8c-.3 0-.6.3-.6.6V7H5.7c-.4 0-.6.4-.6.7v11.7c0 .3.3.6.6.6h9.7c.3 0 .6-.3.6-.6v-2.6h2.4c.3 0 .6-.3.6-.6V7.5c0-.2-.1-.3-.2-.4l-2.9-2.9c-.2-.2-.4-.2-.4-.2zm-.6 14.7H6.3V8.2h2v8c0 .3.3.6.6.6H15l-.1 1.9zm-5.5-3.1V5.1h5v3.3c0 .3.3.6.6.6h2.9v6.7H9.4v-.1zm8.5-7.8h-2.3V5.5l2.3 2.3z"/>
    </g>
    <defs>
        <clipPath id="a">
            <path fill="#fff" d="M0 0h16v16H0z" transform="translate(4 4)"/>
        </clipPath>
    </defs>
</svg>
