<?xml version="1.0" encoding="utf-8"?>
<!-- Generator: Adobe Illustrator 21.1.0, SVG Export Plug-In . SVG Version: 6.00 Build 0)  -->
<svg version="1.1" id="Layer_1" xmlns="http://www.w3.org/2000/svg" xmlns:xlink="http://www.w3.org/1999/xlink" x="0px" y="0px"
	 viewBox="0 0 16 16" style="enable-background:new 0 0 16 16;" xml:space="preserve">
<style type="text/css">
	.st0{fill:#333333;}
</style>
<g>
	<path class="st0" d="M15.9,3.7l-2.3-2.3c-0.2-0.2-0.3-0.3-0.5-0.5c-0.1-0.1-0.2-0.1-0.3-0.1c-0.1,0-0.2,0.2-0.2,0.3
		c0,0,0,0.1,0,0.1c0,0.5,0,1,0,1.4c0,0.1,0,0.1-0.1,0.1s-0.2,0-0.4,0c-0.7,0-1.5,0-2.3,0c-0.7,0-1.3,0.3-1.9,0.7
		C7.3,4,6.8,4.5,6.5,5.1C6,5.9,5.6,6.8,5.2,7.6c-0.3,0.7-0.6,1.4-1,2C4,10,3.8,10.3,3.5,10.5c-0.4,0.2-0.8,0.4-1.2,0.3H0.4
		c-0.2,0-0.3,0.1-0.4,0.2V13c0.1,0.1,0.2,0.2,0.4,0.2h1.7c0.5,0,1.1-0.1,1.6-0.2c0.4-0.1,0.8-0.3,1.1-0.6c0.7-0.5,1.2-1.2,1.6-2
		c0.4-0.8,0.7-1.6,1.1-2.4c0.3-0.7,0.6-1.3,1-1.9C9,5.5,9.6,5.1,10.3,5.2c0.7,0,1.4,0,2.1,0c0.1,0,0.1,0,0.1,0.1c0,0.5,0,1,0,1.5
		c0,0,0,0.1,0,0.1c0,0.2,0.2,0.3,0.3,0.2c0.1,0,0.1,0,0.1-0.1L13.2,7l2-2.1c0.3-0.3,0.5-0.5,0.7-0.8V3.9C16,3.8,16,3.8,15.9,3.7z"/>
	<path class="st0" d="M13.7,9.6c-0.2-0.2-0.4-0.4-0.6-0.6c-0.1-0.1-0.3-0.1-0.4,0c-0.1,0.1-0.1,0.2-0.1,0.3c0,0.5,0,1,0,1.5
		c0,0.1,0,0.1-0.1,0.1c-0.7,0-1.5,0-2.3,0c-0.3,0-0.7-0.1-1-0.3c-0.4-0.3-0.7-0.6-0.9-1C8.1,9.2,8,9,7.9,8.7v0.1
		C7.5,9.5,7.2,10.3,6.7,11c0,0,0,0.1,0,0.1C7,11.5,7.2,11.7,7.5,12c0.4,0.4,0.9,0.7,1.5,0.9c0.5,0.2,1.1,0.2,1.6,0.2
		c0.6,0,1.3,0,1.9,0c0.1,0,0.2,0,0.2,0.2c0,0.3,0,0.5,0,0.8c0,0.3,0,0.5,0,0.7c0,0.1,0.1,0.2,0.2,0.3c0.1,0,0.2,0,0.3-0.1l0.1-0.1
		l2-2c0.3-0.3,0.5-0.5,0.8-0.8v-0.2c-0.1-0.1-0.1-0.1-0.2-0.2L13.7,9.6z"/>
	<path class="st0" d="M0.4,5.1c0.7,0,1.3,0,2,0c0.6,0,1.1,0.3,1.5,0.7c0.3,0.4,0.5,0.8,0.7,1.2l0.1,0.2C4.9,7,5,6.7,5.2,6.4
		C5.4,5.9,5.6,5.4,5.9,5c0-0.1,0-0.1,0-0.2C5.6,4.5,5.4,4.2,5.1,3.9c-0.7-0.7-1.7-1-2.7-1c-0.7,0-1.4,0-2.1,0C0.2,2.9,0.1,3,0,3.1V5
		C0.1,5.1,0.2,5.2,0.4,5.1z"/>
</g>
</svg>
