<svg xmlns="http://www.w3.org/2000/svg" width="24" height="24" fill="none" viewBox="0 0 24 24">
    <path fill="#34495E" fill-rule="evenodd" d="M6.862 6.51C8.169 4.972 10.082 4 12.213 4c3.536 0 6.47 2.673 7.037 6.18h-1.818c-.54-2.476-2.672-4.326-5.219-4.326-1.855 0-3.49.981-4.45 2.473h2.666v1.854H5.078V4.618h1.784V6.51zM8.324 18.145c-.987 0-1.79-.834-1.79-1.86 0-1.026.803-1.861 1.79-1.861s1.79.835 1.79 1.86c0 1.027-.803 1.861-1.79 1.861zm3.353-3.134c-.5-1.424-1.81-2.442-3.353-2.442-1.974 0-3.574 1.664-3.574 3.716C4.75 18.336 6.35 20 8.324 20c1.783 0 3.257-1.36 3.526-3.135h5.616v1.646h1.784v-3.5h-7.573z" clip-rule="evenodd"/>
</svg>
