<?xml version="1.0" encoding="utf-8"?>
<!-- Generator: Adobe Illustrator 21.1.0, SVG Export Plug-In . SVG Version: 6.00 Build 0)  -->
<svg version="1.1" id="Capa_1" xmlns="http://www.w3.org/2000/svg" xmlns:xlink="http://www.w3.org/1999/xlink" x="0px" y="0px"
	 viewBox="0 0 23.6 23.6" style="enable-background:new 0 0 23.6 23.6;" xml:space="preserve">
<style type="text/css">
	.st0{fill:#FFCC00;}
</style>
<path class="st0" d="M18.9,21.3H4.7c-1.2,0-2.3-0.6-3-1.7s-0.6-2.3,0-3.4L8.8,4c0.6-1.1,1.7-1.7,3-1.7s2.3,0.6,3,1.7l7.1,12.3
	c0.6,1.1,0.6,2.3,0,3.4C21.2,20.7,20.1,21.3,18.9,21.3z"/>
<path class="st0" d="M11.8,3.2c-0.9,0-1.7,0.5-2.1,1.2L2.6,16.7c-0.4,0.8-0.4,1.7,0,2.4c0.4,0.8,1.2,1.2,2.1,1.2h14.2
	c0.9,0,1.7-0.5,2.1-1.2c0.4-0.8,0.4-1.7,0-2.4L13.9,4.5C13.5,3.7,12.7,3.2,11.8,3.2z"/>
<path class="st0" d="M20.4,16.8L13.5,4.9c-0.4-0.6-1-1-1.7-1s-1.4,0.4-1.7,1L3.2,16.8c-0.4,0.6-0.4,1.4,0,2s1,1,1.7,1h13.7
	c0.7,0,1.4-0.4,1.7-1C20.7,18.1,20.7,17.4,20.4,16.8z"/>
<path d="M10.6,8.6c0-0.7,0.6-1.2,1.2-1.2C12.5,7.4,13,8,13,8.6v4c0,0.7-0.6,1.2-1.2,1.2c-0.7,0-1.2-0.6-1.2-1.2V8.6z"/>
<circle cx="11.8" cy="16.3" r="1.3"/>
</svg>
