<svg xmlns="http://www.w3.org/2000/svg" width="30" height="30" fill="none" viewBox="0 0 30 30">
    <rect width="30" height="30" fill="#8197C8" rx="2"/>
    <path fill="#fff" d="M13.005 9.938L15.443 7.5l2.437 2.438h-4.875zm4.875 10.5l-2.437 2.437-2.438-2.438h4.875zm-5.145-3.525h-2.167l-.54 2.024H8.25l2.318-7.5h2.25l2.347 7.5H13.32l-.585-2.024zm-1.92-1.216h1.673l-.473-1.59-.195-.727-.188-.72h-.022l-.165.727-.18.736-.45 1.575zm5.04 3.24v-.945l3.563-5.077v-.045h-3.226v-1.432h5.423v1.005l-3.48 4.995v.06h3.532v1.44h-5.812z"/>
</svg>
