<svg xmlns="http://www.w3.org/2000/svg" width="24" height="24" fill="none" viewBox="0 0 24 24">
    <g clip-path="url(#a)">
        <path fill="#78909C" d="M2 17.483h11.108L24 6.5H2v10.983z"/>
        <path fill="#fff" fill-rule="evenodd" d="M14.792 9.1h-1.908v4.437l-1.678-4.438h-1.64l-1.45 3.711c-.153-.934-1.145-1.258-1.946-1.5-.496-.162-1.068-.4-1.03-.662 0-.217.267-.416.84-.386.381.019.724.05 1.411.368l.687-1.13A5.484 5.484 0 0 0 5.903 9c-.839 0-1.526.257-1.945.682-.267.296-.458.672-.458 1.089 0 .573.229.98.649 1.303.42.273.877.45 1.335.581.534.16.953.3.953.598 0 .11-.038.21-.114.29-.153.134-.343.184-.649.19-.534.01-.915-.072-1.564-.44l-.61 1.144A4.59 4.59 0 0 0 5.674 15h.115c.648-.013 1.22-.2 1.64-.54.038-.02.038-.04.076-.058l-.19.499h1.754l.268-.864c.305.1.648.157 1.03.157.381 0 .686-.056.991-.15l.306.857h2.822v-1.792h.649c1.488 0 2.365-.742 2.365-1.987 0-1.386-.84-2.023-2.708-2.023zm-4.425 3.799c-.23 0-.42-.039-.61-.106l.61-1.867.61 1.873c-.19.063-.382.1-.61.1zm4.539-1.074h-.42V10.32h.42c.572 0 1.03.182 1.03.745 0 .579-.458.76-1.03.76z" clip-rule="evenodd"/>
        <path fill="#78909C" d="M15.06 16.782c0-.336.259-.592.56-.592.302 0 .56.256.56.592 0 .348-.258.6-.56.6-.301 0-.56-.252-.56-.6zm.56.718a.725.725 0 0 0 .732-.718c0-.408-.344-.708-.732-.708-.387 0-.732.3-.732.708 0 .414.345.718.732.718zm-.129-.659h.13l.215.355h.129l-.216-.362c.087-.014.216-.078.216-.224 0-.164-.13-.236-.302-.236h-.301v.822h.13v-.355zm0-.106v-.256h.172c.043 0 .173.02.173.123 0 .125-.13.133-.216.133h-.129z"/>
    </g>
    <defs>
        <clipPath id="a">
            <path fill="#fff" d="M0 0h22v11H0z" transform="matrix(-1 0 0 1 24 6.5)"/>
        </clipPath>
    </defs>
</svg>
