<?xml version="1.0" encoding="utf-8"?>
<!-- Generator: Adobe Illustrator 24.1.0, SVG Export Plug-In . SVG Version: 6.00 Build 0)  -->
<svg version="1.1" xmlns="http://www.w3.org/2000/svg" xmlns:xlink="http://www.w3.org/1999/xlink" x="0px" y="0px"
	 viewBox="0 0 24 24" style="enable-background:new 0 0 24 24;" xml:space="preserve">
<style type="text/css">
	.st0{display:none;}
	.st1{display:inline;fill:#34495E;}
	.st2{fill:#34495E;}
</style>
<g id="Layer_1" class="st0">
	<path class="st1" d="M18.1,12.8c0-0.3,0.1-0.5,0.1-0.8s0-0.5-0.1-0.8l1.7-1.3C20,9.8,20,9.6,19.9,9.4l-1.6-2.8
		c-0.1-0.2-0.3-0.2-0.5-0.2l-2,0.8c-0.4-0.3-0.9-0.6-1.4-0.8l-0.3-2.1C14,4.1,13.9,4,13.6,4h-3.3C10.2,4,10,4.1,10,4.3L9.6,6.5
		c-0.5,0.2-1,0.5-1.4,0.8l-2-0.8C6,6.4,5.8,6.4,5.7,6.6L4.1,9.4C4,9.6,4,9.8,4.2,9.9l1.7,1.3c0,0.3-0.1,0.5-0.1,0.8s0,0.5,0.1,0.8
		l-1.7,1.3C4,14.2,4,14.4,4.1,14.6l1.6,2.8c0.1,0.2,0.3,0.2,0.5,0.2l2-0.8c0.4,0.3,0.9,0.6,1.4,0.8l0.3,2.1c0,0.2,0.2,0.3,0.4,0.3
		h3.3c0.2,0,0.4-0.1,0.4-0.3l0.3-2.1c0.5-0.2,1-0.5,1.4-0.8l2,0.8c0.2,0.1,0.4,0,0.5-0.2l1.6-2.8c0.1-0.2,0.1-0.4-0.1-0.5
		C19.8,14.1,18.1,12.8,18.1,12.8z M12,14.8c-1.6,0-2.9-1.3-2.9-2.8s1.3-2.8,2.9-2.8s2.9,1.3,2.9,2.8S13.6,14.8,12,14.8z"/>
</g>
<g id="Layer_2">
	<path class="st2" d="M6.6,6.2c0.9-0.9,1.7-1.3,2-1.5C9,4.6,9.8,4.2,11,4.1c0.4,0,0.9-0.1,1.6,0c0.8,0.1,1.3,0.2,1.7,0.6
		c0.2,0.2,0.3,0.5,0.6,0.6c0.2,0.1,0.3,0,0.4,0c0.5,0,1,0.3,1.3,0.6c0.4,0.3,0.6,0.6,0.9,0.9c0.1,0.1,0.4,0.6,0.7,1.4
		c0.2,0.5,0.3,0.9,0.3,1.2c0.1,0.6,0.2,1,0.2,1.3c0.1,0.9,0,1.8,0,1.8c0.1,0.1,0.3,0.2,0.4,0.4c0.1,0.2,0.2,0.4,0.2,0.7
		c0,0.4,0.1,0.7-0.1,1c0,0-0.1,0.1-0.6,0.8c0,0.1-0.1,0.3-0.1,0.5c-0.2,0.6-0.5,1-0.5,1c-0.1,0.1-0.8,1-1.9,1.2c-0.3,0-0.4,0-0.7,0
		c-1.4,0-2.8,0-4.2,0c-0.1,0-0.4-0.1-0.6-0.4c0,0-0.2-0.4-0.1-0.8c0.1-0.4,0.4-0.6,0.7-0.7c0.1,0,0,0,0.6,0c0.4,0,0.5,0,0.6,0
		c0.1,0,0.4,0.1,0.5,0.3c0,0,0,0,0.1,0.3c1,0,2,0,3,0c0.2,0,0.5-0.1,0.8-0.3c0.4-0.3,0.7-0.8,0.6-0.9c-0.1-0.1-0.4-0.1-0.5-0.1
		c0,0,0,0,0,0c-0.1,0,0-0.3,0-0.4c0.1-0.5,0-2.7-0.1-3c-0.2-2.4-1.6-4.3-1.8-4.2c0,0-0.1,0.1-0.2,0.2c-0.1,0.2-0.1,0.3-0.2,0.3
		C14.5,8.6,14.2,9,14,9.2c-0.6,0.7-1.6,1-1.9,1.1c-0.3,0.1-0.6,0.2-1.3,0.3c-1.2,0.2-1.6,0.2-2.4,0.5c-0.6,0.2-0.8,0.3-1,0.5
		c-0.3,0.3-0.5,0.7-0.6,0.9c-0.2,0.4-0.2,0.8-0.2,1.1c0,0,0,0,0,0c0,0-0.1,0-0.4-0.1C6,13.5,6,13.5,5.9,13.5c-0.1,0-0.1,0.2-0.1,0.4
		c0,0.5,0.1,0.7,0.1,0.9c0.1,0.2,0.1,0.3,0.3,0.5c0,0,1.1,0.6,0.8,0.4l0,0c0,0,0.2,0.6,0.4,1c0.2,0.5,0.5,0.8,0.8,1.1
		c0.4,0.4,0.7,0.8,1.2,1.1c0.6,0.4,1.3,0.5,1.5,0.5c0.1,0,0.2,0,0.7,0.1c1.7,0.1,2.5,0.1,3.3,0c0.1,0,0.3-0.1,0.3,0
		c0,0.1-0.5,0.4-0.6,0.5c-0.3,0.2-0.9,0.5-1.8,0.7c-0.3,0.1-1.3,0.2-2.5-0.1c-0.4-0.1-2-0.5-3.1-1.8c0,0-0.2-0.2-1.1-1.9l0,0
		c0,0-0.4-0.3-0.7-0.5c-0.7-0.6-0.8-1.7-0.8-1.7l0,0c0,0-0.1-1.9,0-3.9c0-0.6,0.1-0.9,0.1-1.2C5.2,7.7,6.2,6.7,6.6,6.2z"/>
</g>
</svg>
