<?xml version="1.0" encoding="utf-8"?>
<!-- Generator: Adobe Illustrator 21.0.2, SVG Export Plug-In . SVG Version: 6.00 Build 0)  -->
<svg version="1.1" xmlns="http://www.w3.org/2000/svg" xmlns:xlink="http://www.w3.org/1999/xlink" x="0px" y="0px"
	 viewBox="0 0 16 16" style="enable-background:new 0 0 16 16;" xml:space="preserve">
<style type="text/css">
	.st0{display:none;}
	.st1{display:inline;}
	.st2{fill:#818181;}
</style>
<g id="Layer_1" class="st0">
	<g class="st1">
		<g>
			<g>
				<polygon class="st2" points="15.9,15.9 14.4,15.9 14.4,14.9 14.9,14.9 14.9,14.4 15.9,14.4 				"/>
			</g>
			<g>
				<path class="st2" d="M12.5,15.9h-1.9v-1h1.9V15.9z M8.9,15.9H7.1v-1H9v1H8.9z M5.2,15.9H3.5v-1h1.9L5.2,15.9L5.2,15.9z"/>
			</g>
			<g>
				<polygon class="st2" points="1.6,15.9 0.1,15.9 0.1,14.4 1.1,14.4 1.1,14.9 1.6,14.9 				"/>
			</g>
			<g>
				<path class="st2" d="M1.1,12.5h-1v-1.9h1V12.5z M1.1,8.9h-1V7.1h1V8.9z M1.1,5.2h-1V3.5h1V5.2z"/>
			</g>
			<g>
				<polygon class="st2" points="1.1,1.6 0.1,1.6 0.1,0.1 1.6,0.1 1.6,1.1 1.1,1.1 				"/>
			</g>
			<g>
				<path class="st2" d="M12.5,1.1h-1.9v-1h1.9V1.1z M8.9,1.1H7.1v-1H9v1H8.9z M5.2,1.1H3.5v-1h1.9L5.2,1.1L5.2,1.1z"/>
			</g>
			<g>
				<polygon class="st2" points="15.9,1.6 14.9,1.6 14.9,1.1 14.4,1.1 14.4,0.1 15.9,0.1 				"/>
			</g>
			<g>
				<path class="st2" d="M15.9,12.5h-1v-1.9h1V12.5z M15.9,8.9h-1V7.1h1V8.9z M15.9,5.2h-1V3.5h1V5.2z"/>
			</g>
		</g>
		<g>
			<path class="st2" d="M4.1,5.8h7.8c0.3,0,0.5-0.2,0.5-0.5c0-0.1,0-0.2,0-0.3c-0.1-0.1-0.3-0.2-0.5-0.2H4.1C3.8,4.7,3.5,5,3.5,5.2
				S3.8,5.8,4.1,5.8z"/>
			<path class="st2" d="M11.9,6.7H4.1C3.8,6.7,3.5,7,3.5,7.2c0,0.3,0.3,0.5,0.5,0.5h7.8c0.3,0,0.5-0.2,0.5-0.5c0-0.1,0-0.2,0-0.3
				C12.3,6.8,12.1,6.7,11.9,6.7z"/>
			<path class="st2" d="M11.9,8.7H4.1C3.8,8.7,3.5,9,3.5,9.3S3.8,9.8,4,9.8h7.8c0.3,0,0.5-0.2,0.5-0.5c0-0.1,0-0.2,0-0.3
				C12.3,8.8,12.1,8.7,11.9,8.7z"/>
			<path class="st2" d="M11.9,10.7H4.1c-0.3,0-0.5,0.3-0.5,0.5c0,0.3,0.3,0.5,0.5,0.5h7.8c0.3,0,0.5-0.2,0.5-0.5c0-0.1,0-0.2,0-0.3
				C12.3,10.8,12.1,10.7,11.9,10.7z"/>
		</g>
	</g>
</g>
<g id="Layer_2">
	<circle class="st2" cx="8" cy="8" r="2"/>
	<circle class="st2" cx="14" cy="8" r="2"/>
	<circle class="st2" cx="2" cy="8" r="2"/>
</g>
</svg>
