<svg width="20" height="20" viewBox="0 0 20 20" fill="none" xmlns="http://www.w3.org/2000/svg">
    <g clip-path="url(#r05j24zzia)">
        <path d="M8.295 1.841a8.325 8.325 0 0 1 3.41-.001 3.327 3.327 0 0 0 1.628 2.385 3.328 3.328 0 0 0 2.881.217 8.325 8.325 0 0 1 1.703 2.954A3.327 3.327 0 0 0 16.667 10c0 1.053.488 1.992 1.251 2.603a8.368 8.368 0 0 1-1.705 2.952 3.329 3.329 0 0 0-4.508 2.601 8.326 8.326 0 0 1-3.41.004 3.328 3.328 0 0 0-3.044-2.825c-.499-.038-1 .038-1.465.22A8.324 8.324 0 0 1 2.083 12.6 3.327 3.327 0 0 0 3.333 10a3.327 3.327 0 0 0-1.251-2.604c.36-1.09.94-2.095 1.705-2.952A3.327 3.327 0 0 0 7.753 3.22c.282-.413.467-.884.542-1.378zM10 12.5a2.5 2.5 0 1 0 0-5.001 2.5 2.5 0 0 0 0 5z" fill="#546176"/>
    </g>
    <defs>
        <clipPath id="r05j24zzia">
            <path fill="#fff" d="M0 0h20v20H0z"/>
        </clipPath>
    </defs>
</svg>
