<svg width="269" height="136" viewBox="0 0 269 136" fill="none" xmlns="http://www.w3.org/2000/svg">
  <g clip-path="url(#clip0)">
    <path d="M162.193 119.332C162.703 119.332 163.652 119.261 164.527 119.189C165.111 119.189 165.476 119.476 165.476 119.979V124.29C165.476 124.721 165.257 125.152 164.673 125.224C163.725 125.295 162.484 125.367 161.609 125.367C155.626 125.367 150.957 122.35 150.957 114.878V89.0862C150.957 88.5833 151.249 88.2959 151.833 88.2959H156.721C157.158 88.2959 157.523 88.5833 157.596 89.0143V95.7676H163.725C164.235 95.7676 164.6 96.055 164.6 96.5579V100.653C164.6 101.156 164.235 101.443 163.725 101.443H157.669V114.375C157.669 117.536 159.274 119.332 162.193 119.332Z" fill="#061C2B"/>
    <path d="M126.516 74.7174C147.469 74.7174 164.455 57.9913 164.455 37.3587C164.455 16.7261 147.469 0 126.516 0C105.564 0 88.5781 16.7261 88.5781 37.3587C88.5781 57.9913 105.564 74.7174 126.516 74.7174Z" fill="#FF4040"/>
    <path d="M114.988 51.7989V44.4709C114.988 41.7408 112.726 39.5137 109.954 39.5137C107.182 39.5137 104.92 41.7408 104.92 44.4709V51.7989C104.92 54.529 107.182 56.7561 109.954 56.7561C112.726 56.7561 114.988 54.529 114.988 51.7989Z" fill="white"/>
    <path d="M130.164 51.7991V31.5392C130.164 28.8092 127.902 26.582 125.13 26.582C122.357 26.582 120.096 28.8092 120.096 31.5392V51.7991C120.096 54.5292 122.357 56.7564 125.13 56.7564C127.902 56.7564 130.164 54.5292 130.164 51.7991Z" fill="white"/>
    <path d="M145.266 38.8675V18.6076C145.266 15.8775 143.004 13.6504 140.231 13.6504H140.158C137.386 13.6504 135.197 15.8775 135.197 18.5358V38.8675C135.197 41.5976 137.459 43.8247 140.231 43.8247C143.004 43.8247 145.266 41.5976 145.266 38.8675Z" fill="white"/>
    <path d="M145.267 51.799C145.267 49.069 143.006 46.8418 140.233 46.8418C137.461 46.8418 135.199 49.069 135.199 51.799C135.199 54.5291 137.461 56.7562 140.233 56.7562C143.006 56.7562 145.267 54.5291 145.267 51.799Z" fill="white"/>
    <path d="M0.802546 124.649C0.291838 124.649 0 124.361 0 123.786V85.1346C0 84.5598 0.291838 84.2725 0.802546 84.2725H7.07695C7.5147 84.2725 7.80654 84.4161 8.02541 84.9191L15.0294 97.7791C16.5615 100.581 18.9692 105.682 19.9176 107.693H20.1365C21.085 105.682 23.4926 100.581 25.0247 97.7791L31.9557 84.9191C32.1746 84.488 32.5394 84.2725 32.9042 84.2725H39.1057C39.6893 84.2725 39.9811 84.5598 39.9811 85.1346V123.858C39.9811 124.433 39.6893 124.72 39.1057 124.72H33.8527C33.3419 124.72 33.0501 124.433 33.0501 123.858V112.435C33.0501 107.119 33.269 100.222 33.4879 94.6898L33.3419 94.6179C31.9557 97.5635 30.0588 101.371 28.1619 105.107L23.1278 114.806C22.9819 115.237 22.6171 115.453 22.1793 115.453H17.8018C17.3641 115.453 16.9993 115.237 16.8534 114.806L11.8192 105.107C9.92233 101.371 8.02542 97.5635 6.63921 94.6179L6.4933 94.6898C6.71217 100.222 6.93104 107.119 6.93104 112.435V123.786C6.93104 124.361 6.63921 124.649 6.05554 124.649H0.802546Z" fill="#061C2B"/>
    <path d="M57.7854 94.6904C64.9353 94.6904 69.7506 98.2108 69.7506 106.185V122.709C69.7506 123.141 69.5317 123.5 69.0939 123.643C66.1026 124.577 61.7981 125.368 57.5665 125.368C50.9273 125.368 44.7988 122.997 44.7988 115.956C44.7988 109.778 50.0518 106.904 57.3477 106.904C59.2446 106.904 61.3604 107.119 63.1114 107.335V106.257C63.1114 102.234 61.6522 100.582 57.3477 100.582C54.5023 100.582 51.8028 101.3 49.9789 102.378C49.5411 102.665 49.1034 102.593 48.8115 102.162L46.5498 98.7137C46.258 98.2826 46.258 97.9952 46.5498 97.7797C49.3222 95.8399 53.189 94.6904 57.7854 94.6904ZM57.5665 119.62C59.4634 119.62 61.6522 119.261 63.1114 118.974V112.579C61.5792 112.364 59.3175 112.148 57.5665 112.148C53.262 112.148 51.511 113.585 51.511 115.884C51.511 118.543 54.0645 119.62 57.5665 119.62Z" fill="#061C2B"/>
    <path d="M87.4815 136.001C82.7392 136.001 79.3101 134.779 76.3188 132.48C75.8811 132.193 75.8811 131.834 76.1729 131.331L78.5805 127.81C78.8724 127.379 79.2372 127.236 79.7479 127.595C81.8637 129.104 84.4902 130.109 87.4815 130.109C91.786 130.109 93.8288 128.241 93.6829 122.566C91.859 123.356 89.3784 123.787 87.3355 123.787C80.5504 123.787 74.9326 120.051 74.9326 112.077V106.76C74.9326 97.9234 80.9152 94.6904 88.211 94.6904C92.4426 94.6904 96.6012 95.6244 99.6655 96.9176C100.103 97.0613 100.322 97.4205 100.322 97.8516V122.781C100.249 131.187 96.5283 136.001 87.4815 136.001ZM87.9192 118.04C90.108 118.04 92.5156 117.537 93.6099 116.603V101.228C92.3697 100.797 89.962 100.582 88.284 100.582C84.3443 100.582 81.6448 101.947 81.6448 106.832V112.148C81.5718 116.603 84.4172 118.04 87.9192 118.04Z" fill="#061C2B"/>
    <path d="M107.471 124.649C106.888 124.649 106.596 124.362 106.596 123.787V97.9234C106.596 97.4923 106.742 97.1331 107.252 96.9176C110.608 95.4807 114.621 94.6904 118.707 94.6904C126.659 94.6904 131.985 98.2826 131.985 107.335V123.787C131.985 124.362 131.693 124.649 131.183 124.649H126.222C125.711 124.649 125.346 124.362 125.346 123.787V107.479C125.346 102.162 122.865 100.582 118.707 100.582C116.737 100.582 114.621 100.869 113.308 101.228V123.859C113.308 124.434 113.016 124.721 112.432 124.721H107.471V124.649Z" fill="#061C2B"/>
    <path d="M141.615 91.4565C139.499 91.4565 137.821 89.8041 137.821 87.7207C137.821 85.5654 139.499 84.0566 141.615 84.0566C143.804 84.0566 145.336 85.5654 145.336 87.7207C145.336 89.8041 143.804 91.4565 141.615 91.4565ZM139.062 124.648C138.551 124.648 138.186 124.361 138.186 123.786V96.1982C138.186 95.6953 138.551 95.4079 139.062 95.4079H144.023C144.533 95.4079 144.825 95.6953 144.825 96.1982V123.858C144.825 124.433 144.533 124.72 144.023 124.72H139.062V124.648Z" fill="#061C2B"/>
    <path d="M193.634 95.4082C194.144 95.4082 194.509 95.6956 194.509 96.1985V122.062C194.509 122.565 194.29 122.924 193.852 123.068C190.569 124.505 186.63 125.295 182.617 125.295C174.81 125.295 169.484 121.631 169.484 112.579V96.1985C169.484 95.6956 169.776 95.4082 170.36 95.4082H175.321C175.832 95.4082 176.124 95.6956 176.124 96.1985V112.507C176.124 117.823 178.531 119.476 182.617 119.476C184.514 119.476 186.484 119.26 187.87 118.829V96.1985C187.87 95.6956 188.162 95.4082 188.672 95.4082H193.634Z" fill="#061C2B"/>
    <path d="M218.586 85.1346C218.586 84.5598 218.878 84.2725 219.462 84.2725H224.423C225.007 84.2725 225.299 84.5598 225.299 85.1346V122.35C225.299 122.852 225.153 123.14 224.642 123.284C221.213 124.505 216.763 125.295 213.042 125.295C205.454 125.295 199.909 121.487 199.909 112.866V106.616C199.909 99.2878 205.162 94.6179 212.385 94.6179C214.647 94.6179 216.835 95.1209 218.586 95.8393V85.1346V85.1346ZM213.188 119.62C215.157 119.62 217.2 119.332 218.586 118.829V102.018C217.2 101.084 215.303 100.581 213.042 100.581C208.883 100.581 206.548 102.449 206.548 106.76V113.01C206.621 117.823 209.102 119.62 213.188 119.62Z" fill="#061C2B"/>
    <path d="M255.795 112.004C255.795 112.507 255.503 112.794 254.92 112.794H237.483V114.375C237.483 117.824 239.89 119.548 243.538 119.548C247.113 119.548 249.521 118.326 251.637 116.961C252.074 116.674 252.512 116.746 252.804 117.105L255.139 120.194C255.503 120.625 255.43 121.056 254.993 121.416C251.928 123.787 248.208 125.295 243.319 125.295C236.826 125.295 230.771 121.775 230.771 114.303V106.329C230.771 97.9947 237.118 94.7617 243.392 94.7617C249.667 94.7617 255.795 98.0665 255.795 106.329V112.004V112.004ZM243.392 100.509C240.036 100.509 237.483 102.09 237.483 106.257V107.694H249.302V106.257C249.302 102.162 246.602 100.509 243.392 100.509Z" fill="#061C2B"/>
    <path d="M260.172 99.935C260.099 99.935 260.026 99.8632 260.026 99.7913V95.1215H258.421C258.348 95.1215 258.275 95.0496 258.275 94.9778V94.3312C258.275 94.1875 258.348 94.1875 258.421 94.1875H262.653C262.726 94.1875 262.799 94.2593 262.799 94.3312V94.9059C262.799 94.9778 262.726 95.0496 262.653 95.0496H261.048V99.7195C261.048 99.7913 260.975 99.8632 260.902 99.8632H260.172V99.935ZM263.455 99.935C263.382 99.935 263.309 99.8632 263.309 99.7913V94.3312C263.309 94.2593 263.382 94.1875 263.455 94.1875H264.258C264.331 94.1875 264.404 94.1875 264.477 94.3312L266.155 97.9952L267.76 94.3312C267.833 94.2593 267.906 94.1875 267.979 94.1875H268.854C268.927 94.1875 269 94.2593 269 94.3312V99.7913C269 99.8632 268.927 99.935 268.854 99.935H268.125C268.052 99.935 267.979 99.8632 267.979 99.7913V97.7797L268.052 95.8399H267.979L267.468 97.1331L266.666 98.7855C266.593 98.8573 266.593 98.9292 266.447 98.9292H265.79C265.717 98.9292 265.644 98.8573 265.571 98.7855L264.769 97.1331L264.258 95.8399H264.185L264.258 97.7797V99.7195C264.258 99.7913 264.185 99.8632 264.112 99.8632H263.455V99.935Z" fill="#061C2B"/>
  </g>
  <defs>
    <clipPath id="clip0">
      <rect width="269" height="136" fill="white"/>
    </clipPath>
  </defs>
</svg>