<svg xmlns="http://www.w3.org/2000/svg" viewBox="0 0 711.16 662.82"><defs><style>.a{fill:#f37021;}.b{fill:#a0dbe9;}.c{fill:#00557b;}</style></defs><title>ne</title><rect class="a" x="348.2" y="229.85" width="229.8" height="229.77"/><path class="b" d="M188.63,300.3c0-126.85,102.95-229.82,229.79-229.82S648.2,173.45,648.2,300.3c0,12.6-206.13,229.78-229.78,229.78-126.84,0-229.79-102.92-229.79-229.78" transform="translate(-70.21 -70.48)"/><path class="c" d="M580.92,462.78a229.7,229.7,0,0,1-162.5,67.32A229.78,229.78,0,0,1,648.23,300.31a229.69,229.69,0,0,1-67.31,162.47" transform="translate(-70.21 -70.48)"/><polygon class="c" points="0 628.91 0 536.99 49.98 536.99 49.98 551.84 17.7 551.84 17.7 574.43 48.35 574.43 48.35 588.88 17.7 588.88 17.7 613.78 49.98 613.78 49.98 628.91 0 628.91"/><path class="c" d="M173.58,699.39h-17.7l-25.06-67.68h19.06l10.77,30.5c1.63,4.76,3.26,10.2,4.49,15h.28a143.94,143.94,0,0,1,4.08-14.43l10.89-31.05h18.53Z" transform="translate(-70.21 -70.48)"/><path class="c" d="M237,643c-7.21,0-12.25,5.3-13.21,13.48h24.92C249,648,244.39,643,237,643m28.47,25.33H223.56c-.15,12.65,6.12,18.78,18.65,18.78A48.45,48.45,0,0,0,262,682.92l1.63,13.48a67.14,67.14,0,0,1-24.23,4.36c-21.53,0-33.52-10.76-33.52-34.6,0-20.7,11.43-35.95,31.74-35.95,19.74,0,28.45,13.48,28.45,30.22a57.23,57.23,0,0,1-.53,7.91" transform="translate(-70.21 -70.48)"/><path class="c" d="M303,645.33h.28c3.26-8.58,9.8-16.07,21.51-15.12l-.82,17.16c-12.53-2.6-18.8,5.58-18.8,24.38v27.64H287.83V645.06c-3.26-.55-7.9-1.1-11.84-1.36V632.8a192,192,0,0,1,28.18-1.24A90,90,0,0,1,303,645.33" transform="translate(-70.21 -70.48)"/><path class="c" d="M370.78,705.66c-8,21.11-16.47,27.51-32,27.51a44.55,44.55,0,0,1-9.53-1.1l2.44-15a30.8,30.8,0,0,0,9.26,1.5c5.72,0,9.54-2.59,13.08-12.67l2.3-6.54-24.93-67.67h19.34l9.12,25.86c2,5.86,3.82,12.54,5.31,18.66h.15c1.49-6.12,4.36-15.25,6.54-21.52l8-23h18.65Z" transform="translate(-70.21 -70.48)"/><path class="c" d="M470,642.46a114.32,114.32,0,0,1-4.21-14.7h-.14c-1.1,4.76-2.59,10.08-4.36,15.39L453,666.57h25.58Zm19.62,56.93-6.4-18.8H448.53l-6.39,18.8H424.3l32.13-91.92h20l32.82,91.92Z" transform="translate(-70.21 -70.48)"/><path class="c" d="M541.54,643.69l.14.13c4.09-8,12-13.62,23-13.62,15.26,0,20.15,9.81,20.15,21.66v47.53h-17.3v-43.3c0-7.09-1.89-11.31-8.3-11.31-8.85,0-15.8,10.07-15.8,21.93v32.68H526.15V645.05c-3.27-.55-7.9-1.1-11.85-1.36V632.8a191.45,191.45,0,0,1,28.2-1.24,75.17,75.17,0,0,1-1,12.13" transform="translate(-70.21 -70.48)"/><path class="c" d="M646.95,645.33a38.25,38.25,0,0,0-9.12-1c-9.94,0-17,6.13-17,22.88,0,12.67,3.69,19.05,11.59,19.05,9.12,0,14.57-10.48,14.57-22.32Zm-21.37,88a73.9,73.9,0,0,1-19.35-2.59l1.36-16.19a60.84,60.84,0,0,0,20.15,3.93c12.8,0,19.47-4.49,19.47-16.89V698a48.42,48.42,0,0,1,.69-9.81h-.27c-3.53,7.76-11,12.53-20,12.53-16.22,0-25.07-11-25.07-31.59,0-22.88,13.07-38.69,36.9-38.69a147.56,147.56,0,0,1,24.8,2v69c0,15.81-8.71,31.74-38.68,31.74" transform="translate(-70.21 -70.48)"/><path class="c" d="M703.88,699.39H686.45V613.32c-3.28-.55-7.91-1.09-11.86-1.36v-10.9a201.44,201.44,0,0,1,29.29-1.23Z" transform="translate(-70.21 -70.48)"/><path class="c" d="M752.34,643c-7.2,0-12.24,5.3-13.2,13.48h24.92C764.33,648,759.7,643,752.34,643m28.47,25.33H738.86c-.14,12.65,6.14,18.78,18.66,18.78a48.46,48.46,0,0,0,19.75-4.21l1.64,13.48a67.2,67.2,0,0,1-24.24,4.36c-21.51,0-33.49-10.76-33.49-34.6,0-20.7,11.42-35.95,31.73-35.95,19.75,0,28.47,13.48,28.47,30.22a55.48,55.48,0,0,1-.56,7.91" transform="translate(-70.21 -70.48)"/></svg>