<svg width="269" height="136" viewBox="0 0 448 96" fill="none" xmlns="http://www.w3.org/2000/svg">
	<path fill="#007AC9" d="M80.786 29.778a5.205 5.205 0 0 1 .442-2.1l-32.202-5.132a4 4 0 0 0-7.954.521L7.297 33.115a4.016 4.016 0 1 0 .742 2.508l33.779-10.048a3.988 3.988 0 0 0 6.779-.45l32.241 5.139a4.782 4.782 0 0 1-.053-.486z"></path>
	<path fill="#31ab46" d="M127.15.004a4.011 4.011 0 0 0-4.012 4.009 4.242 4.242 0 0 0 .106.883L88.607 26.652a4 4 0 1 0 1.523 3.123 3.678 3.678 0 0 0-.106-.883l34.643-21.745a3.953 3.953 0 0 0 2.483.883 4.018 4.018 0 1 0 0-8.026z"></path>
	<g fill="#007AC9">
		<path d="M1.092 44.056h5.91v32.687h-5.91zM29.501 43.632a14.21 14.21 0 0 0-9.092 3.2v-2.653h-5.848v32.563h5.91V58.783c0-5.439 3.677-9.262 8.941-9.315 2.924 0 5.246.768 6.8 2.3a8.665 8.665 0 0 1 2.3 6.481v18.538h5.91V58.242c-.007-8.9-5.856-14.61-14.921-14.61zM64.875 57.441l-1.046-.177c-4.032-.706-7.373-1.492-7.443-3.929a2.591 2.591 0 0 1 .8-2c1.205-1.236 3.757-1.978 6.681-1.934 3.181 0 5.68.459 8.294 2.746l1.055.945 3.8-4.035-1.081-1.015c-3.075-2.887-7.151-4.353-12.051-4.353-4.528-.053-8.48 1.263-10.82 3.594a8.39 8.39 0 0 0-2.463 6.181c.071 7.3 7.417 8.52 12.8 9.412 5.148.83 8.516 1.58 8.436 4.362-.142 3.806-5.494 4.221-7.78 4.221-4.138 0-7.754-1.651-9.676-4.415l-.948-1.369-4.375 3.836.691 1.068c2.712 4.141 8.028 6.6 14.24 6.6 6.5 0 13.5-2.552 13.691-9.712.345-7.827-7.568-9.152-12.805-10.026zM83.386 44.056h5.91v32.687h-5.91zM120.178 71.975a16.19 16.19 0 0 0 3.066-22.48l3.023-3.532-4.156-3.62-3.022 3.532a16.758 16.758 0 0 0-8.135-2.243c-9.092 0-15.436 6.552-15.436 15.893 0 9.156 6.486 15.8 15.436 15.8 1.63 0 9.747.353 9.747 7.39s-7.47 7.461-9.747 7.461c-4.661 0-9.65-1.96-9.65-7.461v-1.434h-5.937v1.475c0 7.947 6.256 13.244 15.56 13.244 9.49 0 15.622-5.218 15.622-13.244a11.843 11.843 0 0 0-6.371-10.781zm-9.268-2.462c-6.256 0-9.526-4.989-9.526-9.916 0-6.287 3.544-10.03 9.526-10.03s9.65 3.938 9.65 10.03a9.923 9.923 0 0 1-9.65 9.916zM147.222 43.756a14.076 14.076 0 0 0-9.207 3.267V31.827h-5.786v44.916h5.91V59.022c0-5.5 3.828-9.492 9.1-9.492s8.09 2.949 8.09 8.768v18.445h5.848V58.298c.002-9.091-5.209-14.542-13.955-14.542zM187.107 69.785l-1.4.671a9.624 9.624 0 0 1-3.934 1.051c-3.093 0-3.988-1.2-3.988-5.351V49.583h10.1V44.17h-10.109v-9.094l-5.857.6v8.494h-6.318v5.412h6.318v16.574c0 7.3 3.314 11.01 9.845 11.01a14.324 14.324 0 0 0 6.2-1.651l1.276-.609z"></path>
	</g>
	<g fill="#31ab46">
		<path d="M216.473 50.334c-3.234-2.834-6.407-3.355-9.96-3.355-4.98-.062-9.747 1.81-9.641 5.872.133 4.3 5.715 5.086 9.7 5.8 5.7.962 13.522 1.934 13.2 9.342-.195 7.064-7.505 8.9-13.141 8.9s-11.192-2.084-13.974-6.384l2.331-2.057c2.658 3.8 7.443 5.412 11.715 5.412 3.881 0 9.747-1.033 9.96-6.066.133-4.574-5.175-5.474-10.412-6.313-6.2-1.033-12.361-2.19-12.406-8.573s6.2-8.962 12.68-8.9c4.652 0 8.728 1.289 11.9 4.256zM223.243 60.523c0-10.127 7.24-16.573 16.234-16.573s16.278 6.446 16.278 16.573-7.249 16.308-16.243 16.308-16.269-6.189-16.269-16.308zm29.366 0c0-8.256-5.884-13.606-13.132-13.606s-13.132 5.351-13.132 13.606 5.884 13.244 13.132 13.244 13.132-4.997 13.132-13.244zM264.227 76.381v-28.82h-6.531v-2.772h6.531v-2.834c0-6.322 2.525-10.9 9.579-10.9a10.48 10.48 0 0 1 6.336 2.19l-1.551 2.322a8.758 8.758 0 0 0-4.918-1.616c-4.005 0-6.336 2.455-6.336 8v2.838h10.569v2.772h-10.542v28.82zM291.581 34.926v9.607h10.873v2.649h-10.873v19.424c0 4.318.886 7.346 5.893 7.346a11.792 11.792 0 0 0 4.909-1.289l1.108 2.578a13.987 13.987 0 0 1-6.017 1.616c-6.8 0-8.994-4-8.994-10.251V47.181h-6.8v-2.648h6.8v-9.289zM342.763 76.381h-3.5l-5.175-13.933-3.9-12.361-4.008 12.436L321 76.39h-3.491L306.14 44.533h3.491l9.641 28.166 9.748-28.166h2.26l9.7 28.166 9.59-28.166h3.544zM387.893 44.532v31.849h-3.172v-6.773a14.951 14.951 0 0 1-13.07 7.284 15.958 15.958 0 0 1-16.234-16.44 15.847 15.847 0 0 1 16.23-16.308c5.175 0 10.421 2.384 13.07 7.346v-6.958zm-29.346 15.92c0 8 5.822 13.35 13.07 13.35 17.793 0 17.793-26.63 0-26.63-7.215.002-13.07 5.289-13.07 13.28zM397.376 44.533l.124 5.669c2.012-4.318 6.54-6 10.634-6a12.546 12.546 0 0 1 6.859 1.872l-1.427 2.578a10.3 10.3 0 0 0-5.432-1.483 10.614 10.614 0 0 0-10.545 10.6v18.542h-3.173V44.533zM415.851 60.453a16.038 16.038 0 0 1 16.23-16.441c8.994 0 17.014 5.483 15.791 17.924h-28.791c.647 7.479 6.407 11.8 13 11.8 4.209 0 9.127-1.678 11.52-4.83l2.26 1.766c-3.137 4.141-8.666 6.163-13.77 6.163-9-.004-16.24-6.264-16.24-16.382zm29.18-1.289c-.071-7.872-5.25-12.247-12.95-12.247-6.593 0-12.291 4.415-13 12.247z"></path>
	</g>
  <defs>
    <clipPath id="clip0">
      <rect width="269" height="136" fill="white"/>
    </clipPath>
  </defs>
</svg>