<svg id="Layer_1" data-name="Layer 1" width="129" height="20" xmlns="http://www.w3.org/2000/svg" viewBox="0 0 129 20">
  <g clip-path="url(#clip0)">
    <path fill="#fff" d="M9.666 17h2.628L7.326 4.4H4.932L-.018 17h2.556l1.206-3.258H8.46L9.666 17zm-5.184-5.274l1.62-4.392 1.62 4.392h-3.24zm14.13-4.212c-1.044 0-1.962.414-2.538 1.422V7.73h-2.322V17h2.322v-5.454c0-1.278.792-2.016 1.89-2.016.936 0 1.62.684 1.62 1.89V17h2.322v-5.976c0-2.124-1.404-3.51-3.294-3.51zm10.335 7.308h-.54c-1.044 0-2.466 0-2.466-.576 0-.648 1.188-.648 2.52-.648 2.358 0 4.086-1.062 4.086-2.736 0-.756-.342-1.296-.936-1.692.612-.108 1.206-.252 1.746-.486l-.684-1.764c-1.188.612-2.664.594-4.212.594-2.394 0-4.14 1.188-4.14 3.078 0 .972.468 1.638 1.224 2.124-1.098.27-1.764.9-1.764 1.872 0 .828.54 1.404 1.332 1.728-.954.378-1.494 1.008-1.494 1.836 0 1.17 1.314 2.268 4.878 2.268 3.384 0 4.86-1.17 4.86-2.844 0-1.62-1.44-2.754-4.41-2.754zm-.486-5.508c1.188 0 1.818.504 1.818 1.278s-.63 1.242-1.818 1.242c-1.188 0-1.854-.468-1.854-1.242s.666-1.278 1.854-1.278zm.018 9.396c-1.746 0-2.394-.342-2.394-.936 0-.594.648-.936 2.394-.936 1.764 0 2.376.342 2.376.936 0 .594-.612.936-2.376.936zM37.726 17h1.134v-1.998h-.684c-.558 0-.81-.306-.81-.882V4.4h-2.322v9.864c0 1.692.972 2.736 2.682 2.736zm11.248-4.662c0-2.88-1.8-4.824-4.374-4.824-2.664 0-4.536 1.962-4.536 4.842 0 2.916 1.908 4.86 4.644 4.86 1.89 0 3.528-.936 4.248-3.024l-1.962-.72c-.486 1.26-1.278 1.764-2.376 1.764-1.188 0-2.052-.72-2.196-2.358h6.534c.018-.162.018-.378.018-.54zM44.6 9.386c1.026 0 1.746.576 1.998 1.908h-4.104c.252-1.278.972-1.908 2.106-1.908zm13.916 1.116c-.252-1.854-1.854-2.988-4.014-2.988-2.25 0-3.708 1.116-3.708 2.772 0 1.458.9 2.358 3.042 2.88l.918.216c1.134.288 1.638.522 1.638 1.062 0 .558-.648.9-1.692.9-1.17 0-2.106-.594-2.376-1.818l-1.872.612c.504 2.124 2.268 3.078 4.248 3.078 2.358 0 3.906-1.17 3.906-2.88 0-1.404-.972-2.34-2.934-2.808l-.9-.234c-1.098-.27-1.782-.468-1.782-1.062 0-.468.594-.828 1.512-.828 1.044 0 1.89.468 2.088 1.602l1.926-.504zM68.99 6.2h.99V4.202h-1.26c-1.998 0-3.132 1.242-3.132 3.24v.288h-1.44v1.854h1.44V17h2.322V9.584h2.07V7.73h-2.07v-.198c0-.882.36-1.332 1.08-1.332zm6.72 1.314c-2.736 0-4.77 1.98-4.77 4.842 0 2.88 2.034 4.86 4.77 4.86 2.772 0 4.806-1.98 4.806-4.86 0-2.862-2.034-4.842-4.806-4.842zm0 2.07c1.386 0 2.43 1.008 2.43 2.772 0 1.782-1.044 2.808-2.43 2.808-1.368 0-2.394-1.026-2.394-2.808 0-1.764 1.026-2.772 2.394-2.772zm11.47-2.07c-.972 0-1.818.468-2.34 1.548V7.73h-2.322V17h2.322v-4.86c0-1.368.774-2.142 1.854-2.142h.972V7.514h-.486zm15.608.414c-.432-2.448-2.448-3.744-5.04-3.744-2.79 0-4.68 1.494-4.68 3.636 0 1.89 1.17 3.078 3.6 3.762l1.314.342c1.656.45 2.43.846 2.43 1.692 0 .882-.972 1.458-2.52 1.458-1.656 0-2.772-.99-3.168-2.484l-2.142.72c.648 2.718 2.736 3.906 5.31 3.906 3.096 0 4.986-1.512 4.986-3.798 0-1.872-1.242-3.078-3.834-3.762l-1.332-.342c-1.314-.342-2.142-.72-2.142-1.62 0-.828.828-1.368 2.214-1.368 1.404 0 2.52.684 2.808 2.16l2.196-.558zM113.194 17h2.628l-4.968-12.6h-2.394L103.51 17h2.556l1.206-3.258h4.716L113.194 17zm-5.184-5.274l1.62-4.392 1.62 4.392h-3.24zM122.356 4.4h-4.896V17h2.448v-4.338h2.466c3.006 0 4.734-1.584 4.734-4.104 0-2.538-1.728-4.158-4.752-4.158zm-.18 6.156h-2.268V6.578h2.268c1.476 0 2.358.666 2.358 1.98 0 1.332-.882 1.998-2.358 1.998zM133.601 2.85h-2.547v.549h.968V6h.612V3.399h.967V2.85zm3.012 0l-.945 1.323-.963-1.323h-.581V6h.612V3.831l.873 1.183h.104l.864-1.183V6h.616V2.85h-.58z" />
  </g>
  <defs><style>
  .cls-1 {
  fill: #fff;
  }
</style>
    <clipPath id="clip0">
      <path class="cls-1" d="M0 0H138V20H0z" />
    </clipPath>
  </defs><title>Angle_for_SAP_Logo_Color_Wide-01</title>
  
</svg>
 