<svg width="224" height="20" fill="none" xmlns="http://www.w3.org/2000/svg" xmlns:xlink="http://www.w3.org/1999/xlink">
     <g transform="translate(-87.938619,-0.57289003)">
        <path d="m12.034 4.4-3.78 5.292L4.402 4.4H2.08V17h2.448V8.324l3.492 4.734h.414l3.456-4.734V17h2.466V4.4h-2.322zm8.25 3.114c-1.836 0-3.456.774-4.086 2.736l1.926.81c.342-.936 1.044-1.476 2.07-1.476 1.206 0 1.926.576 1.926 1.818v.846c-.54-.504-1.35-.81-2.412-.81-2.268 0-3.744 1.134-3.744 2.88 0 1.818 1.422 2.898 3.582 2.898 1.224 0 2.178-.378 2.736-1.116v.9h2.16v-5.832c0-2.502-1.926-3.654-4.158-3.654zm-.018 8.01c-1.134 0-1.908-.432-1.908-1.224s.774-1.242 1.908-1.242 1.908.45 1.908 1.242-.774 1.224-1.908 1.224zm10.72-.702h-.54c-1.044 0-2.466 0-2.466-.576 0-.648 1.188-.648 2.52-.648 2.358 0 4.086-1.062 4.086-2.736 0-.756-.342-1.296-.936-1.692.612-.108 1.206-.252 1.746-.486l-.684-1.764c-1.188.612-2.664.594-4.212.594-2.394 0-4.14 1.188-4.14 3.078 0 .972.468 1.638 1.224 2.124-1.098.27-1.764.9-1.764 1.872 0 .828.54 1.404 1.332 1.728-.954.378-1.494 1.008-1.494 1.836 0 1.17 1.314 2.268 4.878 2.268 3.384 0 4.86-1.17 4.86-2.844 0-1.62-1.44-2.754-4.41-2.754zM30.5 9.314c1.188 0 1.818.504 1.818 1.278s-.63 1.242-1.818 1.242c-1.188 0-1.854-.468-1.854-1.242s.666-1.278 1.854-1.278zm.018 9.396c-1.746 0-2.394-.342-2.394-.936 0-.594.648-.936 2.394-.936 1.764 0 2.376.342 2.376.936 0 .594-.612.936-2.376.936zM41.443 7.514c-1.044 0-1.962.414-2.538 1.422V7.73h-2.322V17h2.322v-5.454c0-1.278.792-2.016 1.89-2.016.936 0 1.62.684 1.62 1.89V17h2.322v-5.976c0-2.124-1.404-3.51-3.294-3.51zm6.271-.846c.828 0 1.494-.504 1.494-1.386 0-.864-.666-1.404-1.494-1.404s-1.494.54-1.494 1.404c0 .882.666 1.386 1.494 1.386zm1.152 1.062h-2.322V17h2.322V7.73zm7.291 1.854V7.73h-2.07V4.67l-2.322 1.278V7.73h-1.692v1.854h1.692v4.194c0 1.98 1.134 3.222 3.114 3.222h1.278v-1.998h-.99c-.72 0-1.08-.45-1.08-1.332V9.584h2.07zM65.62 7.73h-2.34v5.328c0 1.368-.72 1.98-1.746 1.98-1.008 0-1.746-.612-1.746-1.98V7.73h-2.34v5.472c0 2.52 1.764 4.014 4.086 4.014 2.34 0 4.086-1.494 4.086-4.014V7.73zm8.433-3.33v4.698c-.576-.918-1.494-1.584-2.88-1.584-2.376 0-4.157 2.07-4.157 4.842 0 2.79 1.781 4.86 4.157 4.86 1.386 0 2.305-.648 2.88-1.548V17h2.322V4.4h-2.322zM71.75 15.146c-1.386 0-2.358-1.008-2.358-2.79s.971-2.772 2.358-2.772c1.386 0 2.34.99 2.34 2.772 0 1.782-.954 2.79-2.34 2.79zm15.033-2.808c0-2.88-1.8-4.824-4.374-4.824-2.664 0-4.536 1.962-4.536 4.842 0 2.916 1.908 4.86 4.644 4.86 1.89 0 3.528-.936 4.248-3.024l-1.962-.72c-.486 1.26-1.278 1.764-2.376 1.764-1.188 0-2.052-.72-2.196-2.358h6.534c.018-.162.018-.378.018-.54zm-4.374-2.952c1.026 0 1.746.576 1.998 1.908h-4.104c.252-1.278.972-1.908 2.106-1.908zM100.242 17h2.628L97.902 4.4h-2.394L90.558 17h2.556l1.206-3.258h4.716L100.242 17zm-5.184-5.274 1.62-4.392 1.62 4.392h-3.24zm13.63-4.212c-1.044 0-1.962.414-2.538 1.422V7.73h-2.322V17h2.322v-5.454c0-1.278.792-2.016 1.89-2.016.936 0 1.62.684 1.62 1.89V17h2.322v-5.976c0-2.124-1.404-3.51-3.294-3.51zm9.835 7.308h-.54c-1.044 0-2.466 0-2.466-.576 0-.648 1.188-.648 2.52-.648 2.358 0 4.086-1.062 4.086-2.736 0-.756-.342-1.296-.936-1.692.612-.108 1.206-.252 1.746-.486l-.684-1.764c-1.188.612-2.664.594-4.212.594-2.394 0-4.14 1.188-4.14 3.078 0 .972.468 1.638 1.224 2.124-1.098.27-1.764.9-1.764 1.872 0 .828.54 1.404 1.332 1.728-.954.378-1.494 1.008-1.494 1.836 0 1.17 1.314 2.268 4.878 2.268 3.384 0 4.86-1.17 4.86-2.844 0-1.62-1.44-2.754-4.41-2.754zm-.486-5.508c1.188 0 1.818.504 1.818 1.278s-.63 1.242-1.818 1.242c-1.188 0-1.854-.468-1.854-1.242s.666-1.278 1.854-1.278zm.018 9.396c-1.746 0-2.394-.342-2.394-.936 0-.594.648-.936 2.394-.936 1.764 0 2.376.342 2.376.936 0 .594-.612.936-2.376.936zm8.747-1.71h1.134v-1.998h-.684c-.558 0-.81-.306-.81-.882V4.4h-2.322v9.864c0 1.692.972 2.736 2.682 2.736zm10.748-4.662c0-2.88-1.8-4.824-4.374-4.824-2.664 0-4.536 1.962-4.536 4.842 0 2.916 1.908 4.86 4.644 4.86 1.89 0 3.528-.936 4.248-3.024l-1.962-.72c-.486 1.26-1.278 1.764-2.376 1.764-1.188 0-2.052-.72-2.196-2.358h6.534c.018-.162.018-.378.018-.54zm-4.374-2.952c1.026 0 1.746.576 1.998 1.908h-4.104c.252-1.278.972-1.908 2.106-1.908zm13.416 1.116c-.252-1.854-1.854-2.988-4.014-2.988-2.25 0-3.708 1.116-3.708 2.772 0 1.458.9 2.358 3.042 2.88l.918.216c1.134.288 1.638.522 1.638 1.062 0 .558-.648.9-1.692.9-1.17 0-2.106-.594-2.376-1.818l-1.872.612c.504 2.124 2.268 3.078 4.248 3.078 2.358 0 3.906-1.17 3.906-2.88 0-1.404-.972-2.34-2.934-2.808l-.9-.234c-1.098-.27-1.782-.468-1.782-1.062 0-.468.594-.828 1.512-.828 1.044 0 1.89.468 2.088 1.602l1.926-.504zm9.004-5.112h.882V4.328h-.972c-1.602 0-2.358 1.044-2.358 2.412V8H151.6v1.062h1.548V17h1.17V9.062h2.16V8h-2.16V6.812c0-.9.36-1.422 1.278-1.422zm6.209 2.466c-2.556 0-4.464 1.89-4.464 4.644 0 2.772 1.908 4.662 4.464 4.662 2.556 0 4.464-1.89 4.464-4.662 0-2.754-1.908-4.644-4.464-4.644zm0 1.08c1.89 0 3.276 1.368 3.276 3.564 0 2.214-1.386 3.582-3.276 3.582s-3.276-1.368-3.276-3.582c0-2.196 1.386-3.564 3.276-3.564zm10.492-1.08c-1.188 0-2.124.648-2.646 1.818V8h-1.152v9h1.17v-4.896c0-1.782.972-3.024 2.394-3.024h.792V7.856h-.558zm15.206.036c-.522-2.394-2.178-3.654-4.716-3.654-2.556 0-4.302 1.404-4.302 3.42 0 1.584 1.116 2.736 3.114 3.258l1.8.468c2.214.576 3.006 1.332 3.006 2.448 0 1.332-1.314 2.16-3.348 2.16-2.142 0-3.528-1.116-3.924-3.078l-1.242.288c.504 2.43 2.196 3.96 5.166 3.96 2.808 0 4.608-1.368 4.608-3.456 0-1.584-1.206-2.772-3.708-3.456l-1.782-.486c-1.638-.45-2.412-1.008-2.412-2.232 0-1.278 1.26-2.124 3.06-2.124 1.746 0 3.096.828 3.51 2.772l1.17-.288zM198.495 17h1.296l-5.094-12.6h-1.134L188.487 17h1.26l1.566-3.978h5.616L198.495 17zm-6.732-5.112 2.358-5.958 2.358 5.958h-4.716zM206.092 4.4h-4.374V17h1.206v-4.59h3.168c2.772 0 4.572-1.476 4.572-4.014 0-2.538-1.8-3.996-4.572-3.996zm-.126 6.876h-3.042V5.534h3.042c2.178 0 3.438.954 3.438 2.862 0 1.908-1.26 2.88-3.438 2.88z" fill="#ffff"/>
        <path d="M216.601 4.35h-2.547v.549h.968V7.5h.612V4.899h.967V4.35zm3.012 0-.945 1.323-.963-1.323h-.581V7.5h.612V5.331l.873 1.183h.104l.864-1.183V7.5h.616V4.35h-.58z" fill="#ffff"/>
    </g>
</svg>
