<svg xmlns="http://www.w3.org/2000/svg" viewBox="0 0 32 32"><defs><style>.a{fill:#84be56;}.b{fill:#e9c944;}.c{fill:#ee4d4d;}.d{fill:#025e7f;}</style></defs><title>icons</title><path d="M.91,4.49H4.44V.94h3V4.49H11v3H7.42V11h-3V7.47H.91Z"/><path class="a" d="M23.61,16.73a7.29,7.29,0,0,1-1.18,9.75l3.76,3.76a12.61,12.61,0,0,0,1.22-17.3Z"/><path class="b" d="M17.64,8.31A12.6,12.6,0,0,0,7.74,13.1l3.8,3.8a7.31,7.31,0,0,1,12.07-.17l3.8-3.8A12.62,12.62,0,0,0,17.64,8.31Z"/><path class="c" d="M11.54,16.9l-3.8-3.8a12.6,12.6,0,0,0,1.19,17l3.76-3.76a7.3,7.3,0,0,1-1.15-9.44Z"/><path class="d" d="M17.64,12.32c.83,1.69,1.62,3.4,2.31,5.14a13.12,13.12,0,0,1,.86,2.69,2.83,2.83,0,0,1-.06,1.16,3.2,3.2,0,0,1-2.29,2.31l-.39.08a2.56,2.56,0,0,0-.32,0,3.31,3.31,0,0,1-2.35-.92,3.22,3.22,0,0,1-1-2.29,4.6,4.6,0,0,1,.26-1.29c.14-.46.3-.9.47-1.35C15.5,17,17.64,12.32,17.64,12.32Zm1.42,8.22a1.42,1.42,0,1,0-1.16,1.4A1.44,1.44,0,0,0,19.06,20.54Z"/></svg>