<?xml version="1.0" encoding="utf-8"?>
<!-- Generator: Adobe Illustrator 21.1.0, SVG Export Plug-In . SVG Version: 6.00 Build 0)  -->
<svg version="1.1" id="Layer_1" xmlns="http://www.w3.org/2000/svg" xmlns:xlink="http://www.w3.org/1999/xlink" x="0px" y="0px"
	 viewBox="0 0 16 16" style="enable-background:new 0 0 16 16;" xml:space="preserve">
<style type="text/css">
	.st0{fill:#78909c;}
</style>
<g>
	<g>
		<g>
			<path class="st0" d="M11.8,6.4c0.5,0.8,0.9,1.7,0.9,2.7c0,1.4-0.6,2.6-1.6,3.5l2.4,2.4C15,13.5,16,11.4,16,9.1
				c0-1.9-0.7-3.7-1.8-5.1L11.8,6.4z"/>
		</g>
		<path class="st0" d="M8,1.1c-2.5,0-4.8,1.2-6.3,3l2.4,2.4C5,5.3,6.4,4.4,8,4.4c1.6,0,2.9,0.8,3.8,2L14.2,4
			C12.7,2.2,10.5,1.1,8,1.1z"/>
		<path class="st0" d="M4.1,6.5L1.7,4.1C0.7,5.5,0,7.2,0,9.1c0,2.3,1,4.3,2.5,5.8l2.4-2.4c-0.9-0.8-1.5-2.1-1.5-3.4
			C3.4,8.1,3.7,7.2,4.1,6.5z"/>
	</g>
	<path class="st0" d="M12.2,5.9c-0.6,1-1.3,2-1.9,3c-0.3,0.5-0.7,1-1.1,1.4c-0.2,0.2-0.4,0.3-0.6,0.4c-0.3,0.1-0.5,0.1-0.8,0.1
		c-0.3,0-0.6-0.1-0.9-0.3c-0.1-0.1-0.3-0.2-0.4-0.3c-0.1-0.1-0.1-0.1-0.2-0.2c0-0.1-0.1-0.1-0.1-0.2c-0.3-0.5-0.4-1-0.3-1.6
		C6,7.8,6.3,7.3,6.8,7C7,6.9,7.3,6.8,7.5,6.7c0.3-0.1,0.6-0.2,0.9-0.2C9,6.4,12.2,5.9,12.2,5.9z M8.4,9.5c0.3-0.2,0.5-0.6,0.4-0.9
		C8.7,8.2,8.4,7.9,8,7.8C7.6,7.8,7.2,8,7.1,8.3C6.9,8.7,7,9.1,7.2,9.4C7.5,9.7,8,9.7,8.4,9.5z"/>
</g>
</svg>
