<?xml version="1.0" encoding="utf-8"?>
<!-- Generator: Adobe Illustrator 21.1.0, SVG Export Plug-In . SVG Version: 6.00 Build 0)  -->
<svg version="1.1" id="Layer_1" xmlns="http://www.w3.org/2000/svg" xmlns:xlink="http://www.w3.org/1999/xlink" x="0px" y="0px"
	 viewBox="0 0 16 16" style="enable-background:new 0 0 16 16;" xml:space="preserve">
<style type="text/css">
	.st0{fill:#3d4852;}
</style>
<g>
	<g>
		<path class="st0" d="M11.5,0H4.8C4.5,0,4.2,0.3,4.2,0.6V3H1.7C1.3,3,1.1,3.4,1.1,3.7v11.7c0,0.3,0.3,0.6,0.6,0.6h9.7
			c0.3,0,0.6-0.3,0.6-0.6v-2.6h2.4c0.3,0,0.6-0.3,0.6-0.6V3.5c0-0.2-0.1-0.3-0.2-0.4l-2.9-2.9C11.7,0,11.5,0,11.5,0z M10.9,14.7H2.3
			V4.2h2v8c0,0.3,0.3,0.6,0.6,0.6h6.1L10.9,14.7L10.9,14.7z M5.4,11.6V1.1h5v3.3c0,0.3,0.3,0.6,0.6,0.6h2.9v6.7H5.4z M13.9,3.8h-2.3
			V1.5L13.9,3.8L13.9,3.8z"/>
	</g>
</g>
</svg>
