<?xml version="1.0" encoding="utf-8"?>
<!-- Generator: Adobe Illustrator 21.1.0, SVG Export Plug-In . SVG Version: 6.00 Build 0)  -->
<svg version="1.1" id="Layer_1" xmlns="http://www.w3.org/2000/svg" xmlns:xlink="http://www.w3.org/1999/xlink" x="0px" y="0px"
	 viewBox="0 0 16 16" style="enable-background:new 0 0 16 16;" xml:space="preserve">
<style type="text/css">
	.st0{fill:#3d4852;}
</style>
<g>
	<g>
		<path class="st0" d="M9.3,8.5V7.7h1.3v-1H9.3V5.9h1.3v-1H9.3v-1H3.6V1.3H15v13.4H3.6v-1.5h5.7V9.5h1.3v-1H9.3z M2.6,13.2v2.6H16
			V0.3H2.6v3.6H0v9.3H2.6z M3.4,8.9c0,0.2-0.1,0.3-0.1,0.5C3.2,9.5,3.1,9.7,2.9,9.7C2.7,9.8,2.6,9.8,2.3,9.8C2,9.8,1.7,9.7,1.5,9.5
			C1.4,9.3,1.3,9,1.3,8.6V8.5c0-0.3,0-0.5,0.1-0.7c0.1-0.2,0.2-0.3,0.4-0.4c0.2-0.1,0.4-0.2,0.6-0.2c0.3,0,0.6,0.1,0.8,0.2
			s0.3,0.4,0.3,0.7H2.8c0-0.2,0-0.3-0.1-0.3C2.6,7.7,2.5,7.7,2.3,7.7C2.2,7.7,2.1,7.7,2,7.9C1.9,8,1.9,8.2,1.9,8.4v0.2
			c0,0.3,0,0.5,0.1,0.6c0.1,0.1,0.2,0.2,0.4,0.2c0.1,0,0.3,0,0.3-0.1c0.1-0.1,0.1-0.2,0.1-0.3H3.4z M5,9.1C5,9,5,9,4.9,8.9
			S4.8,8.8,4.6,8.8S4.3,8.6,4.2,8.6C3.9,8.4,3.7,8.2,3.7,7.9c0-0.1,0-0.3,0.1-0.4C3.9,7.4,4,7.4,4.2,7.3s0.3-0.1,0.5-0.1
			c0.2,0,0.4,0,0.5,0.1c0.1,0.1,0.3,0.2,0.3,0.3C5.6,7.7,5.6,7.8,5.6,8H5c0-0.1,0-0.2-0.1-0.2C4.9,7.7,4.8,7.7,4.7,7.7
			c-0.1,0-0.2,0-0.3,0.1c-0.1,0-0.1,0.1-0.1,0.2c0,0.1,0,0.1,0.1,0.2c0.1,0.1,0.2,0.1,0.4,0.2C5,8.3,5.1,8.4,5.2,8.5
			c0.3,0.2,0.4,0.4,0.4,0.7c0,0.2-0.1,0.4-0.3,0.5S5,9.8,4.7,9.8c-0.2,0-0.4,0-0.6-0.1C4,9.7,3.8,9.6,3.7,9.4C3.7,9.3,3.6,9.1,3.6,9
			h0.6c0,0.1,0,0.2,0.1,0.3s0.2,0.1,0.3,0.1c0.1,0,0.2,0,0.2-0.1C5,9.3,5,9.2,5,9.1z M7,9.1l0.5-1.9h0.7L7.3,9.8H6.6L5.8,7.2h0.7
			L7,9.1z M11.4,4.9h2.1v1h-2.1V4.9z M11.4,6.7h2.1v1h-2.1V6.7z M11.4,8.5h2.1v1h-2.1V8.5z"/>
	</g>
</g>
</svg>
