<svg xmlns="http://www.w3.org/2000/svg" viewBox="0 0 32 32"><defs><style>.a{fill:#652450;}</style></defs><title>icons</title><path class="a" d="M26.38,4.86H18.63V2.75l-14.92,2V26l14.92,2V25.82h7.74A1.62,1.62,0,0,0,28,24.2V6.48A1.62,1.62,0,0,0,26.38,4.86ZM7.48,16.61a2.4,2.4,0,0,0,.85-.14l.16.86a2.72,2.72,0,0,1-1.16.18A2.21,2.21,0,0,1,5,15.1a2.36,2.36,0,0,1,2.38-2.54,2.5,2.5,0,0,1,1.12.19l-.21.87a2.08,2.08,0,0,0-.86-.16A1.4,1.4,0,0,0,6.07,15,1.39,1.39,0,0,0,7.48,16.61Zm2.85,1A3,3,0,0,1,9,17.25l.21-.91a2.66,2.66,0,0,0,1.18.32c.5,0,.76-.2.76-.53s-.23-.49-.81-.71c-.79-.29-1.29-.74-1.29-1.45s.67-1.49,1.79-1.52a2.88,2.88,0,0,1,1.25.22l-.25.92a2.25,2.25,0,0,0-1-.22c-.47,0-.69.23-.69.49s.27.45.89.69c.86.32,1.27.79,1.27,1.5S11.66,17.62,10.33,17.58Zm5.31.06-1.38,0L12.63,12.5l1.25,0,.63,2.17c.18.61.34,1.2.46,1.85h0c.13-.62.3-1.24.48-1.83l.68-2.24,1.3,0Zm3-5.42h2.47v1.15H18.63Zm0,1.25h2.47v1.15H18.63Zm0,1.25h2.47v1.21H18.63Zm0,1.33h2.47v1.08H18.63Zm0,1.2h2.47v.94H18.63Zm0,1.06h2.47v.93H18.63Zm8.44,5.89a.7.7,0,0,1-.69.69H18.63V19.34h8.2V12h0V10.87h-8.2V5.8h7.74a.7.7,0,0,1,.69.69Zm-.35-12v7H25.64V12.56H24.9v6.67h-.62v-6h-.74v6H23v-5.3h-.74v5.3h-1v-7h5.52ZM24,12.12V11h2.74v1h0v.12Zm-.1,0H21.16V11H23.9Z"/></svg>