<svg xmlns="http://www.w3.org/2000/svg" viewBox="0 0 32 32"><defs><style>.a{fill:#207245;}.b{fill:#fff;}</style></defs><title>icons</title><path class="a" d="M16.62,3h1.75V5.36h8.87a2.72,2.72,0,0,1,1.49.28A2.72,2.72,0,0,1,29,7.14c0,5.13,0,10.26,0,15.4a15.67,15.67,0,0,1-.09,2.58c-.12.61-.85.64-1.35.64h-9.2V28.4H16.53C12,27.57,7.52,26.82,3,26V5.36Q9.81,4.19,16.62,3Z"/><path class="b" d="M18.37,6.24h9.74V24.88H18.37V23.1h2.36V21H18.37V19.84h2.36V17.76H18.37V16.58h2.36V14.49H18.37V13.31h2.36V11.23H18.37V10h2.36V8H18.37Z"/><path class="a" d="M21.92,8h4.14v2.08H21.92Z"/><path class="b" d="M11.75,10.8c.66,0,1.35-.09,2-.12-.78,1.61-1.58,3.24-2.39,4.85.8,1.66,1.66,3.29,2.46,5l-2.13-.14a33.64,33.64,0,0,1-1.47-3.71c-.4,1.21-1,2.34-1.44,3.5-.64,0-1.3,0-1.94-.07.76-1.49,1.49-3,2.27-4.47-.66-1.51-1.4-3-2.08-4.54L9,10.95c.45,1.16.92,2.29,1.28,3.48C10.69,13.19,11.26,12,11.75,10.8Z"/><path class="a" d="M21.92,11.28h4.14v2.08H21.92Z"/><path class="a" d="M21.92,14.52h4.14V16.6H21.92Z"/><path class="a" d="M21.92,17.78h4.14v2.08H21.92Z"/><path class="a" d="M21.92,21h4.14V23.1H21.92Z"/></svg>