<?xml version="1.0" encoding="utf-8"?>
<!-- Generator: Adobe Illustrator 21.1.0, SVG Export Plug-In . SVG Version: 6.00 Build 0)  -->
<svg version="1.1" id="Layer_1" xmlns="http://www.w3.org/2000/svg" xmlns:xlink="http://www.w3.org/1999/xlink" x="0px" y="0px"
	 viewBox="0 0 16 16" style="enable-background:new 0 0 16 16;" xml:space="preserve">
<style type="text/css">
	.st0{fill:#3d4852;}
</style>
<path class="st0" d="M10.7,9.1l-0.5,0.5L9.4,8.8c1.8-2.1,1.7-5.3-0.3-7.3C7-0.5,3.6-0.5,1.5,1.5s-2.1,5.5,0,7.6
	c1.1,1.1,2.4,1.6,3.8,1.6c1.3,0,2.5-0.4,3.5-1.3l0.8,0.8l-0.5,0.5l5.3,5.3l1.6-1.6L10.7,9.1z M2.1,8.6c-1.7-1.8-1.7-4.7,0-6.4
	c0.9-0.9,2-1.4,3.2-1.4c1.2,0,2.3,0.5,3.2,1.4c1.7,1.7,1.7,4.7,0,6.4C6.8,10.3,3.9,10.3,2.1,8.6z"/>
</svg>
