<svg xmlns="http://www.w3.org/2000/svg" width="16" height="16" fill="none" viewBox="0 0 16 16">
    <g clip-path="url(#clip0)">
        <path fill="#3D4852" d="M16.152 14.2l-4.3-4.3c.7-1 1.1-2.2 1.1-3.5 0-3.5-2.9-6.4-6.4-6.4-3.5 0-6.4 2.9-6.4 6.4 0 3.5 2.9 6.4 6.4 6.4 1.3 0 2.5-.4 3.5-1.1l4.3 4.3 1.8-1.8zm-14.2-7.8c0-2.5 2.1-4.6 4.6-4.6 2.5 0 4.6 2.1 4.6 4.6 0 2.5-2.1 4.6-4.6 4.6-2.5 0-4.6-2.1-4.6-4.6z"/>
    </g>
    <defs>
        <clipPath id="clip0">
            <path fill="#fff" d="M0 0H16V16H0z" transform="translate(.152)"/>
        </clipPath>
    </defs>
</svg>
