<svg xmlns="http://www.w3.org/2000/svg" viewBox="0 0 32 32"><defs><style>.a{fill:#025e7f;}</style></defs><title>icons</title><path class="a" d="M28.44,9.87V6.21A1.42,1.42,0,0,0,27.91,5,25.12,25.12,0,0,0,26,3.2a1.13,1.13,0,0,0-.79-.39H22.68v8c0,.79-.13.92-.79.92H10.51c-.79-.13-.92-.26-.92-.92v-8H5.8a1.73,1.73,0,0,0-2,2v22a1.73,1.73,0,0,0,2,2H26.48c.65,0,1.31,0,1.57-.52a2.64,2.64,0,0,0,.39-1.44C28.57,21.13,28.44,15.5,28.44,9.87ZM24.64,26.36H7.77c-.92,0-.92-.13-.92-1V14.72c0-.92.13-.92.92-.92h17c.79,0,.92.13.92.92V25.44C25.56,26.36,25.56,26.36,24.64,26.36Z"/><path class="a" d="M17.45,9.74c0,.39.13.52.52.52h2c.39,0,.52-.13.52-.52V4.38c0-.39-.13-.52-.52-.52H18c-.39,0-.52.13-.52.52Z"/></svg>