<?xml version="1.0" standalone="no"?>
<!DOCTYPE svg PUBLIC "-//W3C//DTD SVG 1.1//EN" "http://www.w3.org/Graphics/SVG/1.1/DTD/svg11.dtd" >
<svg xmlns="http://www.w3.org/2000/svg">
<metadata>Generated by IcoMoon</metadata>
<defs>
<font id="WebClientIco" horiz-adv-x="1024">
<font-face units-per-em="1024" ascent="960" descent="-64" />
<missing-glyph horiz-adv-x="1024" />
<glyph unicode="&#x20;" horiz-adv-x="512" d="" />
<glyph unicode="&#xe900;" glyph-name="chevron-down" d="M512 227.032c140.126 140.126 274.863 274.863 414.989 414.989 21.558-21.558 48.505-48.505 70.063-70.063-161.684-161.684-323.368-323.368-485.053-485.053-161.684 161.684-323.368 323.368-485.053 485.053 21.558 21.558 48.505 48.505 70.063 70.063 140.126-134.737 274.863-274.863 414.989-414.989z" />
<glyph unicode="&#xe901;" glyph-name="caret-down" d="M0 703.999l512-512 512 512z" />
<glyph unicode="&#xe902;" glyph-name="download" d="M90.353-64h843.294v120.471h-843.294v-120.471zM933.647 598.589h-240.941v361.412h-361.412v-361.412h-240.941l421.647-421.647 421.647 421.647z" />
<glyph unicode="&#xe903;" glyph-name="close" d="M1024 856.845l-103.155 103.155-408.845-408.845-408.845 408.845-103.155-103.155 408.845-408.845-408.845-408.845 103.155-103.155 408.845 408.845 408.845-408.845 103.155 103.155-408.845 408.845 408.845 408.845z" />
<glyph unicode="&#xe904;" glyph-name="link" d="M367.994 832v-115.203h379.587l-667.58-667.58 81.216-81.216 667.58 667.58v-379.587h115.203v575.996z" />
<glyph unicode="&#xe905;" glyph-name="maximize" d="M398.222-64v113.778h-204.231l256 256-80.213 80.213-256-256v204.231h-113.778v-398.222h398.222zM654.222 510.009l256 256v-204.231h113.778v398.222h-398.222v-113.778h204.231l-256-256 80.213-80.213z" />
<glyph unicode="&#xe906;" glyph-name="minimize" d="M942.976 960l-258.586-258.586v206.294h-114.927v-402.245h402.245v114.927h-206.294l258.586 258.586-81.024 81.024zM52.292 390.536v-114.927h206.294l-258.586-258.586 81.024-81.024 258.586 258.586v-206.294h114.927v402.245h-402.245z" />
<glyph unicode="&#xe907;" glyph-name="info" d="M614.773 896.008c-49.69 0-89.971-40.283-89.971-89.971s40.283-89.971 89.971-89.971v0c49.69 0 89.971 40.283 89.971 89.971s-40.283 89.971-89.971 89.971v0zM593.186 609.901c-71.391-6.014-266.291-161.364-266.291-161.364-12.029-9.022-8.482-8.404 1.158-25.211 9.636-16.19 8.404-17.347 19.815-9.561 11.951 7.71 31.765 20.354 64.762 40.783 127.21 81.57 20.43-106.777-34.155-424.031-21.586-157.278 119.963-76.247 156.507-52.272 36.004 23.436 132.606 89.971 142.167 96.602 13.182 9.022 3.625 16.19-6.554 31.226-7.246 10.175-14.418 3.007-14.418 3.007-39.011-25.829-110.402-79.794-119.963-45.64-11.411 34.23 61.755 268.759 101.92 430.119 6.63 38.315 24.672 122.353-44.948 116.338z" />
<glyph unicode="&#xe908;" glyph-name="angle" d="M471.075 956.664c1.78-0.346 4.695-0.346 6.475 0 1.78 0.341 0.323 0.623-3.238 0.623s-5.018-0.281-3.238-0.623zM487.651 956.138c5.458-3.245 0.069-4.216-23.362-4.216-23.535 0-24.221-0.083-23.492-2.878 0.724-2.767 0.044-2.878-17.401-2.878-9.987 0-18.081-0.486-17.987-1.079 0.651-4.116-0.593-4.677-10.329-4.677-7.084 0-9.856-0.482-9.166-1.601 1.787-2.896-2.652-3.953-12.965-3.094-9.127 0.759-9.969 0.616-8.292-1.418 2.525-3.062 0.961-3.734-9.554-4.112-6.173-0.223-8.498-0.788-7.472-1.813 2.892-2.892 1.402-3.791-6.291-3.791-7.068 0-7.709-0.263-7.026-2.878 0.687-2.626 0.044-2.878-7.328-2.878-6.227 0-8.083-0.496-8.083-2.158 0-1.896-9.084-3.295-14.858-2.292-0.651 0.111-0.77-0.471-0.259-1.296 0.507-0.823 1.529-1.123 2.267-0.669 0.734 0.457 1.338-0.18 1.338-1.414 0-2.043-5.943-3.18-12.465-2.382-0.982 0.122-1.37-0.957-0.936-2.612 0.623-2.385-0.111-2.885-4.803-3.27-4.241-0.349-5.493-1.047-5.339-2.975 0.162-2.062-1.010-2.522-6.475-2.539-4.393-0.014-5.993-0.454-4.684-1.284 2.241-1.421-1.993-4.45-6.217-4.45-1.238 0-2.253-0.971-2.253-2.158 0-3.011-3.961-2.712-4.762 0.36-0.625 2.4-0.666 2.4-0.828 0-0.090-1.386-1.137-2.518-2.324-2.518s-2.158-1.252-2.158-2.781c0-1.967-1.162-2.917-3.957-3.238-2.735-0.316-3.895-1.234-3.756-2.975 0.152-1.942-0.918-2.518-4.677-2.518-3.738 0-4.878-0.604-4.878-2.59 0-2.112-0.927-2.479-5.036-2-4.349 0.507-5.036 0.176-5.036-2.447 0-1.82-0.92-3.037-2.292-3.037-1.263 0-2.633-1.296-3.047-2.878-0.533-2.040-1.965-2.878-4.903-2.878-2.281 0-4.148-0.687-4.148-1.525s-0.648-1.123-1.439-0.634c-0.791 0.489-1.439-0.118-1.439-1.353s-0.971-2.244-2.158-2.244c-1.197 0-2.158-1.28-2.158-2.878 0-1.917-0.961-2.878-2.878-2.878-1.598 0-2.878-0.961-2.878-2.158 0-1.575-1.63-2.158-6.044-2.158-4.702 0-5.659-0.385-4.317-1.727 2.684-2.684 2.057-4.029-1.87-4.029-2.636 0-3.597-0.766-3.597-2.878 0-1.917-0.961-2.878-2.878-2.878s-2.878-0.961-2.878-2.878c0-1.582-0.895-2.878-1.99-2.878-1.098 0-2.331-1.296-2.744-2.878s-1.785-2.878-3.047-2.878c-1.259 0-2.292-0.971-2.292-2.158 0-1.197-1.28-2.158-2.878-2.158-1.917 0-2.878-0.961-2.878-2.878s-0.961-2.878-2.878-2.878c-1.917 0-2.878-0.961-2.878-2.878s-0.961-2.878-2.878-2.878c-1.598 0-2.878-0.961-2.878-2.158 0-1.187-0.971-2.158-2.158-2.158-1.197 0-2.158-1.28-2.158-2.878 0-1.672-0.961-2.878-2.292-2.878-1.263 0-2.633-1.296-3.047-2.878-0.417-1.594-1.965-2.878-3.464-2.878-1.748 0-2.709-1.017-2.709-2.878 0-1.903-0.961-2.878-2.832-2.878-1.928 0-2.569-0.691-2.007-2.158 0.741-1.932-0.888-2.846-4.155-2.327-0.593 0.094-1.079-1.126-1.079-2.709 0-1.917-0.961-2.878-2.878-2.878s-2.878-0.961-2.878-2.878c0-2.576-1.497-3.551-4.677-3.047-0.593 0.094-1.079-1.861-1.079-4.342 0-4.338-5.368-11.318-8.71-11.318-0.748 0-1.363-1.22-1.363-2.709 0-1.501-1.284-3.047-2.878-3.464-2.097-0.547-2.878-1.965-2.878-5.205 0-3.489-0.618-4.45-2.878-4.45-2.13 0-2.878-0.961-2.878-3.694 0-3.115-0.482-3.544-3.069-2.719-2.857 0.906-3 0.611-2.073-4.331 0.863-4.594 0.597-5.41-1.967-6.083-1.63-0.424-2.964-1.669-2.964-2.767 0-1.093-1.335-1.99-2.968-1.99-1.965 0-2.882-0.853-2.712-2.518 0.795-7.836-0.053-10.634-2.954-9.713-2.511 0.798-2.878 0.259-2.878-4.22 0-4.174-0.54-5.133-2.878-5.133-2.41 0-2.878-0.961-2.878-5.91 0-4.663-0.457-5.735-2.158-5.080-1.695 0.648-2.158-0.399-2.158-4.885 0-4.748-0.482-5.71-2.878-5.71-2.4 0-2.878-0.961-2.878-5.756s-0.478-5.756-2.878-5.756c-2.4 0-2.878-0.961-2.878-5.756 0-4.91-0.45-5.756-3.058-5.756-2.626 0-2.936-0.604-2.198-4.303 1.036-5.184-0.090-8.648-2.813-8.648-1.446 0-2.004-2.004-2.004-7.195 0-6.234-0.385-7.195-2.878-7.195-2.536 0-2.878-0.961-2.878-8.083 0-7.371-0.252-8.016-2.878-7.328-2.67 0.698-2.878 0.044-2.878-9.102 0-9.303-0.173-9.824-3.083-9.263-2.961 0.572-3.054 0.212-2.331-9.077 0.853-11.005 0.341-13.44-2.594-12.314-1.691 0.651-2.064-1.349-2.064-11.041 0-11.055-0.187-11.786-2.827-11.094-1.557 0.406-2.774 0.32-2.709-0.191 1.047-8.037-0.533-36.449-1.946-35.036-0.95 0.95-2.244 1.727-2.878 1.727s-1.151-28.535-1.151-63.412c0-62.757 0.028-63.401 2.878-62.499 2.784 0.885 2.882 0.233 2.993-19.689 0.062-11.332 0.438-19.793 0.838-18.804 2.366 5.871 4.803 1.31 4.803-8.994 0-8.634 0.431-10.792 2.158-10.792 2.558 0 2.677-0.708 2.223-13.214-0.334-9.134-0.201-9.577 2.67-8.825 2.864 0.748 3.021 0.245 3.021-9.554 0-9.854 0.118-10.225 2.518-7.813 2.4 2.407 2.539 2.115 2.943-6.224 0.381-7.875 0.705-8.673 3.238-8.011 2.546 0.666 2.813-0.037 2.813-7.411 0-6.957 0.367-8.083 2.518-7.723 2.147 0.364 2.461-0.579 2.115-6.425-0.223-3.766 0.101-6.766 0.719-6.667 3.835 0.634 4.72-0.593 4.72-6.547 0-5.62 0.349-6.324 2.878-5.839 2.486 0.478 2.878-0.219 2.878-5.119 0-3.12 0.486-5.597 1.079-5.504 3.715 0.59 4.677-0.625 4.677-5.925 0-4.91 0.45-5.756 3.058-5.756 2.652 0 2.94-0.593 2.165-4.453-0.731-3.655-0.374-4.587 1.979-5.205 2.82-0.738 3.5-3.169 2.899-10.331-0.223-2.687 0.242-3.238 2.133-2.511 1.676 0.644 2.652 0.044 3.176-1.953 0.417-1.601 1.96-2.885 3.464-2.885 2.119 0 2.709-1.061 2.709-4.868 0-3.752 0.701-5.055 3.054-5.67 2.633-0.687 2.947-1.554 2.262-6.281-0.436-3.018-0.468-4.353-0.072-2.968s1.644 2.518 2.774 2.518c2.507 0 2.645-1.713 0.327-4.029-1.342-1.342-1.342-1.727 0-1.727 0.95 0 1.727-0.971 1.727-2.158 0-1.197 1.28-2.158 2.878-2.158 1.917 0 2.878-0.961 2.878-2.878s0.961-2.878 2.878-2.878c2.043 0 2.878-0.961 2.878-3.309 0-1.82 0.809-4.181 1.799-5.249 1.439-1.55 1.439-1.734 0-0.92-0.989 0.558-1.799 0.332-1.799-0.507s0.971-1.525 2.158-1.525c1.187 0 2.158-0.971 2.158-2.158 0-1.197 1.28-2.158 2.878-2.158 1.917 0 2.878-0.961 2.878-2.878s0.961-2.878 2.878-2.878c1.917 0 2.878-0.961 2.878-2.878 0-1.946 0.961-2.878 2.968-2.878 1.965 0 2.882-0.853 2.712-2.518-0.533-5.253 0.148-7.555 2.234-7.555 1.187 0 2.158-0.971 2.158-2.158 0-1.197 1.28-2.158 2.878-2.158 2.13 0 2.878-0.961 2.878-3.683 0-2.025 0.63-3.291 1.4-2.816 0.77 0.478 2.532-0.457 3.918-2.073s3.346-2.94 4.356-2.94c1.010 0 1.838-1.296 1.838-2.878 0-1.917 0.961-2.878 2.878-2.878 1.582 0 2.802-0.486 2.709-1.079-0.471-2.968 0.381-4.677 2.327-4.677 1.187 0 2.158-0.971 2.158-2.158 0-1.197 1.28-2.158 2.878-2.158 1.917 0 2.878-0.961 2.878-2.878s0.961-2.878 2.878-2.878c1.917 0 2.878-0.961 2.878-2.878 0-1.972 0.961-2.878 3.047-2.878 2.334 0 2.871-0.669 2.292-2.878-0.547-2.087-0.044-2.878 1.824-2.878 1.418 0 2.914-1.296 3.328-2.878 0.547-2.097 1.965-2.878 5.205-2.878 4.026 0 4.464-0.443 4.615-4.677 0.094-2.572 0.464-3.544 0.828-2.158 0.895 3.432 4.857 3.187 5.784-0.36 0.413-1.582 1.647-2.878 2.744-2.878 1.093 0 1.99-1.296 1.99-2.878 0-1.917 0.961-2.878 2.878-2.878 1.939 0 2.878-0.961 2.878-2.943 0-2.594 0.608-2.832 5.126-1.983 4.432 0.831 5.23 0.551 5.922-2.094 0.438-1.681 1.695-3.054 2.792-3.054 1.093 0 1.99-1.296 1.99-2.878 0-2.331 0.961-2.878 5.036-2.878 3.687 0 5.036-0.625 5.036-2.334 0-1.91-0.392-2.011-2.158-0.544-1.771 1.471-2.158 1.363-2.158-0.597 0-1.601 1.068-2.299 3.238-2.112 7.019 0.604 8.641-0.051 7.829-3.155-0.719-2.756-0.346-2.914 4.871-2.032 5.073 0.856 5.648 0.648 5.648-2.050 0-1.713 0.927-3.004 2.158-3.004 1.187 0 2.158-0.904 2.158-2.004 0-2.518 3.134-3.752 9.522-3.752 4.522 0 4.831-0.259 3.429-2.878-1.421-2.659-1.093-2.878 4.266-2.878 4.965 0 5.807-0.443 5.807-3.065 0-2.647 0.641-2.968 4.677-2.352 5.91 0.904 8.332 0.046 7.321-2.59-0.611-1.594 0.593-2.064 5.285-2.064 5.368 0 5.989-0.334 5.325-2.878-0.676-2.59-0.044-2.878 6.371-2.878 5.986 0 7.054-0.403 6.702-2.518-0.349-2.062 0.831-2.597 6.482-2.961 6.224-0.396 6.814-0.731 5.968-3.392-0.888-2.799-0.551-2.899 6.501-1.928 6.785 0.932 7.508 0.759 8.228-2.004 0.68-2.594 1.877-3.026 8.403-3.026 6.904 0 7.543-0.266 6.86-2.878-0.691-2.647-0.044-2.878 8.048-2.878 8.899 0 10.271-0.809 7.004-4.133-0.989-1.003-1.151-1.705-0.36-1.554 11.687 2.22 29.111-1.72 21.944-4.958-0.989-0.45 3.058-0.738 8.994-0.641 14.005 0.223 14.39 0.159 14.39-2.385 0-1.813 3.108-2.158 19.343-2.158 18.57 0 19.322-0.115 18.79-2.878-0.759-3.936 557.393-4.623 566.782-0.701l5.212 2.18v264.081c0 263.64-0.004 264.081-2.878 262.545-2.825-1.511-2.878-1.093-2.878 22.387 0 22.717-0.143 23.967-2.878 24.682-2.673 0.698-2.878 1.965-2.878 17.692 0 15.25-0.252 16.922-2.518 16.742-2.234-0.18-2.465 1.040-2.032 10.85 0.464 10.598 0.36 11.016-2.518 10.264s-3.004-0.252-3.004 11.789c0 11.106-0.256 12.365-2.195 10.756-3-2.493-3.339-1.817-3.713 7.418-0.284 7.015-0.662 7.958-2.964 7.357-2.331-0.611-2.64 0.263-2.64 7.476 0 5.627-0.496 7.861-1.601 7.177-2.572-1.591-4.133 2.539-3.194 8.458 0.759 4.762 0.471 5.583-2.202 6.284-2.615 0.683-3.094 1.907-3.191 8.191-0.062 4.061-0.438 6.577-0.838 5.587-1.831-4.536-4.803-1.644-4.803 4.677 0 5.514-0.429 6.475-2.878 6.475-2.385 0-2.878 0.961-2.878 5.597 0 4.446-0.519 5.555-2.518 5.396-2.163-0.173-2.461 0.918-2.108 7.713 0.32 6.213 0.069 7.368-1.169 5.368-2.17-3.508-4.278-1.773-4.278 3.519 0 3.692-0.464 4.28-2.878 3.648-2.389-0.625-2.878-0.044-2.878 3.429 0 3.224-0.662 4.183-2.878 4.183-2.385 0-2.878 0.961-2.878 5.597 0 4.446-0.519 5.555-2.518 5.396-2.080-0.166-2.44 0.802-2.064 5.555 0.367 4.633 0.101 5.407-1.367 3.957-2.899-2.864-4.123-2.119-4.123 2.518 0 3.356-0.641 4.317-2.878 4.317-2.345 0-2.878 0.961-2.878 5.17 0 3.961-0.673 5.35-2.878 5.925-1.582 0.413-2.878 1.647-2.878 2.744 0 1.093-1.296 1.99-2.878 1.99-1.917 0-2.878 0.961-2.878 2.878 0 1.598-0.961 2.878-2.158 2.878-1.55 0-2.158 1.582-2.158 5.622 0 4.91-0.364 5.525-2.878 4.868-2.209-0.579-2.878-0.044-2.878 2.292 0 2.087-0.906 3.047-2.878 3.047-1.672 0-2.878 0.961-2.878 2.292 0 1.263-1.296 2.633-2.878 3.047-1.594 0.417-2.878 1.965-2.878 3.464 0 1.49-0.971 2.709-2.158 2.709-1.508 0-2.158 1.518-2.158 5.036 0 3.881-0.579 5.011-2.518 4.921-1.504-0.065-1.795-0.403-0.719-0.838 0.989-0.399 1.799-1.623 1.799-2.719 0-1.18-0.881-1.655-2.158-1.165-1.331 0.512-2.158 2.698-2.158 5.712 0 3.921-0.565 4.882-2.878 4.882-1.917 0-2.878 0.961-2.878 2.878 0 1.582-0.719 2.878-1.598 2.878-2.209 0-8.422 6.079-8.45 8.274-0.014 0.989-1.321 1.799-2.903 1.799-1.917 0-2.878 0.961-2.878 2.878s-0.961 2.878-2.878 2.878c-1.917 0-2.878 0.961-2.878 2.878 0 1.582-0.895 2.878-1.99 2.878-1.098 0-2.352 1.374-2.792 3.054-0.691 2.645-1.49 2.924-5.922 2.094-4.518-0.849-5.126-0.611-5.126 1.983 0 1.921-0.939 2.943-2.709 2.943-1.501 0-3.047 1.284-3.464 2.878-0.413 1.582-1.785 2.878-3.047 2.878-1.331 0-2.292 1.206-2.292 2.878 0 1.863-0.961 2.878-2.723 2.878-3.159 0-5.131 3.752-2.594 4.925 0.946 0.438-1.033 0.422-4.396-0.032-5.507-0.745-6.116-0.528-6.116 2.177 0 2.043-0.918 3.004-2.878 3.004-1.861 0-2.878 0.961-2.878 2.709 0 1.504-1.284 3.047-2.885 3.464-1.986 0.521-2.597 1.504-1.96 3.155 0.604 1.575 0.233 2.302-1.075 2.122-5.511-0.77-9.907 0.212-9.907 2.22 0 1.187-0.648 2.237-1.439 2.338s-2.087 0.341-2.878 0.54c-0.791 0.198-2.165 0.443-3.054 0.54-1.13 0.126-1.079 0.828 0.176 2.338 1.543 1.861 0.957 2.158-4.238 2.158-5.375 0-5.929 0.313-5.115 2.878 0.791 2.497 0.259 2.878-4.051 2.878-3.756 0-5.152 0.701-5.719 2.878-0.496 1.903-1.965 2.878-4.331 2.878-4.202 0-6.321 3.789-2.726 4.871 1.342 0.403-0.313 0.388-3.676-0.037-5.49-0.691-6.116-0.464-6.116 2.234 0 2.601-0.867 3.004-6.475 3.004-5.514 0-6.475 0.429-6.475 2.878 0 2.331-0.961 2.878-5.036 2.878s-5.036 0.547-5.036 2.878c0 2.456-0.961 2.878-6.572 2.878-5.929 0-6.482 0.284-5.655 2.892 0.781 2.461 0.309 2.86-3.141 2.677-7.101-0.381-9.095 0.133-9.095 2.345 0 1.658-1.849 2.158-8.011 2.158-7.357 0-7.935 0.233-7.098 2.878s0.259 2.878-7.195 2.878c-7.453 0-8.032 0.233-7.195 2.878 0.846 2.659 0.259 2.878-7.735 2.878-8.066 0-8.609 0.208-8.055 3.083 0.572 2.961 0.233 3.047-8.735 2.209-10.933-1.017-14.505-0.191-12.030 2.792 1.381 1.665-0.226 1.99-9.882 1.99-10.908 0-16.966 2.565-11.404 4.831 0.946 0.381-6.558 0.748-16.678 0.809-17.937 0.111-18.358 0.187-16.857 2.993 1.515 2.827 1.093 2.878-24.412 2.878-26.103 0-28.053 0.306-23.437 3.68 2.076 1.518-2.262 1.856-24.822 1.942-19.747 0.079-26.628-0.313-24.79-1.407zM545.902 956.664c1.78-0.346 4.695-0.346 6.475 0 1.78 0.341 0.323 0.623-3.238 0.623s-5.018-0.281-3.238-0.623zM855.642 825.378c0-1.698-2.806-3.515-3.839-2.486-1.029 1.033 0.788 3.839 2.486 3.839 0.745 0 1.353-0.608 1.353-1.353zM0 444.682c0-9.497 0.233-13.195 0.519-8.217 0.281 4.975 0.277 12.746-0.007 17.268-0.284 4.518-0.514 0.445-0.512-9.051zM992.244 418.899c2.514-3.026-3.217-80.248-6.572-88.615-0.475-1.187-1.723-6.044-2.774-10.792-5.698-25.75-8-34.514-11.235-42.734-1.96-4.986-4.22-11.336-5.022-14.106-2.723-9.39-6.047-17.955-10.896-28.060-12.432-25.897-16.772-34.245-21.557-41.449-2.839-4.278-5.159-8.134-5.159-8.576 0-2.248-18.253-28.535-26.056-37.524-2.853-3.291-5.443-6.741-5.756-7.666-1.402-4.19-37.36-41.604-55.322-57.566-20.185-17.944-49.437-39.445-66.117-48.605-1.582-0.871-5.468-3.233-8.634-5.253-14.221-9.072-52.037-26.607-73.748-34.194-4.979-1.737-10.894-3.814-19.066-6.692-4.817-1.698-7.446-2.403-23.743-6.385-3.957-0.968-10.624-2.716-14.814-3.886s-13.257-2.719-20.146-3.446c-6.889-0.724-14.793-2.022-17.563-2.878-7.836-2.432-53.408-3.59-57.386-1.464-3.058 1.637-3.219 2.442-2.583 12.792 1.173 19.085 5.018 54.024 6.454 58.652 0.756 2.44 1.852 8.59 2.44 13.67 0.59 5.076 1.716 10.85 2.504 12.829 0.791 1.979 2.288 7.483 3.323 12.231 3.796 17.358 8.638 32.978 13.861 44.703 1.435 3.219 2.608 6.889 2.608 8.159s0.946 4.141 2.105 6.381c1.158 2.237 6.054 12.49 10.878 22.779s9.381 19.678 10.126 20.865c0.748 1.187 1.993 3.454 2.77 5.036s3.026 5.468 4.997 8.634c1.972 3.166 4.658 7.698 5.975 10.073 4.547 8.217 12.695 20.15 14.542 21.297 1.017 0.634 1.849 1.766 1.849 2.518s1.133 2.612 2.518 4.133c1.386 1.522 5.108 6.436 8.274 10.919 17.127 24.257 53.325 60.873 78.92 79.835 3.288 2.435 10.195 7.55 15.351 11.364 17.070 12.635 48.277 30.643 74.809 43.174 14.901 7.036 20.409 9.268 35.974 14.563 4.353 1.483 11.8 4.072 16.548 5.756s12.519 3.978 17.268 5.098c4.748 1.119 14.138 3.328 20.865 4.91 33.535 7.886 95.602 13.846 99.188 9.522z" />
<glyph unicode="&#xe909;" glyph-name="bin" d="M910.199 903.078h-199.014l-56.922 56.922h-284.525l-56.837-56.837h-199.185v-113.844h796.568v113.844zM170.638 49.673c0.048-62.791 50.962-113.673 113.759-113.673h455.206c62.828 0 113.759 50.931 113.759 113.759v682.724h-682.724v-682.724z" />
<glyph unicode="&#xe90a;" glyph-name="parameterized" d="M439.088 416h-261.268l297.722 480h370.634l-334.176-370.634h297.722l-595.443-589.366z" />
<glyph unicode="&#xe90b;" glyph-name="filter" d="M85.375 960.001h853.252v-97.904h-3.804l-328.039-338.961v-587.135l-189.569 195.907v391.813l-327.649 338.376h-4.193v97.904z" />
<glyph unicode="&#xe90c;" glyph-name="followup" d="M833.191 711.077v-19.271c0-128.476 0-256.953 0-385.429 0-32.119-6.424-25.695 25.695-25.695 38.543 0 77.086 0 115.629 0 0-6.424-6.424-6.424-6.424-12.848-109.205-109.205-211.986-211.986-321.191-321.191-6.424-12.848-12.848-12.848-19.271-6.424-109.205 109.205-211.986 218.41-321.191 321.191 0 0 0 6.424-6.424 6.424h141.324v443.243h391.853zM120.147 556.906v12.848c0 64.238 0 134.9 0 199.138 0 12.848 0 12.848-12.848 12.848-19.271 0-38.543 0-57.814 0 0 0 0 6.424 6.424 6.424 51.391 57.814 109.205 109.205 160.595 167.019 6.424 6.424 6.424 6.424 12.848 0 57.814-57.814 115.629-109.205 167.019-167.019 0 0 0 0 6.424-6.424h-77.086v-224.834h-205.562z" />
<glyph unicode="&#xe90d;" glyph-name="list" d="M96 864h832v-138.658h-832v138.658zM96 517.343h832v-138.71h-832v138.71zM96 170.658h832v-138.658h-832v138.658z" />
<glyph unicode="&#xe90e;" glyph-name="chart" d="M1024-12.8h-1024v921.601h102.399v-819.203h102.399v460.801h204.797v-460.801h102.399v665.598h204.797v-665.598h102.399v256.003h204.797v-358.402z" />
<glyph unicode="&#xe90f;" glyph-name="pivot" d="M40 920h944v-944h-944v944zM459.558 80.885v314.672h-314.672v-314.672h314.672zM144.885 500.442h314.672v314.672h-314.672v-314.672zM879.115 80.885v314.672h-314.672v-314.672h314.672zM564.442 500.442h314.672v314.672h-314.672v-314.672z" />
<glyph unicode="&#xe910;" glyph-name="private" d="M512 848c125.922 0 228-102.078 228-228s-102.078-228-228-228v0c-125.922 0-228 102.078-228 228s102.078 228 228 228v0zM512 278c251.94 0 456-102.030 456-228v-114h-912v114c0 125.97 204.060 228 456 228z" />
<glyph unicode="&#xe911;" glyph-name="public" d="M780.229 690.348c61.298 0 110.303 61.298 110.303 134.847s-15.304 134.805-110.303 134.805-110.303-61.298-110.303-134.805 49.005-134.847 110.303-134.847zM841.527 678.097c-14.101-15.185-34.176-24.654-56.461-24.654-1.701 0-3.391 0.055-5.065 0.163l0.229-0.012c-1.446-0.097-3.135-0.152-4.837-0.152-22.286 0-42.359 9.471-56.416 24.606l-0.044 0.048c-125.439-21.45-144.004-58.204-147.056-183.977v-21.45s30.649-61.298 208.354-61.298 208.354 61.298 208.354 61.298v18.398c-3.052 128.826-18.23 165.579-147.056 187.029zM376.608 392.598c100.351 0 180.632 100.351 180.632 220.773s-25.088 220.773-180.632 220.773-180.632-100.351-180.632-220.773 80.281-220.773 180.632-220.773zM476.96 372.527c-23.081-24.873-55.95-40.389-92.441-40.389-2.783 0-5.545 0.090-8.283 0.268l0.372-0.020c-2.365-0.158-5.127-0.248-7.91-0.248-36.492 0-69.36 15.515-92.367 40.309l-0.073 0.080c-205.72-35.123-235.825-95.334-240.843-301.053v-35.123s50.176-100.351 341.194-100.351 341.194 100.351 341.194 100.351v30.105c-5.018 210.737-30.105 270.948-240.843 306.071z" />
<glyph unicode="&#xe912;" glyph-name="validated" d="M1011.677 664.694l12.323 12.323-103.18 103.11-12.323-12.253-577.514-577.027-227.803 227.246-12.323-12.253-90.857-90.857 330.983-330.983 680.694 680.694z" />
<glyph unicode="&#xe913;" glyph-name="plus" d="M435.677 960v-432.497h-432.497v-159.006h432.497v-432.497h159.006v432.497h426.137v159.006h-432.497v432.497h-152.646z" />
<glyph unicode="&#xe914;" glyph-name="star-active" d="M512 152.576l316.416-190.976-83.968 359.936 279.552 242.176-368.128 31.744-143.872 338.944-143.872-338.944-368.128-31.744 279.040-242.176-83.456-359.936 316.416 190.976z" />
<glyph unicode="&#xe915;" glyph-name="star-inactive" d="M206.874-39.816c-3.794 0-7.588 1.173-10.778 3.501-5.645 4.106-8.468 11.053-7.277 17.926l56.656 330.253-239.946 233.861c-4.986 4.876-6.782 12.152-4.637 18.769 2.163 6.635 7.9 11.474 14.81 12.482l331.573 48.188 148.301 300.469c3.079 6.269 9.458 10.228 16.423 10.228v0c6.983 0 13.362-3.959 16.423-10.228l148.283-300.469 331.591-48.188c6.91-1.008 12.629-5.829 14.81-12.482 2.145-6.617 0.367-13.912-4.637-18.769l-239.946-233.898 56.637-330.235c1.173-6.873-1.65-13.82-7.277-17.926-5.645-4.142-13.142-4.674-19.319-1.393l-296.565 155.908-296.602-155.908c-2.676-1.393-5.609-2.090-8.523-2.090zM57.712 546.055l220.242-214.688c4.307-4.197 6.287-10.283 5.26-16.221l-52-303.127 272.261 143.114c5.334 2.823 11.694 2.823 17.065 0l272.224-143.114-51.982 303.127c-1.026 5.939 0.953 12.006 5.26 16.221l220.242 214.688-304.355 44.228c-5.975 0.861-11.126 4.619-13.802 10.026l-136.13 275.78-136.13-275.798c-2.676-5.407-7.827-9.165-13.802-10.026l-304.355-44.21z" />
<glyph unicode="&#xe916;" glyph-name="meatballs" d="M640 448c0-70.692-57.308-128-128-128s-128 57.308-128 128c0 70.692 57.308 128 128 128s128-57.308 128-128zM1024 448c0-70.692-57.308-128-128-128s-128 57.308-128 128c0 70.692 57.308 128 128 128s128-57.308 128-128zM256 448c0-70.692-57.308-128-128-128s-128 57.308-128 128c0 70.692 57.308 128 128 128s128-57.308 128-128z" />
<glyph unicode="&#xe917;" glyph-name="pencil" horiz-adv-x="928" d="M912.948 703.636c9.301 9.298 15.055 22.144 15.055 36.334s-5.754 27.036-15.055 36.334l-120.644 120.644c-9.298 9.301-22.144 15.055-36.334 15.055s-27.036-5.754-36.334-15.055v0l-94.875-94.295 193.312-193.312 94.875 94.295zM-0.003 177.31v-193.312h193.312l570.076 570.656-193.229 193.312-570.159-570.656z" />
<glyph unicode="&#xe918;" glyph-name="hamburger" d="M0 789.333h1024v-113.778h-1024v113.778zM0 504.889h1024v-113.778h-1024v113.778zM0 220.444h1024v-113.778h-1024v113.778z" />
<glyph unicode="&#xe919;" glyph-name="gear" horiz-adv-x="928" d="M818.501 401.255c1.908 15.264 3.339 30.528 3.339 46.746s-1.431 31.482-3.339 46.746l100.648 78.706c5.42 4.451 8.853 11.154 8.853 18.657 0 4.364-1.161 8.458-3.19 11.988l0.061-0.117-95.401 165.043c-4.22 7.218-11.934 11.99-20.761 11.99-2.994 0-5.858-0.548-8.5-1.55l0.164 0.054-118.774-47.7c-23.265 18.193-49.828 33.88-78.322 45.889l-2.292 0.857-18.126 126.406c-1.636 11.385-11.321 20.036-23.030 20.036-0.121 0-0.24 0-0.361-0.002h-190.783c-0.102 0.002-0.222 0.002-0.343 0.002-11.707 0-21.394-8.653-23.015-19.911l-0.015-0.125-18.126-126.406c-29.097-11.925-55.809-28.143-80.614-46.746l-118.774 47.7c-2.562 1.058-5.538 1.671-8.657 1.671-8.78 0-16.421-4.865-20.379-12.046l-0.061-0.119-95.401-165.043c-2.076-3.434-3.305-7.582-3.305-12.016 0-7.496 3.51-14.172 8.979-18.475l0.050-0.039 100.648-78.706c-1.908-15.264-3.339-31.005-3.339-46.746s1.431-31.482 3.339-46.746l-100.648-78.706c-5.42-4.451-8.853-11.154-8.853-18.657 0-4.364 1.161-8.458 3.19-11.988l-0.061 0.117 95.401-165.043c5.724-10.494 18.603-14.31 29.097-10.494l118.774 47.7c24.804-19.080 51.516-34.821 80.614-46.746l18.126-126.406c1.636-11.385 11.321-20.036 23.030-20.036 0.121 0 0.24 0 0.361 0.002h190.783c0.102-0.002 0.222-0.002 0.343-0.002 11.707 0 21.394 8.653 23.015 19.911l0.015 0.125 18.126 126.406c29.097 11.925 55.809 28.143 80.614 46.746l118.774-47.7c2.562-1.058 5.538-1.671 8.657-1.671 8.78 0 16.421 4.865 20.379 12.046l0.061 0.119 95.401 165.043c1.968 3.414 3.128 7.507 3.128 11.871 0 7.503-3.43 14.206-8.81 18.624l-100.691 78.739zM464.088 281.051c-92.164 0.102-166.849 74.787-166.951 166.942v0.009c0 92.062 74.89 166.951 166.951 166.951s166.951-74.89 166.951-166.951c0-92.062-74.89-166.951-166.951-166.951z" />
<glyph unicode="&#xe91a;" glyph-name="setting" horiz-adv-x="928" d="M103.109 912.003v-464.003h-103.112v-103.112h103.112v-360.891h103.112v360.891h103.112v103.112h-103.112v464.003h-103.112zM412.444 912.003v-257.779h-103.112v-103.112h103.112v-567.114h103.112v567.114h103.112v103.112h-103.112v257.779h-103.112zM721.779 912.003v-567.114h-103.112v-103.112h103.112v-257.779h103.112v257.779h103.112v103.112h-103.112v567.114z" />
<glyph unicode="&#xe91b;" glyph-name="undo" horiz-adv-x="819" d="M409.5 767.922v179.156l-255.938-255.938 255.938-255.938v230.344c168.919 0 307.125-138.206 307.125-307.125s-138.206-307.125-307.125-307.125c-168.919 0-307.125 138.206-307.125 307.125h-102.375c0-225.225 184.275-409.5 409.5-409.5s409.5 184.275 409.5 409.5c0 225.225-184.275 409.5-409.5 409.5v0z" />
<glyph unicode="&#xe91c;" glyph-name="add-filter" horiz-adv-x="1210" d="M1210.010 188.726h-235.734v-235.734h-78.541v235.734h-235.734v78.541h235.734v235.734h78.541v-235.734h235.734v-78.541zM-0.010 943.008h770.012v-94.601h-3.41l-296.015-327.805v-567.609l-171.162 189.424v378.736l-295.574 327.145h-3.85v94.711z" />
<glyph unicode="&#xe91d;" glyph-name="bin-empty" d="M683.6 219.2h228.8v-114.4h-228.8v114.4zM683.6 676.8h400.4v-114.4h-400.4v114.4zM683.6 448h343.2v-114.4h-343.2v114.4zM-2.8 104.8c0-63.184 51.216-114.4 114.4-114.4v0h343.2c63.184 0 114.4 51.216 114.4 114.4v572h-572v-572zM626.4 848.4h-171.6l-57.2 57.2h-228.8l-57.2-57.2h-171.6v-114.4h686.4v114.4z" />
<glyph unicode="&#xe91e;" glyph-name="select-invert" horiz-adv-x="1022" d="M0.173 814.386v-145.615h291.229v291.229h-291.229v-145.615zM439.366 814.386v-145.615h582.46v291.229h-582.46v-145.615zM0.173 448.001v-145.615h291.229v291.229h-291.229v-145.615zM439.366 448.001v-145.615h582.46v291.229h-582.46v-145.615zM0.173 81.616v-145.615h291.229v291.229h-291.229v-145.615zM218.595 82.79v-73.982h-145.615v147.963h145.615v-73.982zM439.366 81.616v-145.615h582.46v291.229h-582.46v-145.615z" />
<glyph unicode="&#xe91f;" glyph-name="select-all" horiz-adv-x="1022" d="M0 814.385v-145.615h291.229v291.229h-291.229v-145.615zM439.193 814.385v-145.615h582.459v291.229h-582.459v-145.615zM0 448v-145.615h291.229v291.229h-291.229v-145.615zM439.193 448v-145.615h582.459v291.229h-582.459v-145.615zM0 81.615v-145.615h291.229v291.229h-291.229v-145.615zM439.193 81.615v-145.615h582.459v291.229h-582.459v-145.615z" />
<glyph unicode="&#xe920;" glyph-name="select-none" horiz-adv-x="1022" d="M0 814.385v-145.615h291.229v291.229h-291.229v-145.615zM218.422 813.211v-73.982h-145.615v147.963h145.615v-73.982zM439.193 814.385v-145.615h582.459v291.229h-582.459v-145.615zM0 448v-145.615h291.229v291.229h-291.229v-145.615zM218.422 448v-72.807h-145.615v145.615h145.615v-72.807zM439.193 448v-145.615h582.459v291.229h-582.459v-145.615zM0 81.615v-145.615h291.229v291.229h-291.229v-145.615zM218.422 82.789v-73.982h-145.615v147.963h145.615v-73.982zM439.193 81.615v-145.615h582.459v291.229h-582.459v-145.615z" />
<glyph unicode="&#xe921;" glyph-name="displays" d="M910.222 960h-796.444c-62.578 0-113.778-51.2-113.778-113.778v-796.444c0-62.578 51.2-113.778 113.778-113.778h796.444c62.578 0 113.778 51.2 113.778 113.778v796.444c0 62.578-51.2 113.778-113.778 113.778zM910.222 49.778h-796.444v796.444h796.444v-796.444zM341.333 561.778h-113.778v-398.222h113.778v398.222zM455.111 732.444h113.778v-568.889h-113.778v568.889zM796.444 391.111h-113.778v-227.556h113.778v227.556z" />
<glyph unicode="&#xe922;" glyph-name="format" d="M0 328.339h219.429v93.038h-219.429v-93.038zM0 886.857v-93.111h658.286v93.111h-658.286zM0 561.005h438.857v93.111h-438.857v-93.111zM334.409 9.143l291.986 689.664h106.131l291.474-689.664h-119.443l-59.466 147.749h-331.776l-59.466-147.749h-119.443zM679.424 567.223l-126.318-311.808h252.709l-126.391 311.808z" />
<glyph unicode="&#xe923;" glyph-name="sort-no" d="M424.619 397.822v100.351h399.616v-100.351h-399.616zM424.619 96.597v100.522h199.765v-100.437h-199.765zM424.619 699.049v100.266h599.382v-100.437h-599.382zM224.768 197.034h124.927l-174.933-175.701-174.762 175.701h124.842v501.846h-124.842l174.847 175.786 174.847-175.701h-124.927v-501.93z" />
<glyph unicode="&#xe924;" glyph-name="sort-desc" d="M424.618 409.174v103.509h399.616v-103.509h-399.616zM424.618 98.902v103.423h199.765v-103.423h-199.765zM424.618 719.53v103.423h599.382v-103.423h-599.382zM224.767 202.411h124.927l-174.933-181.077-174.762 180.991h124.842v672.342h99.925v-672.342z" />
<glyph unicode="&#xe925;" glyph-name="sort-asc" d="M424.618 486.827v-103.509h399.616v103.509h-399.616zM424.618 797.099v-103.423h199.765v103.338h-199.765zM424.618 176.471v-103.423h599.382v103.423h-599.382zM224.767 693.59h124.927l-174.933 181.077-174.762-180.991h124.842v-672.342h99.925v672.342z" />
<glyph unicode="&#xe926;" glyph-name="reference" horiz-adv-x="928" d="M57.997 529.758h206.234v-530.294h-206.234v530.294zM418.899 476.737h206.203v-477.273h-206.203v477.273zM779.77 741.869h206.234v-742.405h-206.234v742.405zM545.201 896.536v-99.822h-487.203v-113.928h487.203v-95.585l162.401 152.534-162.401 156.802z" />
<glyph unicode="&#xe927;" glyph-name="find" d="M686.383 377.929l-31.851-31.851-50.961 50.961c114.663 133.773 108.292 337.617-19.11 465.020-133.773 127.403-350.358 127.403-484.131 0s-133.773-350.358 0-484.131c70.072-70.072 152.883-101.922 242.065-101.922 82.812 0 159.253 25.481 222.955 82.812l50.961-50.961-31.851-31.851 337.617-337.617 101.922 101.922-337.617 337.617zM138.551 409.78c-108.292 114.663-108.292 299.397 0 407.689 57.331 57.331 127.403 89.182 203.844 89.182s146.513-31.851 203.844-89.182c108.292-108.292 108.292-299.397 0-407.689s-293.026-108.292-407.689 0z" />
<glyph unicode="&#xe928;" glyph-name="eye-open" d="M512 576c-37.056 0-72.576-13.44-98.752-37.504-26.176-24-40.896-56.576-40.896-90.496s14.72-66.56 40.96-90.496c26.048-24.064 61.568-37.504 98.688-37.504 37.056 0 72.576 13.44 98.752 37.504 26.176 24 40.896 56.576 40.896 90.496s-14.72 66.56-40.96 90.496c-26.048 24.064-61.568 37.504-98.688 37.504zM512 234.688c-61.696 0-120.96 22.4-164.544 62.464-43.648 40-68.16 94.272-68.16 150.848s24.512 110.848 68.16 150.848c43.648 40 102.848 62.464 164.544 62.464s120.96-22.4 164.544-62.464c43.648-40 68.16-94.272 68.16-150.848s-24.512-110.848-68.16-150.848c-43.648-40-102.848-62.464-164.544-62.464zM512 768c-232.704 0-431.488-132.672-512-320 80.512-187.328 279.296-320 512-320s431.488 132.672 512 320c-80.512 187.328-279.296 320-512 320z" />
<glyph unicode="&#xe929;" glyph-name="eye-close" d="M504.064 585.28l147.584-138.368v7.040c0 34.752-14.72 68.224-40.96 92.8-26.112 24.64-61.632 38.528-98.688 38.528h-7.936zM303.936 550.208l72.128-67.84c-2.304-9.216-3.712-18.432-3.712-28.48 0-34.816 14.72-68.224 40.96-92.864 26.112-24.64 61.632-38.464 98.688-38.464 10.24 0 20.48 1.28 30.272 3.456l72.128-67.84c-31.168-14.464-65.6-23.232-102.4-23.232-61.696 0-120.96 23.040-164.544 64.128-43.648 41.088-68.16 96.768-68.16 154.879 0 34.56 9.28 66.944 24.64 96.256zM46.529 792.384l127.104-119.552c-76.8-56.96-137.344-131.328-173.632-218.88 80.512-192.319 279.296-328.512 511.999-328.512 72.128 0 141.056 13.184 203.84 36.8l20.032-18.368 135.936-127.872 59.136 55.616-825.343 776.383-59.136-55.616zM512 672.832c61.696 0 120.96-23.040 164.544-64.128 43.648-41.024 68.16-96.768 68.16-154.816 0-28.032-6.016-55.168-16.704-79.68l136.32-128.32c69.824 54.72 125.696 126.528 159.68 208-80.512 192.256-279.296 328.447-511.999 328.447-65.152 0-127.552-10.944-186.24-30.72l101.12-94.080c26.496 9.6 54.848 15.36 85.12 15.36z" />
</font>
</defs>
</svg>
