<svg xmlns="http://www.w3.org/2000/svg" width="16" height="16" fill="none" viewBox="0 0 16 16">
    <path fill="#34495E" d="M9.6 0a1.45 1.45 0 0 0-.99.384c-.263.246-.41.58-.41.928 0 .348.147.682.41.928.262.246.618.384.99.384.371 0 .727-.138.99-.384.262-.246.41-.58.41-.928 0-.348-.148-.682-.41-.928A1.45 1.45 0 0 0 9.6 0zm-.337 4.173c-1.11.087-4.145 2.353-4.145 2.353-.186.13-.13.122.019.367.15.236.13.254.308.14.187-.114.495-.297 1.008-.595 1.98-1.19.318 1.557-.532 6.185-.336 2.292 1.867 1.11 2.437.76.56-.34 2.063-1.311 2.212-1.407.206-.132.057-.237-.102-.455-.112-.15-.224-.044-.224-.044-.607.376-1.718 1.163-1.867.665-.178-.499.961-3.92 1.587-6.272.102-.56.383-1.785-.7-1.697z"/>
</svg>
