<svg xmlns="http://www.w3.org/2000/svg" viewBox="0 0 32 32"><defs><style>.a{fill:#025e7f;}</style></defs><title>filter-2</title><path class="a" d="M15.83,3.67c-7,0-12.67,1.77-12.67,4V10l9.5,9.5v7.92c0,.87,1.42,1.58,3.17,1.58S19,28.29,19,27.42V19.5L28.5,10V7.63C28.5,5.44,22.83,3.67,15.83,3.67ZM5.5,7.1a10.77,10.77,0,0,1,2.41-.93,31.23,31.23,0,0,1,7.92-.92,31.23,31.23,0,0,1,7.92.92,10.77,10.77,0,0,1,2.41.93,2.75,2.75,0,0,1,.7.52,2.76,2.76,0,0,1-.7.52,10.77,10.77,0,0,1-2.41.93,31.23,31.23,0,0,1-7.92.92,31.23,31.23,0,0,1-7.92-.92A10.78,10.78,0,0,1,5.5,8.15a2.76,2.76,0,0,1-.7-.52A2.76,2.76,0,0,1,5.5,7.1Z"/></svg>