<svg xmlns="http://www.w3.org/2000/svg" xmlns:xlink="http://www.w3.org/1999/xlink" viewBox="0 0 994.5 492.2"><defs><style>.a{fill:url(#a);}.b{fill:#1870c5;}.c{fill:#fff;}</style><linearGradient id="a" x1="361.79" y1="411.7" x2="362.74" y2="411.7" gradientTransform="translate(212003.7 -185835.1) rotate(90) scale(513.7)" gradientUnits="userSpaceOnUse"><stop offset="0" stop-color="#00b8f1"/><stop offset="0.22" stop-color="#06a5e5"/><stop offset="0.79" stop-color="#1870c5"/><stop offset="1" stop-color="#1d61bc"/></linearGradient></defs><title>icon_sap_LOW</title><path class="a" d="M14.8,15v492H517.3L1009.2,15H14.8Z" transform="translate(-14.8 -15)"/><path class="b" d="M651.3,456.6v36.7h5.5V477.4h6.2l10,15.9h6.2l-10.7-15.9c5.4-.7,9.7-3.8,9.7-10.4s-4.4-10.4-13.2-10.4Zm5.5,4.8h7.6c3.7,0,8,.6,8,5.2s-4.3,6.2-9,6.2h-6.6Zm6.9-18.3c-17.6,0-32.5,13.5-32.5,31.8s15,32.2,32.5,32.2a32,32,0,0,0,0-64Zm0,5.2c14.3,0,25.6,11.6,25.6,26.7s-11.3,26.7-25.6,26.7-26.3-11.3-26.3-26.7A26.2,26.2,0,0,1,663.8,448.3Z" transform="translate(-14.8 -15)"/><path class="c" d="M610.7,250.4H589.1V171.5h21.6c28.8,0,51.7,9.5,51.7,38.9s-22.9,39.9-51.7,39.9m-232,56.4a89.5,89.5,0,0,1-31.4-5.6l31-97.9h.7l30.4,98.2a91.4,91.4,0,0,1-30.7,5.3M604.9,107.5H507.1V340.2L421.5,107.5H336.8L263.7,302.1c-7.7-49-58.5-66-98.5-78.7-26.3-8.5-54.4-20.9-54.1-34.7.2-11.3,15.1-21.7,44.3-20.2,19.7,1,37.1,2.6,71.6,19.3l34-59.2c-31.5-16.1-75.2-26.2-110.9-26.3H150c-41.7,0-76.4,13.6-97.9,35.8a82.8,82.8,0,0,0-23.4,57.1c-.6,30,10.5,51.3,33.6,68.3,19.6,14.3,44.5,23.6,66.6,30.5,27.2,8.4,49.4,15.7,49.1,31.3a22.7,22.7,0,0,1-6.4,15.2c-6.8,7-17.2,9.6-31.6,10-27.7.6-48.3-3.8-81.1-23.1L28.7,387.4a225.9,225.9,0,0,0,110.8,29.5h5.1c34.3-.7,62.1-10.5,84.2-28.3l3.6-3.1-9.8,26.3h88.9l14.9-45.4a170,170,0,0,0,103.3.4l14.4,45h145v-94h31.6c76.4,0,121.7-38.9,121.7-104.2,0-72.7-44-106-137.5-106" transform="translate(-14.8 -15)"/></svg>