<svg xmlns="http://www.w3.org/2000/svg" viewBox="0 0 32 32"><defs><style>.a{fill:#9fdae9;}.b{fill:#f26f21;}.c{fill:#00547b;}</style></defs><title>icons</title><path class="a" d="M2.79,13.6l-1-.18q-.09.51-.15,1l1,.11C2.69,14.24,2.73,13.92,2.79,13.6Z"/><path class="a" d="M3.28,11.74l-.93-.32q-.17.49-.3,1l.95.25Q3.12,12.19,3.28,11.74Z"/><path class="a" d="M5,8.31l-.8-.57q-.3.42-.57.86l.84.51Q4.75,8.7,5,8.31Z"/><path class="a" d="M4,10l-.87-.45q-.24.46-.44.94l.9.38Q3.81,10.39,4,10Z"/><path class="a" d="M4.49,22.86l-.84.51q.27.44.57.86l.8-.57Q4.74,23.27,4.49,22.86Z"/><path class="a" d="M4.87,6.92l.75.63q.31-.37.64-.72l-.71-.68Q5.2,6.52,4.87,6.92Z"/><path class="a" d="M3.61,21.14l-.9.38q.2.48.44.94L4,22Q3.8,21.59,3.61,21.14Z"/><path class="a" d="M3,19.32,2,19.56q.13.5.3,1l.93-.31Q3.12,19.79,3,19.32Z"/><path class="a" d="M2.65,17.42l-1,.1q.06.52.15,1l1-.18Q2.7,17.9,2.65,17.42Z"/><path class="a" d="M16.74,2.8l.07-1q-.5,0-1,0h0l0,1Q16.27,2.77,16.74,2.8Z"/><path class="a" d="M27.55,9.92l.87-.45q-.24-.46-.51-.9l-.84.51Q27.32,9.49,27.55,9.92Z"/><path class="a" d="M28.3,11.69l.93-.32q-.17-.49-.37-1l-.9.39Q28.15,11.23,28.3,11.69Z"/><path class="a" d="M26.54,8.28l.79-.57q-.3-.42-.64-.82l-.75.63Q26.25,7.88,26.54,8.28Z"/><path class="a" d="M29,15.47l1,0q0-.52-.08-1l-1,.11Q29,15,29,15.47Z"/><path class="a" d="M28.8,13.55l1-.18q-.1-.51-.23-1l-.95.25Q28.71,13.08,28.8,13.55Z"/><path class="a" d="M20.85,2.71q-.48-.18-1-.33l-.28.94q.47.14.91.31Z"/><path class="a" d="M18.86,2.12q-.5-.11-1-.19l-.14,1q.48.07.95.17Z"/><path class="a" d="M22.73,3.59q-.45-.25-.92-.47L21.39,4q.44.2.86.44Z"/><path class="a" d="M24.46,4.73q-.41-.32-.84-.6l-.54.82q.4.27.79.56Z"/><path class="a" d="M26,6.11q-.36-.37-.75-.72l-.65.73q.36.32.7.67Z"/><path class="a" d="M4.86,25.05q.33.4.69.77l.71-.68q-.33-.35-.64-.72Z"/><path class="a" d="M7.95,4.16,8.49,5q.4-.27.82-.5l-.48-.85Q8.38,3.87,7.95,4.16Z"/><path class="a" d="M6.29,26.55q.39.35.8.67l.6-.77q-.38-.3-.74-.62Z"/><path class="a" d="M7.93,27.82q.43.29.88.54l.48-.85q-.42-.24-.82-.51Z"/><path class="a" d="M13.71,1.94l.14,1q.47-.07,1-.11l-.07-1Q14.22,1.87,13.71,1.94Z"/><path class="a" d="M9.73,28.84q.47.22,1,.41l.35-.91q-.45-.17-.89-.38Z"/><path class="a" d="M6.31,5.43,7,6.16q.36-.32.74-.62l-.6-.77Q6.69,5.08,6.31,5.43Z"/><path class="a" d="M11.67,29.59q.49.15,1,.26l.22-1q-.47-.11-.93-.25Z"/><path class="a" d="M13.69,30q.51.08,1,.12l.07-1q-.48,0-1-.11Z"/><path class="a" d="M11.68,2.4l.28.94q.46-.14.93-.24l-.21-1Q12.18,2.25,11.68,2.4Z"/><path class="a" d="M9.75,3.14l.42.89q.43-.21.89-.38l-.35-.91Q10.22,2.92,9.75,3.14Z"/><path class="a" d="M2.57,16q0-.24,0-.47l-1,0q0,.25,0,.51t0,.51l1,0Q2.57,16.23,2.57,16Z"/><polygon class="b" points="30 30.2 15.8 30.2 30 16 30 30.2"/><path class="c" d="M25.84,26a14.2,14.2,0,0,1-10,4.16A14.2,14.2,0,0,1,30,16a14.19,14.19,0,0,1-4.16,10"/></svg>