<svg xmlns="http://www.w3.org/2000/svg" width="16" height="16" fill="none" viewBox="0 0 16 16">
    <path fill="#78909C" d="M11.8 6.4c.5.8.9 1.7.9 2.7 0 1.4-.6 2.6-1.6 3.5l2.4 2.4C15 13.5 16 11.4 16 9.1c0-1.9-.7-3.7-1.8-5.1l-2.4 2.4z"/>
    <path fill="#78909C" d="M8 1.1c-2.5 0-4.8 1.2-6.3 3l2.4 2.4C5 5.3 6.4 4.4 8 4.4s2.9.8 3.8 2L14.2 4C12.7 2.2 10.5 1.1 8 1.1z"/>
    <path fill="#78909C" d="M4.1 6.5L1.7 4.1C.7 5.5 0 7.2 0 9.1c0 2.3 1 4.3 2.5 5.8l2.4-2.4c-.9-.8-1.5-2.1-1.5-3.4 0-1 .3-1.9.7-2.6zM12.2 5.9c-.6 1-1.3 2-1.9 3-.3.5-.7 1-1.1 1.4-.2.2-.4.3-.6.4-.3.1-.5.1-.8.1-.3 0-.6-.1-.9-.3-.1-.1-.3-.2-.4-.3l-.2-.2c0-.1-.1-.1-.1-.2-.3-.5-.4-1-.3-1.6.1-.4.4-.9.9-1.2.2-.1.5-.2.7-.3.3-.1.6-.2.9-.2.6-.1 3.8-.6 3.8-.6zM8.4 9.5c.3-.2.5-.6.4-.9-.1-.4-.4-.7-.8-.8-.4 0-.8.2-.9.5-.2.4-.1.8.1 1.1.3.3.8.3 1.2.1z"/>
</svg>
