<?xml version="1.0" encoding="utf-8"?>
<!-- Generator: Adobe Illustrator 21.1.0, SVG Export Plug-In . SVG Version: 6.00 Build 0)  -->
<svg version="1.1" id="Layer_1" xmlns="http://www.w3.org/2000/svg" xmlns:xlink="http://www.w3.org/1999/xlink" x="0px" y="0px"
	 viewBox="0 0 32 32" style="enable-background:new 0 0 32 32;" xml:space="preserve">
<style type="text/css">
	.st0{fill:#FF4040;}
	.st1{fill:#F26F21;}
	.st2{fill:#444867;}
</style>
<title>icons</title>
<path class="st0" d="M5.4,16h-1c0-0.5,0-1,0.1-1.6l1,0.1C5.5,15,5.4,15.5,5.4,16z"/>
<path class="st0" d="M6.3,11.9l-0.9-0.4C5.7,10.6,6.2,9.8,6.8,9l0.8,0.6C7.1,10.3,6.6,11.1,6.3,11.9z M9.6,7.7L9,6.9
	c0.8-0.6,1.7-1.1,2.6-1.5l0.4,1C11.1,6.7,10.3,7.2,9.6,7.7z"/>
<path class="st0" d="M15.8,27.4c-0.4,0-0.9,0-1.3-0.1l0.1-1c0.4,0,0.8,0.1,1.2,0.1c0.5,0,1-0.1,1.5-0.2l0.2,1
	C16.9,27.3,16.4,27.3,15.8,27.4z M11.6,26.6c-0.9-0.4-1.8-0.9-2.6-1.5l0.6-0.8c0.7,0.5,1.5,1,2.4,1.3L11.6,26.6z M6.9,23
	c-0.6-0.8-1.1-1.6-1.5-2.6L6.3,20c0.4,0.8,0.8,1.6,1.4,2.4L6.9,23z M27.2,17.7l-1-0.1c0-0.4,0-0.7,0-1s0-0.5,0-0.6l0,0
	c0-0.4,0-0.8-0.1-1.1l1-0.1c0,0.4,0.1,0.8,0.1,1.2c0,0.2,0,0.4,0,0.7S27.2,17.3,27.2,17.7L27.2,17.7z M25.5,12.2
	c-0.3-0.8-0.8-1.6-1.3-2.4L25,9.2c0.6,0.8,1.1,1.7,1.4,2.6L25.5,12.2z M22.3,7.9c-0.7-0.6-1.5-1-2.3-1.4l0.4-0.9
	C21.3,6,22.2,6.5,23,7.1L22.3,7.9z M17.3,5.7c-0.9-0.1-1.8-0.1-2.7,0l-0.1-1c1-0.1,2-0.1,3,0L17.3,5.7z"/>
<path class="st0" d="M4.5,17.6c-0.1-0.5-0.1-1-0.1-1.6h1c0,0.5,0,0.9,0.1,1.4L4.5,17.6z"/>
<polygon class="st1" points="27.2,27.4 15.8,27.4 27.2,16 "/>
<path class="st2" d="M23.2,23.4c-1.9,1.9-4.6,3-7.4,3c0-5.8,4.7-10.4,10.4-10.4C26.3,18.8,25.2,21.4,23.2,23.4"/>
</svg>
