<svg xmlns="http://www.w3.org/2000/svg" viewBox="0 0 32 32"><defs><style>.a{fill:#025e7f;}</style></defs><title>icons</title><path class="a" d="M22.453,8.449c1.466,0,2.638-1.466,2.638-3.225S24.725,2,22.453,2s-2.638,1.466-2.638,3.224S20.987,8.449,22.453,8.449Z"/><path class="a" d="M23.919,8.742a1.841,1.841,0,0,1-1.466.586,1.841,1.841,0,0,1-1.466-.586c-3,.513-3.444,1.392-3.517,4.4v.513s.733,1.466,4.983,1.466,4.983-1.466,4.983-1.466v-.44C27.363,10.134,27,9.255,23.919,8.742Z"/><path class="a" d="M12.8,15.57c2.4,0,4.32-2.4,4.32-5.28s-.6-5.28-4.32-5.28-4.32,2.4-4.32,5.28S10.4,15.57,12.8,15.57Z"/><path class="a" d="M15.2,16.05a3.013,3.013,0,0,1-2.4.96,3.013,3.013,0,0,1-2.4-.96c-4.92.84-5.64,2.28-5.76,7.2v.84s1.2,2.4,8.16,2.4,8.16-2.4,8.16-2.4v-.72C20.84,18.33,20.24,16.89,15.2,16.05Z"/></svg>