<svg xmlns="http://www.w3.org/2000/svg" viewBox="0 0 32 32"><defs><style>.a{fill:#00547b;}.b{fill:#f26f21;}</style></defs><title>icons</title><path class="a" d="M5.43,16h-1a11.72,11.72,0,0,1,.11-1.57l1,.14A9.73,9.73,0,0,0,5.43,16Z"/><path class="a" d="M6.25,11.94l-.92-.39A11.52,11.52,0,0,1,6.85,9l.79.62A10.87,10.87,0,0,0,6.25,11.94ZM9.58,7.7,9,6.9a11.48,11.48,0,0,1,2.6-1.46l.37.92A10.47,10.47,0,0,0,9.58,7.7Z"/><path class="a" d="M15.8,27.36a11.67,11.67,0,0,1-1.32-.07l.12-1a9.55,9.55,0,0,0,1.2.07,12.2,12.2,0,0,0,1.51-.17l.16,1A13.8,13.8,0,0,1,15.8,27.36Zm-4.21-.8A11.48,11.48,0,0,1,9,25.1l.6-.8A10.43,10.43,0,0,0,12,25.63ZM6.86,23a11.3,11.3,0,0,1-1.52-2.57l.92-.39A10.43,10.43,0,0,0,7.64,22.4Zm20.29-5.31-1-.06q0-.58,0-1c0-.26,0-.45,0-.56V16a10.55,10.55,0,0,0-.06-1.13l1-.1c0,.4.07.81.07,1.23,0,.19,0,.39,0,.66S27.17,17.3,27.15,17.71Zm-1.69-5.48a10.64,10.64,0,0,0-1.31-2.38l.8-.59a10.9,10.9,0,0,1,1.44,2.61Zm-3.2-4.34a10.23,10.23,0,0,0-2.33-1.4l.4-.92a11.54,11.54,0,0,1,2.56,1.54ZM17.32,5.74a10.31,10.31,0,0,0-2.72,0l-.12-1a11.42,11.42,0,0,1,3,0Z"/><path class="a" d="M4.54,17.56A11.69,11.69,0,0,1,4.43,16h1a9.69,9.69,0,0,0,.1,1.42Z"/><polygon class="b" points="27.16 27.36 15.8 27.36 27.16 16 27.16 27.36"/><path class="a" d="M23.83,24a11.36,11.36,0,0,1-8,3.33A11.34,11.34,0,0,1,27.16,16a11.36,11.36,0,0,1-3.33,8"/></svg>