<svg id="Layer_2" data-name="Layer 2" xmlns="http://www.w3.org/2000/svg" viewBox="0 0 9.3 9.3"><defs><style>.cls-1{fill:#78909c;}</style></defs><title>icn_recently_used</title><path class="cls-1" d="M16,11.37c-2.57,0-4.65.65-4.65,1.45v.87l3.49,3.49v2.91c0,.32.52.58,1.16.58s1.16-.26,1.16-.58V17.18l3.49-3.49v-.87C20.67,12,18.59,11.37,16,11.37Zm-3.79,1.26a4,4,0,0,1,.88-.34A11.46,11.46,0,0,1,16,12a11.46,11.46,0,0,1,2.91.34,4,4,0,0,1,.88.34,1,1,0,0,1,.26.19,1,1,0,0,1-.26.19,4,4,0,0,1-.88.34,11.46,11.46,0,0,1-2.91.34,11.46,11.46,0,0,1-2.91-.34,4,4,0,0,1-.88-.34,1,1,0,0,1-.26-.19A1,1,0,0,1,12.23,12.63Z" transform="translate(-11.37 -11.37)"/></svg>