<?xml version="1.0" encoding="utf-8"?>
<!-- Generator: Adobe Illustrator 21.1.0, SVG Export Plug-In . SVG Version: 6.00 Build 0)  -->
<svg version="1.1" id="Capa_1" xmlns="http://www.w3.org/2000/svg" xmlns:xlink="http://www.w3.org/1999/xlink" x="0px" y="0px"
	 viewBox="0 0 23.6 23.6" style="enable-background:new 0 0 23.6 23.6;" xml:space="preserve">
<style type="text/css">
	.st0{fill:#E9C944;}
	.st1{fill:#EE4D4D;}
	.st2{fill:#84BE56;}
	.st3{fill:#025E7F;}
</style>
<path class="st0" d="M16.1,8.5c-0.2-0.2-0.4-0.3-0.6-0.5c-2.3-1.8-5.6-1.6-7.8,0.4c-0.1,0-0.1,0.1-0.2,0.1C7.4,8.4,7.3,8.3,7.2,8.2
	C6.1,7.1,5,6,3.9,4.9c1.2-1.2,2.7-2.1,4.3-2.7c1.4-0.5,2.8-0.7,4.3-0.6c2.8,0.2,5.2,1.3,7.3,3.2c0,0,0,0.1,0.1,0.1
	C18.8,6,17.8,7,16.7,8.1C16.4,8.2,16.2,8.4,16.1,8.5z"/>
<path class="st1" d="M3.9,4.9C5,6,6.1,7.1,7.2,8.2c0.1,0.1,0.2,0.2,0.3,0.3c-0.6,0.6-1.1,1.3-1.3,2.1c-0.8,2.3-0.4,4.4,1.2,6.2
	c0.2,0.2,0.1,0.3,0,0.4c-1.2,1.1-2.3,2.3-3.5,3.5c-1-0.9-1.7-2-2.3-3.2c-0.5-1.2-0.9-2.4-1-3.6c-0.3-3,0.5-5.7,2.4-8.1
	C3.3,5.5,3.5,5.1,3.9,4.9z"/>
<path class="st2" d="M20.6,5.8c1.9,2.4,2.7,5.1,2.4,8.1c-0.1,1.2-0.5,2.4-1,3.6c-0.6,1.2-1.3,2.3-2.3,3.2c-1.2-1.2-2.3-2.4-3.5-3.5
	c-0.1-0.1-0.2-0.2,0-0.4c1.6-1.8,2-3.9,1.2-6.2c-0.2-0.8-0.7-1.5-1.3-2.1c0.1-0.1,0.2-0.2,0.3-0.3c1.1-1.1,2.2-2.2,3.3-3.3
	C20.1,5.1,20.3,5.5,20.6,5.8z"/>
<path class="st3" d="M18.5,6.2c0,0.1-3.7,6.8-4.3,7.7c-0.3,0.6-0.7,1-1.4,1.3c-1.1,0.5-2.5,0.2-3.2-0.8c-0.7-1.1-0.6-2.5,0.2-3.5
	c0.4-0.4,0.9-0.8,1.5-1C12.5,9.3,18.3,6.2,18.5,6.2z M12.4,13.4c0.4-0.3,0.4-0.9,0-1.3c-0.3-0.4-0.9-0.4-1.3,0
	c-0.4,0.3-0.4,0.9,0,1.3C11.5,13.8,12,13.8,12.4,13.4z"/>
</svg>
