<?xml version="1.0" encoding="utf-8"?>
<!-- Generator: Adobe Illustrator 21.1.0, SVG Export Plug-In . SVG Version: 6.00 Build 0)  -->
<svg version="1.1" id="Layer_1" xmlns="http://www.w3.org/2000/svg" xmlns:xlink="http://www.w3.org/1999/xlink" x="0px" y="0px"
	 viewBox="0 0 100 115.4" style="enable-background:new 0 0 100 115.4;" xml:space="preserve">
<style type="text/css">
	.st0{fill:#666666;}
</style>
<path class="st0" d="M54.8,11.6c-0.1,0-0.2,0-0.3,0c-2.7,0-4.5,2.2-4.5,4.8c0,2.6,1,4.8,5,4.8v0c19,0.3,35.6,16.5,35.6,36.4
	c0,20.1-16.5,36.6-36.6,36.6c-19.2,0-35.1-14.5-36.5-33.5h8.5L13,39.1L0,60.8h8c1.4,24,21.5,43.1,46,43.1c25.4,0,46-20.8,46-46.2
	C100,32.6,79.8,12,54.8,11.6z"/>
<path class="st0" d="M59.1,38c0-2.3-1.8-4.2-4.1-4.2h-0.9c-2.3,0-4,1.9-4,4.2v24.2L38.2,74c-1.8,1.8-1.7,4.6,0,6.3
	c1.7,1.8,4.6,1.8,6.3,0l13.1-13.1c0.1-0.1,0.2-0.2,0.3-0.3c0.7-0.7,1.2-1.8,1.2-2.9L59.1,38L59.1,38z"/>
</svg>
