<svg xmlns="http://www.w3.org/2000/svg" width="20" height="20" fill="none" viewBox="0 0 20 20">
    <path fill="#909191" fill-rule="evenodd" d="M3.778 10A6.23 6.23 0 0 1 10 3.778 6.229 6.229 0 0 1 16.222 10 6.229 6.229 0 0 1 10 16.222 6.23 6.23 0 0 1 3.778 10zm5.333.889l4.222 2.533L14 12.33l-3.556-2.107V5.556H9.111v5.333z" clip-rule="evenodd" opacity=".3"/>
    <path fill="#909191" d="M10.445 5.556H9.11v5.333l4.223 2.533L14 12.33l-3.555-2.107V5.556z"/>
    <path fill="#909191" fill-rule="evenodd" d="M2 10a8 8 0 1 1 16.001.001A8 8 0 0 1 2 10zm1.778 0A6.229 6.229 0 0 0 10 16.222 6.229 6.229 0 0 0 16.222 10 6.229 6.229 0 0 0 10 3.778 6.23 6.23 0 0 0 3.778 10z" clip-rule="evenodd"/>
</svg>
