<svg xmlns="http://www.w3.org/2000/svg" viewBox="0 0 32 32"><defs><style>.a{fill:none;}.b{fill:#fc0;}</style></defs><title>icons</title><rect class="a" width="32" height="32"/><path class="b" d="M8.4,26.31l.27-1.59q.46-2.66.92-5.33A.39.39,0,0,0,9.45,19L4.6,14.3a1,1,0,0,1-.34-.86A.87.87,0,0,1,5,12.7L9.87,12c.68-.1,1.36-.19,2-.3a.44.44,0,0,0,.26-.23q1.51-3,3-6.07a.93.93,0,0,1,.77-.59.89.89,0,0,1,.92.57l2,4c.34.69.69,1.38,1,2.07a.36.36,0,0,0,.32.22l6.78,1a.87.87,0,0,1,.77.61.88.88,0,0,1-.27,1L22.62,19a.48.48,0,0,0-.16.49q.59,3.34,1.16,6.68a.86.86,0,0,1-.34.9.88.88,0,0,1-1,0l-6-3.17a.4.4,0,0,0-.43,0l-6,3.17a.89.89,0,0,1-1.32-.52C8.42,26.48,8.41,26.4,8.4,26.31Z"/></svg>