<svg xmlns="http://www.w3.org/2000/svg" viewBox="0 0 32 32"><defs><style>.a{fill:none;}.b{fill:#025e7f;}</style></defs><title>icons</title><rect class="a" width="32" height="32"/><path class="b" d="M18.45,10.27c-4.75,0-8.6,1.2-8.6,2.69v1.61L16.3,21V26.4c0,.59,1,1.07,2.15,1.07S20.6,27,20.6,26.4V21L27,14.57V13C27,11.48,23.19,10.27,18.45,10.27Zm-7,2.33A7.31,7.31,0,0,1,13.06,12a21.2,21.2,0,0,1,5.38-.63,21.2,21.2,0,0,1,5.38.63,7.31,7.31,0,0,1,1.63.63,1.87,1.87,0,0,1,.48.36,1.87,1.87,0,0,1-.48.36,7.31,7.31,0,0,1-1.63.63,21.2,21.2,0,0,1-5.38.63,21.2,21.2,0,0,1-5.38-.63,7.32,7.32,0,0,1-1.63-.63A1.87,1.87,0,0,1,11,13,1.87,1.87,0,0,1,11.43,12.61Z"/><path d="M12.2,7.07V8L12,8.15,11,8.54A.12.12,0,0,0,11,8.6L10.79,9a.12.12,0,0,0,0,.08l.15.34.31.73a.09.09,0,0,1,0,.11l-.59.58a.13.13,0,0,1-.16,0l-1-.4a.24.24,0,0,0-.21,0l-.38.16a.18.18,0,0,0-.08.08c0,.06-.05.13-.08.2l-.39.92h-1c0-.09-.1-.19-.14-.28l-.36-.84a.16.16,0,0,0-.07-.08l-.44-.18a.14.14,0,0,0-.09,0l-.42.18-.66.27a.11.11,0,0,1-.14,0l-.48-.48c-.17-.17-.17-.17-.08-.39l.38-.93a.1.1,0,0,0,0-.07L4.63,8.6a.1.1,0,0,0-.05,0L3.41,8.08q0-.48,0-1L3.66,7l.91-.38a.11.11,0,0,0,.05,0l.19-.45a.11.11,0,0,0,0-.08L4.67,5.7,4.35,5a.1.1,0,0,1,0-.12L5,4.25a.12.12,0,0,1,.1,0l.25.08.87.35a.16.16,0,0,0,.11,0l.44-.18a.11.11,0,0,0,.06-.05l.48-1.14h1c0,.1.1.19.14.29l.36.84a.17.17,0,0,0,.08.08l.41.17a.15.15,0,0,0,.13,0l.51-.23.56-.22a.09.09,0,0,1,.11,0l.49.48c.18.18.18.18.08.41L10.79,6a.09.09,0,0,0,0,.07l.19.46a.1.1,0,0,0,.05,0ZM7.81,6.2A1.38,1.38,0,1,0,9.22,7.58,1.4,1.4,0,0,0,7.81,6.2Z"/></svg>